<?xml version="1.0" encoding="UTF-8"?>
<!-- Generated by Pixelmator Pro 3.3.11 -->
<svg width="126" height="53" viewBox="0 0 126 53" xmlns="http://www.w3.org/2000/svg">
    <path id="Shape-28" fill="#fe3e57" fill-rule="evenodd" stroke="none" d="M 1.740234 53 C 0.778834 53 0 52.221165 0 51.261719 C 0 50.301785 0.778834 49.523438 1.740234 49.523438 C 2.701756 49.523438 3.482422 50.301785 3.482422 51.261719 C 3.482422 52.221165 2.701756 53 1.740234 53 Z M 15.451172 53 C 14.489772 53 13.708984 52.221165 13.708984 51.261719 C 13.708984 50.301785 14.489772 49.523438 15.451172 49.523438 C 16.412668 49.523438 17.191406 50.301785 17.191406 51.261719 C 17.191406 52.221165 16.412668 53 15.451172 53 Z M 28.943359 53 C 27.981985 53 27.201172 52.221165 27.201172 51.261719 C 27.201172 50.301785 27.981985 49.523438 28.943359 49.523438 C 29.904734 49.523438 30.683594 50.301785 30.683594 51.261719 C 30.683594 52.221165 29.904734 53 28.943359 53 Z M 42.652344 53 C 41.690796 53 40.912109 52.221165 40.912109 51.261719 C 40.912109 50.301785 41.690796 49.523438 42.652344 49.523438 C 43.61377 49.523438 44.394531 50.301785 44.394531 51.261719 C 44.394531 52.221165 43.61377 53 42.652344 53 Z M 56.144531 53 C 55.183105 53 54.404297 52.221165 54.404297 51.261719 C 54.404297 50.301785 55.183105 49.523438 56.144531 49.523438 C 57.106079 49.523438 57.886719 50.301785 57.886719 51.261719 C 57.886719 52.221165 57.106079 53 56.144531 53 Z M 69.855469 53 C 68.894043 53 68.113281 52.221165 68.113281 51.261719 C 68.113281 50.301785 68.894043 49.523438 69.855469 49.523438 C 70.817017 49.523438 71.595703 50.301785 71.595703 51.261719 C 71.595703 52.221165 70.817017 53 69.855469 53 Z M 83.347656 53 C 82.38623 53 81.605469 52.221165 81.605469 51.261719 C 81.605469 50.301785 82.38623 49.523438 83.347656 49.523438 C 84.309204 49.523438 85.087891 50.301785 85.087891 51.261719 C 85.087891 52.221165 84.309204 53 83.347656 53 Z M 97.056641 53 C 96.095093 53 95.316406 52.221165 95.316406 51.261719 C 95.316406 50.301785 96.095093 49.523438 97.056641 49.523438 C 98.018066 49.523438 98.796875 50.301785 98.796875 51.261719 C 98.796875 52.221165 98.018066 53 97.056641 53 Z M 110.548828 53 C 109.58728 53 108.808594 52.221165 108.808594 51.261719 C 108.808594 50.301785 109.58728 49.523438 110.548828 49.523438 C 111.510254 49.523438 112.289063 50.301785 112.289063 51.261719 C 112.289063 52.221165 111.510254 53 110.548828 53 Z M 124.259766 53 C 123.29834 53 122.517578 52.221165 122.517578 51.261719 C 122.517578 50.301785 123.29834 49.523438 124.259766 49.523438 C 125.221313 49.523438 126 50.301785 126 51.261719 C 126 52.221165 125.221313 53 124.259766 53 Z M 1.740234 36.492188 C 0.778827 36.492188 0 35.713341 0 34.753906 C 0 33.793983 0.778827 33.015625 1.740234 33.015625 C 2.701764 33.015625 3.482422 33.793983 3.482422 34.753906 C 3.482422 35.713341 2.701764 36.492188 1.740234 36.492188 Z M 15.451172 36.492188 C 14.489765 36.492188 13.708984 35.713341 13.708984 34.753906 C 13.708984 33.793983 14.489765 33.015625 15.451172 33.015625 C 16.412682 33.015625 17.191406 33.793983 17.191406 34.753906 C 17.191406 35.713341 16.412682 36.492188 15.451172 36.492188 Z M 28.943359 36.492188 C 27.981974 36.492188 27.201172 35.713341 27.201172 34.753906 C 27.201172 33.793983 27.981974 33.015625 28.943359 33.015625 C 29.904745 33.015625 30.683594 33.793983 30.683594 34.753906 C 30.683594 35.713341 29.904745 36.492188 28.943359 36.492188 Z M 42.652344 36.492188 C 41.690796 36.492188 40.912109 35.713337 40.912109 34.753906 C 40.912109 33.793987 41.690796 33.015625 42.652344 33.015625 C 43.61377 33.015625 44.394531 33.793987 44.394531 34.753906 C 44.394531 35.713337 43.61377 36.492188 42.652344 36.492188 Z M 56.144531 36.492188 C 55.183105 36.492188 54.404297 35.713333 54.404297 34.753906 C 54.404297 33.793991 55.183105 33.015625 56.144531 33.015625 C 57.106079 33.015625 57.886719 33.793991 57.886719 34.753906 C 57.886719 35.713333 57.106079 36.492188 56.144531 36.492188 Z M 69.855469 36.492188 C 68.894043 36.492188 68.113281 35.713333 68.113281 34.753906 C 68.113281 33.793991 68.894043 33.015625 69.855469 33.015625 C 70.817017 33.015625 71.595703 33.793991 71.595703 34.753906 C 71.595703 35.713333 70.817017 36.492188 69.855469 36.492188 Z M 83.347656 36.492188 C 82.38623 36.492188 81.605469 35.713333 81.605469 34.753906 C 81.605469 33.793991 82.38623 33.015625 83.347656 33.015625 C 84.309204 33.015625 85.087891 33.793991 85.087891 34.753906 C 85.087891 35.713333 84.309204 36.492188 83.347656 36.492188 Z M 97.056641 36.492188 C 96.095093 36.492188 95.316406 35.713329 95.316406 34.753906 C 95.316406 33.793995 96.095093 33.015625 97.056641 33.015625 C 98.018066 33.015625 98.796875 33.793995 98.796875 34.753906 C 98.796875 35.713329 98.018066 36.492188 97.056641 36.492188 Z M 110.548828 36.492188 C 109.58728 36.492188 108.808594 35.713326 108.808594 34.753906 C 108.808594 33.793999 109.58728 33.015625 110.548828 33.015625 C 111.510254 33.015625 112.289063 33.793999 112.289063 34.753906 C 112.289063 35.713326 111.510254 36.492188 110.548828 36.492188 Z M 124.259766 36.492188 C 123.29834 36.492188 122.517578 35.713326 122.517578 34.753906 C 122.517578 33.793999 123.29834 33.015625 124.259766 33.015625 C 125.221313 33.015625 126 33.793999 126 34.753906 C 126 35.713326 125.221313 36.492188 124.259766 36.492188 Z M 1.740234 19.984375 C 0.778818 19.984375 0 19.206055 0 18.246094 C 0 17.286621 0.778818 16.507813 1.740234 16.507813 C 2.701773 16.507813 3.482422 17.286621 3.482422 18.246094 C 3.482422 19.206055 2.701773 19.984375 1.740234 19.984375 Z M 15.451172 19.984375 C 14.489757 19.984375 13.708984 19.206055 13.708984 18.246094 C 13.708984 17.286621 14.489757 16.507813 15.451172 16.507813 C 16.412699 16.507813 17.191406 17.286621 17.191406 18.246094 C 17.191406 19.206055 16.412699 19.984375 15.451172 19.984375 Z M 28.943359 19.984375 C 27.981956 19.984375 27.201172 19.206055 27.201172 18.246094 C 27.201172 17.286621 27.981956 16.507813 28.943359 16.507813 C 29.904762 16.507813 30.683594 17.286621 30.683594 18.246094 C 30.683594 19.206055 29.904762 19.984375 28.943359 19.984375 Z M 42.652344 19.984375 C 41.690796 19.984375 40.912109 19.206055 40.912109 18.246094 C 40.912109 17.286621 41.690796 16.507813 42.652344 16.507813 C 43.61377 16.507813 44.394531 17.286621 44.394531 18.246094 C 44.394531 19.206055 43.61377 19.984375 42.652344 19.984375 Z M 56.144531 19.984375 C 55.183105 19.984375 54.404297 19.206055 54.404297 18.246094 C 54.404297 17.286621 55.183105 16.507813 56.144531 16.507813 C 57.106079 16.507813 57.886719 17.286621 57.886719 18.246094 C 57.886719 19.206055 57.106079 19.984375 56.144531 19.984375 Z M 69.855469 19.984375 C 68.894043 19.984375 68.113281 19.206055 68.113281 18.246094 C 68.113281 17.286621 68.894043 16.507813 69.855469 16.507813 C 70.817017 16.507813 71.595703 17.286621 71.595703 18.246094 C 71.595703 19.206055 70.817017 19.984375 69.855469 19.984375 Z M 83.347656 19.984375 C 82.38623 19.984375 81.605469 19.206055 81.605469 18.246094 C 81.605469 17.286621 82.38623 16.507813 83.347656 16.507813 C 84.309204 16.507813 85.087891 17.286621 85.087891 18.246094 C 85.087891 19.206055 84.309204 19.984375 83.347656 19.984375 Z M 97.056641 19.984375 C 96.095093 19.984375 95.316406 19.206055 95.316406 18.246094 C 95.316406 17.286621 96.095093 16.507813 97.056641 16.507813 C 98.018066 16.507813 98.796875 17.286621 98.796875 18.246094 C 98.796875 19.206055 98.018066 19.984375 97.056641 19.984375 Z M 110.548828 19.984375 C 109.58728 19.984375 108.808594 19.206055 108.808594 18.246094 C 108.808594 17.286621 109.58728 16.507813 110.548828 16.507813 C 111.510254 16.507813 112.289063 17.286621 112.289063 18.246094 C 112.289063 19.206055 111.510254 19.984375 110.548828 19.984375 Z M 124.259766 19.984375 C 123.29834 19.984375 122.517578 19.206055 122.517578 18.246094 C 122.517578 17.286621 123.29834 16.507813 124.259766 16.507813 C 125.221313 16.507813 126 17.286621 126 18.246094 C 126 19.206055 125.221313 19.984375 124.259766 19.984375 Z M 1.740234 3.474609 C 0.77881 3.474609 0 2.696289 0 1.736328 C 0 0.776855 0.77881 0 1.740234 0 C 2.701781 0 3.482422 0.776855 3.482422 1.736328 C 3.482422 2.696289 2.701781 3.474609 1.740234 3.474609 Z M 15.451172 3.474609 C 14.489748 3.474609 13.708984 2.696289 13.708984 1.736328 C 13.708984 0.776855 14.489748 0 15.451172 0 C 16.412716 0 17.191406 0.776855 17.191406 1.736328 C 17.191406 2.696289 16.412716 3.474609 15.451172 3.474609 Z M 28.943359 3.474609 C 27.981939 3.474609 27.201172 2.696289 27.201172 1.736328 C 27.201172 0.776855 27.981939 0 28.943359 0 C 29.904779 0 30.683594 0.776855 30.683594 1.736328 C 30.683594 2.696289 29.904779 3.474609 28.943359 3.474609 Z M 42.652344 3.474609 C 41.690796 3.474609 40.912109 2.696289 40.912109 1.736328 C 40.912109 0.776855 41.690796 0 42.652344 0 C 43.61377 0 44.394531 0.776855 44.394531 1.736328 C 44.394531 2.696289 43.61377 3.474609 42.652344 3.474609 Z M 56.144531 3.474609 C 55.183105 3.474609 54.404297 2.696289 54.404297 1.736328 C 54.404297 0.776855 55.183105 0 56.144531 0 C 57.106079 0 57.886719 0.776855 57.886719 1.736328 C 57.886719 2.696289 57.106079 3.474609 56.144531 3.474609 Z M 69.855469 3.474609 C 68.894043 3.474609 68.113281 2.696289 68.113281 1.736328 C 68.113281 0.776855 68.894043 0 69.855469 0 C 70.817017 0 71.595703 0.776855 71.595703 1.736328 C 71.595703 2.696289 70.817017 3.474609 69.855469 3.474609 Z M 83.347656 3.474609 C 82.38623 3.474609 81.605469 2.696289 81.605469 1.736328 C 81.605469 0.776855 82.38623 0 83.347656 0 C 84.309204 0 85.087891 0.776855 85.087891 1.736328 C 85.087891 2.696289 84.309204 3.474609 83.347656 3.474609 Z M 97.056641 3.474609 C 96.095093 3.474609 95.316406 2.696289 95.316406 1.736328 C 95.316406 0.776855 96.095093 0 97.056641 0 C 98.018066 0 98.796875 0.776855 98.796875 1.736328 C 98.796875 2.696289 98.018066 3.474609 97.056641 3.474609 Z M 110.548828 3.474609 C 109.58728 3.474609 108.808594 2.696289 108.808594 1.736328 C 108.808594 0.776855 109.58728 0 110.548828 0 C 111.510254 0 112.289063 0.776855 112.289063 1.736328 C 112.289063 2.696289 111.510254 3.474609 110.548828 3.474609 Z M 124.259766 3.474609 C 123.29834 3.474609 122.517578 2.696289 122.517578 1.736328 C 122.517578 0.776855 123.29834 0 124.259766 0 C 125.221313 0 126 0.776855 126 1.736328 C 126 2.696289 125.221313 3.474609 124.259766 3.474609 Z"/>
</svg>
