<?xml version="1.0" encoding="UTF-8"?>
<!-- Generated by Pixelmator Pro 3.3.11 -->
<svg width="65" height="52" viewBox="0 0 65 52" xmlns="http://www.w3.org/2000/svg">
    <path id="Shape2" fill="#fe3e57" fill-rule="evenodd" stroke="none" d="M 1.75 52 C 0.783452 52 0 51.223141 0 50.265625 C 0 49.307621 0.783452 48.53125 1.75 48.53125 C 2.716426 48.53125 3.5 49.307621 3.5 50.265625 C 3.5 51.223141 2.716426 52 1.75 52 Z M 14.046875 52 C 13.071782 52 12.28125 51.223141 12.28125 50.265625 C 12.28125 49.307621 13.071782 48.53125 14.046875 48.53125 C 15.021968 48.53125 15.8125 49.307621 15.8125 50.265625 C 15.8125 51.223141 15.021968 52 14.046875 52 Z M 26.34375 52 C 25.377327 52 24.59375 51.223141 24.59375 50.265625 C 24.59375 49.307621 25.377327 48.53125 26.34375 48.53125 C 27.310295 48.53125 28.09375 49.307621 28.09375 50.265625 C 28.09375 51.223141 27.310295 52 26.34375 52 Z M 38.65625 52 C 37.689697 52 36.90625 51.223141 36.90625 50.265625 C 36.90625 49.307621 37.689697 48.53125 38.65625 48.53125 C 39.622681 48.53125 40.40625 49.307621 40.40625 50.265625 C 40.40625 51.223141 39.622681 52 38.65625 52 Z M 50.953125 52 C 49.978027 52 49.1875 51.223145 49.1875 50.265625 C 49.1875 49.307617 49.978027 48.53125 50.953125 48.53125 C 51.928345 48.53125 52.71875 49.307617 52.71875 50.265625 C 52.71875 51.223145 51.928345 52 50.953125 52 Z M 63.25 52 C 62.283447 52 61.5 51.223145 61.5 50.265625 C 61.5 49.307617 62.283447 48.53125 63.25 48.53125 C 64.216431 48.53125 65 49.307617 65 50.265625 C 65 51.223145 64.216431 52 63.25 52 Z M 1.75 39.875 C 0.783457 39.875 0 39.099113 0 38.140625 C 0 37.183113 0.783457 36.40625 1.75 36.40625 C 2.716421 36.40625 3.5 37.183113 3.5 38.140625 C 3.5 39.099113 2.716421 39.875 1.75 39.875 Z M 14.046875 39.875 C 13.071787 39.875 12.28125 39.099113 12.28125 38.140625 C 12.28125 37.183113 13.071787 36.40625 14.046875 36.40625 C 15.021963 36.40625 15.8125 37.183113 15.8125 38.140625 C 15.8125 39.099113 15.021963 39.875 14.046875 39.875 Z M 26.34375 39.875 C 25.377337 39.875 24.59375 39.099113 24.59375 38.140625 C 24.59375 37.183113 25.377337 36.40625 26.34375 36.40625 C 27.310286 36.40625 28.09375 37.183113 28.09375 38.140625 C 28.09375 39.099113 27.310286 39.875 26.34375 39.875 Z M 38.65625 39.875 C 37.689697 39.875 36.90625 39.099113 36.90625 38.140625 C 36.90625 37.183113 37.689697 36.40625 38.65625 36.40625 C 39.622681 36.40625 40.40625 37.183113 40.40625 38.140625 C 40.40625 39.099113 39.622681 39.875 38.65625 39.875 Z M 50.953125 39.875 C 49.978027 39.875 49.1875 39.099113 49.1875 38.140625 C 49.1875 37.183113 49.978027 36.40625 50.953125 36.40625 C 51.928345 36.40625 52.71875 37.183113 52.71875 38.140625 C 52.71875 39.099113 51.928345 39.875 50.953125 39.875 Z M 63.25 39.875 C 62.283447 39.875 61.5 39.099113 61.5 38.140625 C 61.5 37.183113 62.283447 36.40625 63.25 36.40625 C 64.216431 36.40625 65 37.183113 65 38.140625 C 65 39.099113 64.216431 39.875 63.25 39.875 Z M 1.75 27.71875 C 0.783462 27.71875 0 26.949219 0 26 C 0 25.050781 0.783462 24.28125 1.75 24.28125 C 2.716416 24.28125 3.5 25.050781 3.5 26 C 3.5 26.949219 2.716416 27.71875 1.75 27.71875 Z M 14.046875 27.71875 C 13.071792 27.71875 12.28125 26.949219 12.28125 26 C 12.28125 25.050781 13.071792 24.28125 14.046875 24.28125 C 15.021958 24.28125 15.8125 25.050781 15.8125 26 C 15.8125 26.949219 15.021958 27.71875 14.046875 27.71875 Z M 26.34375 27.71875 C 25.377346 27.71875 24.59375 26.949219 24.59375 26 C 24.59375 25.050781 25.377346 24.28125 26.34375 24.28125 C 27.310276 24.28125 28.09375 25.050781 28.09375 26 C 28.09375 26.949219 27.310276 27.71875 26.34375 27.71875 Z M 38.65625 27.71875 C 37.689697 27.71875 36.90625 26.949219 36.90625 26 C 36.90625 25.050781 37.689697 24.28125 38.65625 24.28125 C 39.622681 24.28125 40.40625 25.050781 40.40625 26 C 40.40625 26.949219 39.622681 27.71875 38.65625 27.71875 Z M 50.953125 27.71875 C 49.978027 27.71875 49.1875 26.949219 49.1875 26 C 49.1875 25.050781 49.978027 24.28125 50.953125 24.28125 C 51.928345 24.28125 52.71875 25.050781 52.71875 26 C 52.71875 26.949219 51.928345 27.71875 50.953125 27.71875 Z M 63.25 27.71875 C 62.283447 27.71875 61.5 26.949219 61.5 26 C 61.5 25.050781 62.283447 24.28125 63.25 24.28125 C 64.216431 24.28125 65 25.050781 65 26 C 65 26.949219 64.216431 27.71875 63.25 27.71875 Z M 1.75 15.59375 C 0.783466 15.59375 0 14.816895 0 13.859375 C 0 12.901367 0.783466 12.125 1.75 12.125 C 2.716412 12.125 3.5 12.901367 3.5 13.859375 C 3.5 14.816895 2.716412 15.59375 1.75 15.59375 Z M 14.046875 15.59375 C 13.071796 15.59375 12.28125 14.816895 12.28125 13.859375 C 12.28125 12.901367 13.071796 12.125 14.046875 12.125 C 15.021954 12.125 15.8125 12.901367 15.8125 13.859375 C 15.8125 14.816895 15.021954 15.59375 14.046875 15.59375 Z M 26.34375 15.59375 C 25.377356 15.59375 24.59375 14.816895 24.59375 13.859375 C 24.59375 12.901367 25.377356 12.125 26.34375 12.125 C 27.310266 12.125 28.09375 12.901367 28.09375 13.859375 C 28.09375 14.816895 27.310266 15.59375 26.34375 15.59375 Z M 38.65625 15.59375 C 37.689697 15.59375 36.90625 14.816895 36.90625 13.859375 C 36.90625 12.901367 37.689697 12.125 38.65625 12.125 C 39.622681 12.125 40.40625 12.901367 40.40625 13.859375 C 40.40625 14.816895 39.622681 15.59375 38.65625 15.59375 Z M 50.953125 15.59375 C 49.978027 15.59375 49.1875 14.816895 49.1875 13.859375 C 49.1875 12.901367 49.978027 12.125 50.953125 12.125 C 51.928345 12.125 52.71875 12.901367 52.71875 13.859375 C 52.71875 14.816895 51.928345 15.59375 50.953125 15.59375 Z M 63.25 15.59375 C 62.283447 15.59375 61.5 14.816895 61.5 13.859375 C 61.5 12.901367 62.283447 12.125 63.25 12.125 C 64.216431 12.125 65 12.901367 65 13.859375 C 65 14.816895 64.216431 15.59375 63.25 15.59375 Z M 1.75 3.46875 C 0.783466 3.46875 0 2.691895 0 1.734375 C 0 0.776367 0.783466 0 1.75 0 C 2.716412 0 3.5 0.776367 3.5 1.734375 C 3.5 2.691895 2.716412 3.46875 1.75 3.46875 Z M 14.046875 3.46875 C 13.071796 3.46875 12.28125 2.691895 12.28125 1.734375 C 12.28125 0.776367 13.071796 0 14.046875 0 C 15.021954 0 15.8125 0.776367 15.8125 1.734375 C 15.8125 2.691895 15.021954 3.46875 14.046875 3.46875 Z M 26.34375 3.46875 C 25.377357 3.46875 24.59375 2.691895 24.59375 1.734375 C 24.59375 0.776367 25.377357 0 26.34375 0 C 27.310265 0 28.09375 0.776367 28.09375 1.734375 C 28.09375 2.691895 27.310265 3.46875 26.34375 3.46875 Z M 38.65625 3.46875 C 37.689697 3.46875 36.90625 2.691895 36.90625 1.734375 C 36.90625 0.776367 37.689697 0 38.65625 0 C 39.622681 0 40.40625 0.776367 40.40625 1.734375 C 40.40625 2.691895 39.622681 3.46875 38.65625 3.46875 Z M 50.953125 3.46875 C 49.978027 3.46875 49.1875 2.691895 49.1875 1.734375 C 49.1875 0.776367 49.978027 0 50.953125 0 C 51.928345 0 52.71875 0.776367 52.71875 1.734375 C 52.71875 2.691895 51.928345 3.46875 50.953125 3.46875 Z M 63.25 3.46875 C 62.283447 3.46875 61.5 2.691895 61.5 1.734375 C 61.5 0.776367 62.283447 0 63.25 0 C 64.216431 0 65 0.776367 65 1.734375 C 65 2.691895 64.216431 3.46875 63.25 3.46875 Z"/>
</svg>
