<?xml version="1.0" encoding="UTF-8"?>
<!-- Generated by Pixelmator Pro 3.3.11 -->
<svg width="120" height="122" viewBox="0 0 120 122" xmlns="http://www.w3.org/2000/svg">
    <path id="Shape1" fill="#ffb534" fill-rule="evenodd" stroke="none" d="M 59.988281 121.994141 C 59.614044 121.994141 59.239685 121.990723 58.867188 121.984375 C 58.542725 121.977539 58.287231 121.707489 58.292969 121.380859 C 58.299255 121.054222 58.558167 120.804688 58.890625 120.798828 C 60.238739 120.824707 61.608917 120.803215 62.957031 120.736328 C 63.279755 120.710938 63.555664 120.970734 63.572266 121.296875 C 63.588379 121.623016 63.339508 121.900879 63.015625 121.917969 C 62.013702 121.967278 60.994781 121.994141 59.988281 121.994141 Z M 54.728516 121.765625 C 53.357391 121.646004 51.971466 121.474098 50.611328 121.259766 C 50.291473 121.208504 50.073151 120.906708 50.123047 120.583984 C 50.173401 120.261749 50.470245 120.037598 50.792969 120.089844 C 52.126221 120.30027 53.485413 120.468269 54.830078 120.585938 C 55.152802 120.614258 55.391327 120.900909 55.363281 121.226563 C 55.336975 121.534645 55.08075 121.765625 54.779297 121.765625 C 54.762146 121.765625 54.746246 121.76709 54.728516 121.765625 Z M 67.076172 121.572266 C 66.782745 121.572266 66.529724 121.35154 66.494141 121.050781 C 66.455811 120.725616 66.686249 120.430664 67.007813 120.392578 C 68.350769 120.231941 69.701996 120.022438 71.025391 119.769531 C 71.346954 119.707031 71.650635 119.919456 71.710938 120.240234 C 71.771606 120.561005 71.562866 120.870613 71.244141 120.931641 C 69.894318 121.189919 68.515778 121.403336 67.146484 121.568359 C 67.123016 121.570801 67.09906 121.572266 67.076172 121.572266 Z M 46.671875 120.484375 C 46.628357 120.484375 46.58313 120.479004 46.539063 120.46875 C 45.195404 120.158722 43.847229 119.797325 42.53125 119.394531 C 42.220673 119.299805 42.04657 118.968727 42.140625 118.65625 C 42.234589 118.343285 42.563049 118.166504 42.873047 118.261719 C 44.163269 118.656212 45.485504 119.011742 46.802734 119.316406 C 47.118469 119.388672 47.314392 119.704613 47.242188 120.023438 C 47.180267 120.29734 46.939545 120.484375 46.671875 120.484375 Z M 75.138672 120.029297 C 74.878571 120.029297 74.641602 119.854469 74.572266 119.587891 C 74.489746 119.271996 74.676666 118.948242 74.990234 118.865234 C 76.294159 118.519554 77.605438 118.12252 78.884766 117.685547 C 79.193665 117.582031 79.525085 117.74662 79.628906 118.056641 C 79.732574 118.3657 79.568329 118.702148 79.261719 118.806641 C 77.956665 119.252403 76.619995 119.656761 75.289063 120.009766 C 75.239166 120.022949 75.188599 120.029297 75.138672 120.029297 Z M 38.810547 118.078125 C 38.740631 118.078125 38.670349 118.065918 38.601563 118.039063 C 37.314209 117.544472 36.026672 116.996544 34.775391 116.412109 C 34.481384 116.274902 34.353821 115.921349 34.490234 115.625 C 34.626068 115.328163 34.973145 115.200195 35.269531 115.337891 C 36.496124 115.911095 37.757477 116.447792 39.019531 116.933594 C 39.322235 117.049805 39.474609 117.39164 39.359375 117.697266 C 39.269989 117.933594 39.046753 118.078125 38.810547 118.078125 Z M 82.908203 117.375 C 82.678986 117.375 82.459869 117.23877 82.365234 117.011719 C 82.240265 116.710487 82.382385 116.364746 82.681641 116.238281 C 83.924225 115.714394 85.165222 115.138145 86.371094 114.527344 C 86.663483 114.381348 87.014587 114.499062 87.160156 114.791016 C 87.305725 115.082481 87.187866 115.4375 86.898438 115.583984 C 85.667847 116.206993 84.402649 116.795448 83.134766 117.330078 C 83.060852 117.361816 82.983856 117.375 82.908203 117.375 Z M 31.355469 114.59375 C 31.259796 114.59375 31.164185 114.568848 31.074219 114.519531 C 29.868414 113.849686 28.667963 113.127853 27.509766 112.375 C 27.237488 112.197754 27.160492 111.833008 27.335938 111.558594 C 27.51181 111.283203 27.873657 111.203613 28.146484 111.380859 C 29.282251 112.119064 30.45838 112.82869 31.640625 113.484375 C 31.924316 113.64209 32.027527 114.00248 31.871094 114.289063 C 31.763855 114.484375 31.562378 114.59375 31.355469 114.59375 Z M 90.236328 113.664063 C 90.035706 113.664063 89.839996 113.55957 89.730469 113.373047 C 89.565338 113.092285 89.656982 112.729004 89.935547 112.5625 C 91.095062 111.870682 92.248016 111.127365 93.359375 110.353516 C 93.626465 110.166992 93.991882 110.235352 94.175781 110.503906 C 94.359802 110.773438 94.291931 111.143066 94.025391 111.328125 C 92.891174 112.117111 91.71759 112.875565 90.535156 113.582031 C 90.441101 113.637695 90.33783 113.664063 90.236328 113.664063 Z M 24.453125 110.105469 C 24.331024 110.105469 24.208893 110.068359 24.103516 109.988281 C 22.99851 109.155838 21.909113 108.275314 20.867188 107.371094 C 20.621246 107.157715 20.593201 106.785156 20.804688 106.537109 C 21.015625 106.288574 21.388153 106.261719 21.632813 106.474609 C 22.654047 107.361252 23.720984 108.224686 24.804688 109.041016 C 25.064362 109.236328 25.118164 109.60791 24.923828 109.869141 C 24.808594 110.024902 24.631989 110.105469 24.453125 110.105469 Z M 59.990234 109.773438 C 58.733337 109.773438 57.464905 109.722656 56.21875 109.625 C 55.896149 109.599609 55.654419 109.315918 55.679688 108.990234 C 55.704865 108.663574 55.971222 108.420898 56.310547 108.445313 C 57.525665 108.541016 58.762268 108.589844 59.988281 108.589844 L 60.363281 108.587891 C 60.364441 108.587891 60.366058 108.587891 60.367188 108.587891 C 60.689362 108.587891 60.950836 108.851074 60.953125 109.175781 C 60.955414 109.502441 60.695435 109.769043 60.371094 109.771484 L 59.990234 109.773438 Z M 64.466797 109.5625 C 64.167084 109.5625 63.911407 109.331543 63.882813 109.025391 C 63.852936 108.700195 64.089386 108.411621 64.412109 108.380859 C 65.756226 108.253418 67.108459 108.065918 68.429688 107.822266 C 68.750122 107.766113 69.053406 107.977539 69.111328 108.298828 C 69.1698 108.620605 68.959351 108.929199 68.640625 108.988281 C 67.285645 109.237305 65.900726 109.428223 64.523438 109.558594 C 64.504547 109.560059 64.485229 109.5625 64.466797 109.5625 Z M 52.189453 109.126953 C 52.15799 109.126953 52.124542 109.125 52.091797 109.119141 C 50.727081 108.891602 49.359192 108.599609 48.025391 108.253906 C 47.711365 108.171387 47.522705 107.850098 47.603516 107.533203 C 47.684998 107.216797 48.010498 107.027344 48.318359 107.107422 C 49.619446 107.444824 50.953766 107.730469 52.285156 107.953125 C 52.604462 108.006348 52.820923 108.310059 52.767578 108.632813 C 52.720093 108.921875 52.471436 109.126953 52.189453 109.126953 Z M 96.990234 108.966797 C 96.817108 108.966797 96.64502 108.891113 96.529297 108.744141 C 96.327454 108.488281 96.36969 108.115723 96.623047 107.912109 C 97.675354 107.067459 98.715881 106.172287 99.714844 105.25 C 99.953918 105.029297 100.324036 105.043945 100.542969 105.285156 C 100.761902 105.526367 100.746887 105.900391 100.507813 106.121094 C 99.488708 107.061935 98.426636 107.975662 97.353516 108.837891 C 97.24527 108.923828 97.118073 108.966797 96.990234 108.966797 Z M 72.537109 108.078125 C 72.279724 108.078125 72.043732 107.902832 71.972656 107.640625 C 71.886719 107.325195 72.070496 107.000488 72.382813 106.914063 C 73.682281 106.554688 74.980682 106.132324 76.242188 105.660156 C 76.544861 105.547363 76.883698 105.703613 76.996094 106.009766 C 77.108917 106.316406 76.954803 106.655762 76.650391 106.769531 C 75.35733 107.253845 74.025452 107.685547 72.693359 108.054688 C 72.641174 108.069336 72.588715 108.078125 72.537109 108.078125 Z M 44.244141 107.066406 C 44.17926 107.066406 44.113495 107.056152 44.048828 107.033203 C 42.74707 106.569824 41.447632 106.041939 40.189453 105.464844 C 39.894318 105.32959 39.764343 104.980957 39.898438 104.683594 C 40.032013 104.386719 40.378235 104.252441 40.675781 104.388672 C 41.902954 104.950684 43.169403 105.466309 44.439453 105.917969 C 44.745026 106.027344 44.904541 106.36377 44.796875 106.671875 C 44.711365 106.915527 44.485962 107.066406 44.244141 107.066406 Z M 80.228516 105.199219 C 80.008453 105.199219 79.797607 105.075195 79.697266 104.861328 C 79.557983 104.565918 79.683594 104.214355 79.976563 104.074219 C 81.190552 103.493652 82.395782 102.850586 83.560547 102.164063 C 83.839111 101.998535 84.198853 102.092773 84.363281 102.375 C 84.526703 102.657227 84.432129 103.018066 84.152344 103.183594 C 82.959045 103.888184 81.722931 104.547852 80.478516 105.142578 C 80.397156 105.181152 80.312866 105.199219 80.228516 105.199219 Z M 18.230469 104.707031 C 18.081482 104.707031 17.931061 104.650879 17.816406 104.537109 C 16.836462 103.560707 15.878827 102.537926 14.96875 101.498047 C 14.754303 101.253418 14.776001 100.880371 15.019531 100.664063 C 15.261444 100.44873 15.632751 100.46875 15.847656 100.714844 C 16.740082 101.734215 17.681555 102.737465 18.642578 103.695313 C 18.872955 103.925293 18.874573 104.299316 18.646484 104.53125 C 18.53183 104.648926 18.381775 104.707031 18.230469 104.707031 Z M 36.771484 103.642578 C 36.674103 103.642578 36.57547 103.618164 36.484375 103.566406 C 35.28241 102.881836 34.093201 102.137207 32.953125 101.349609 C 32.686035 101.164551 32.617798 100.796875 32.800781 100.527344 C 32.984131 100.257813 33.348938 100.188477 33.617188 100.373047 C 34.729095 101.141113 35.888458 101.867676 37.060547 102.535156 C 37.343231 102.695313 37.442505 103.057129 37.283203 103.341797 C 37.175385 103.534668 36.976105 103.642578 36.771484 103.642578 Z M 103.042969 103.378906 C 102.897522 103.378906 102.752075 103.32373 102.638672 103.214844 C 102.403595 102.98877 102.393677 102.616699 102.617188 102.378906 C 103.547485 101.394203 104.456268 100.361168 105.318359 99.3125 C 105.524689 99.061523 105.895172 99.025879 106.144531 99.234375 C 106.394348 99.443359 106.429657 99.814941 106.222656 100.066406 C 105.344086 101.135582 104.417358 102.19059 103.46875 103.195313 C 103.353516 103.317383 103.197815 103.378906 103.042969 103.378906 Z M 87.306641 101.021484 C 87.12262 101.021484 86.94223 100.935059 86.828125 100.771484 C 86.640686 100.505371 86.701996 100.133789 86.966797 99.945313 C 88.066132 99.160156 89.145203 98.317871 90.171875 97.441406 C 90.419403 97.229492 90.789398 97.260254 90.998047 97.509766 C 91.207794 97.759277 91.176758 98.132813 90.929688 98.34375 C 89.877411 99.243164 88.771454 100.106934 87.644531 100.912109 C 87.541443 100.98584 87.424194 101.021484 87.306641 101.021484 Z M 30 98.966797 C 29.869324 98.966797 29.738312 98.921875 29.628906 98.832031 C 28.560011 97.947266 27.517504 97.005753 26.53125 96.035156 C 26.299622 95.806641 26.296387 95.432617 26.523438 95.199219 C 26.749786 94.96582 27.12085 94.961426 27.353516 95.189453 C 28.315172 96.137695 29.33003 97.055664 30.373047 97.917969 C 30.623566 98.125 30.660278 98.497559 30.455078 98.75 C 30.338684 98.893066 30.169617 98.966797 30 98.966797 Z M 12.800781 98.501953 C 12.624176 98.501953 12.449677 98.42334 12.333984 98.271484 C 11.49956 97.1735 10.690503 96.02816 9.927734 94.869141 C 9.748291 94.597168 9.821808 94.228027 10.091797 94.046875 C 10.361633 93.865723 10.724854 93.942871 10.904297 94.214844 C 11.652783 95.352379 12.447101 96.474281 13.265625 97.550781 C 13.462799 97.810547 13.415588 98.181641 13.158203 98.380859 C 13.051666 98.463379 12.925171 98.501953 12.800781 98.501953 Z M 58.222656 97.810547 C 58.212921 97.810547 58.203094 97.808594 58.193359 97.808594 C 56.804504 97.739258 55.409058 97.589844 54.044922 97.361328 C 53.725189 97.308594 53.509186 97.00293 53.5625 96.679688 C 53.615265 96.357422 53.913269 96.13916 54.238281 96.195313 C 55.55777 96.416504 56.906342 96.561035 58.25 96.626953 C 58.573853 96.643066 58.824615 96.919922 58.808594 97.246094 C 58.79303 97.5625 58.533356 97.810547 58.222656 97.810547 Z M 62.326172 97.777344 C 62.01947 97.777344 61.762329 97.537109 61.742188 97.224609 C 61.721008 96.898438 61.965759 96.616699 62.289063 96.595703 C 63.631439 96.506836 64.978882 96.339844 66.294922 96.097656 C 66.614685 96.040527 66.920624 96.25293 66.978516 96.574219 C 67.037018 96.895508 66.824585 97.203125 66.505859 97.261719 C 65.145844 97.512207 63.752258 97.686035 62.365234 97.777344 C 62.351959 97.77832 62.338776 97.777344 62.326172 97.777344 Z M 108.28125 97.003906 C 108.162567 97.003906 108.043243 96.967285 107.939453 96.892578 C 107.675781 96.702148 107.615509 96.332031 107.804688 96.066406 C 108.595703 94.956215 109.355255 93.807457 110.0625 92.654297 C 110.233368 92.375977 110.595306 92.291504 110.871094 92.462891 C 111.14679 92.634766 111.230835 92.999023 111.060547 93.277344 C 110.338989 94.452965 109.56427 95.62516 108.757813 96.757813 C 108.643127 96.918945 108.464142 97.003906 108.28125 97.003906 Z M 50.136719 96.457031 C 50.083405 96.457031 50.029083 96.449219 49.974609 96.433594 C 48.641479 96.045898 47.316437 95.575195 46.037109 95.033203 C 45.738525 94.90625 45.597107 94.559082 45.722656 94.257813 C 45.848083 93.956055 46.193512 93.814941 46.492188 93.941406 C 47.729065 94.465332 49.009186 94.922363 50.298828 95.296875 C 50.610107 95.388184 50.791107 95.715332 50.701172 96.029297 C 50.627228 96.288574 50.391815 96.457031 50.136719 96.457031 Z M 70.388672 96.292969 C 70.136993 96.292969 69.905518 96.129883 69.828125 95.875 C 69.73291 95.5625 69.906677 95.230469 70.216797 95.134766 C 71.499451 94.738281 72.774231 94.261719 74.001953 93.71875 C 74.301208 93.586914 74.644684 93.724609 74.775391 94.023438 C 74.905487 94.322754 74.771027 94.671387 74.474609 94.802734 C 73.204559 95.364258 71.886932 95.855469 70.560547 96.265625 C 70.503326 96.282715 70.445435 96.292969 70.388672 96.292969 Z M 93.566406 95.673828 C 93.41684 95.673828 93.266327 95.614746 93.152344 95.5 C 92.921875 95.270508 92.920349 94.896484 93.148438 94.664063 C 94.096466 93.701767 95.015137 92.683975 95.878906 91.640625 C 96.085815 91.389648 96.457214 91.355957 96.707031 91.566406 C 96.955841 91.775391 96.989319 92.147461 96.78125 92.398438 C 95.896301 93.468643 94.953918 94.510849 93.982422 95.498047 C 93.867767 95.61377 93.717133 95.673828 93.566406 95.673828 Z M 42.574219 93.257813 C 42.476715 93.257813 42.378204 93.231445 42.287109 93.179688 C 41.081116 92.493652 39.900696 91.727051 38.777344 90.902344 C 38.515381 90.710449 38.45755 90.342285 38.648438 90.078125 C 38.839905 89.813477 39.206238 89.753418 39.46875 89.945313 C 40.555481 90.743652 41.696899 91.484375 42.863281 92.148438 C 43.145844 92.310059 43.247192 92.672363 43.087891 92.957031 C 42.980103 93.149902 42.778839 93.257813 42.574219 93.257813 Z M 24.130859 93.1875 C 23.9664 93.1875 23.801941 93.116699 23.685547 92.980469 C 22.786163 91.927834 21.920105 90.822166 21.111328 89.691406 C 20.92218 89.426758 20.98114 89.054199 21.244141 88.863281 C 21.507813 88.672363 21.874725 88.73291 22.064453 88.998047 C 22.85318 90.100975 23.696686 91.181252 24.574219 92.208984 C 24.785706 92.457031 24.759491 92.82959 24.513672 93.042969 C 24.403015 93.13916 24.266693 93.1875 24.130859 93.1875 Z M 77.892578 92.972656 C 77.690826 92.972656 77.496246 92.867676 77.386719 92.679688 C 77.223419 92.397461 77.315887 92.03418 77.595703 91.869141 C 78.75235 91.186523 79.882782 90.427246 80.955078 89.613281 C 81.215332 89.416016 81.583008 89.470215 81.777344 89.730469 C 81.972229 89.991211 81.921204 90.361816 81.662109 90.558594 C 80.553619 91.399902 79.385132 92.186035 78.189453 92.890625 C 78.096649 92.946289 77.993408 92.972656 77.892578 92.972656 Z M 8.269531 91.607422 C 8.064911 91.607422 7.86618 91.499023 7.757813 91.306641 C 7.079202 90.101234 6.434226 88.856445 5.839844 87.605469 C 5.699432 87.310059 5.822977 86.956543 6.115234 86.814453 C 6.408591 86.672363 6.758698 86.799316 6.898438 87.09375 C 7.481925 88.320313 8.11391 89.540527 8.779297 90.722656 C 8.939301 91.006836 8.840576 91.369629 8.558594 91.53125 C 8.467499 91.583496 8.367493 91.607422 8.269531 91.607422 Z M 112.601563 89.960938 C 112.509216 89.960938 112.415222 89.938965 112.328125 89.892578 C 112.041473 89.740723 111.930756 89.382813 112.082031 89.09375 C 112.713196 87.884277 113.31015 86.641113 113.853516 85.398438 C 113.984314 85.099609 114.331238 84.965332 114.626953 85.095703 C 114.923798 85.228027 115.058411 85.575684 114.927734 85.875 C 114.373474 87.142578 113.764709 88.411133 113.121094 89.644531 C 113.016144 89.844727 112.812469 89.960938 112.601563 89.960938 Z M 98.820313 89.320313 C 98.70462 89.320313 98.588989 89.285156 98.486328 89.212891 C 98.220947 89.025879 98.154694 88.658691 98.339844 88.390625 C 99.109589 87.276367 99.841919 86.115234 100.513672 84.9375 C 100.675842 84.653809 101.033051 84.556641 101.314453 84.71875 C 101.595276 84.882324 101.692963 85.244141 101.53125 85.527344 C 100.842316 86.734863 100.092041 87.924805 99.302734 89.066406 C 99.188751 89.231445 99.006042 89.320313 98.820313 89.320313 Z M 35.949219 88.390625 C 35.807068 88.390625 35.663727 88.338867 35.550781 88.234375 C 34.529968 87.285156 33.553772 86.269043 32.650391 85.210938 C 32.438904 84.963379 32.466949 84.588379 32.712891 84.375 C 32.957092 84.162109 33.328369 84.188477 33.541016 84.4375 C 34.4151 85.459961 35.358063 86.444824 36.345703 87.363281 C 36.584076 87.584961 36.600372 87.958984 36.380859 88.199219 C 36.265045 88.326172 36.107361 88.390625 35.949219 88.390625 Z M 84.439453 88.001953 C 84.28418 88.001953 84.130859 87.941406 84.015625 87.818359 C 83.792114 87.581543 83.80011 87.208008 84.035156 86.982422 C 85.007233 86.050781 85.936493 85.05127 86.796875 84.011719 C 87.003082 83.76123 87.373108 83.726074 87.623047 83.935547 C 87.871735 84.14502 87.905334 84.518555 87.697266 84.769531 C 86.808868 85.84375 85.849915 86.876465 84.845703 87.839844 C 84.732178 87.948242 84.585022 88.001953 84.439453 88.001953 Z M 19.335938 86.476563 C 19.135895 86.476563 18.940063 86.373535 18.830078 86.1875 C 18.12384 84.993164 17.461212 83.753418 16.859375 82.5 C 16.718262 82.206055 16.83902 81.851074 17.130859 81.708984 C 17.423126 81.566406 17.775482 81.690918 17.916016 81.984375 C 18.502869 83.205566 19.15033 84.416504 19.839844 85.582031 C 20.005432 85.862793 19.9133 86.225586 19.634766 86.392578 C 19.54068 86.449219 19.438019 86.476563 19.335938 86.476563 Z M 4.726563 84.152344 C 4.493225 84.152344 4.270905 84.011719 4.179688 83.779297 C 3.673654 82.491211 3.205466 81.165039 2.787109 79.839844 C 2.689056 79.527832 2.8597 79.196289 3.167969 79.097656 C 3.478648 78.999512 3.807739 79.169922 3.90625 79.480469 C 4.316153 80.780273 4.775095 82.079102 5.271484 83.341797 C 5.390625 83.645508 5.242911 83.989258 4.941406 84.109375 C 4.870331 84.137695 4.798676 84.152344 4.726563 84.152344 Z M 115.916016 82.380859 C 115.850098 82.380859 115.782135 82.369141 115.716797 82.345703 C 115.411926 82.234863 115.253204 81.89502 115.363281 81.587891 C 115.81955 80.310059 116.238892 78.998535 116.607422 77.685547 C 116.695068 77.370605 117.020752 77.189453 117.332031 77.277344 C 117.643768 77.365723 117.824554 77.693359 117.736328 78.007813 C 117.36084 79.347168 116.9328 80.68457 116.466797 81.988281 C 116.380859 82.229492 116.156097 82.380859 115.916016 82.380859 Z M 102.912109 82.146484 C 102.82959 82.146484 102.745667 82.128906 102.666016 82.091797 C 102.372009 81.954102 102.244446 81.603027 102.380859 81.306641 C 102.947693 80.075684 103.466644 78.803711 103.925781 77.525391 C 104.036316 77.217773 104.373901 77.058594 104.677734 77.169922 C 104.982025 77.28125 105.141357 77.620117 105.03125 77.927734 C 104.56012 79.23877 104.026428 80.542969 103.445313 81.804688 C 103.34552 82.02002 103.133911 82.146484 102.912109 82.146484 Z M 30.601563 82.130859 C 30.413544 82.130859 30.226807 82.040039 30.113281 81.871094 C 29.334381 80.711914 28.615143 79.495605 27.976563 78.257813 C 27.826996 77.967773 27.939453 77.612305 28.226563 77.460938 C 28.514862 77.311035 28.868561 77.42334 29.017578 77.712891 C 29.636108 78.90918 30.331665 80.084961 31.085938 81.207031 C 31.26767 81.476563 31.198517 81.844727 30.929688 82.027344 C 30.828735 82.096191 30.715088 82.130859 30.601563 82.130859 Z M 89.691406 81.65625 C 89.581421 81.65625 89.468384 81.624023 89.369141 81.558594 C 89.098022 81.379395 89.022064 81.013672 89.199219 80.740234 C 89.934601 79.608398 90.612762 78.421387 91.212891 77.210938 C 91.35788 76.918945 91.709869 76.798828 92 76.945313 C 92.289978 77.091797 92.408661 77.447266 92.263672 77.740234 C 91.642944 78.990723 90.941101 80.216797 90.181641 81.386719 C 90.068695 81.560547 89.882874 81.65625 89.691406 81.65625 Z M 15.761719 79.035156 C 15.525055 79.035156 15.301697 78.888672 15.212891 78.652344 C 14.722215 77.351563 14.282288 76.010742 13.90625 74.671875 C 13.817993 74.35791 13.998779 74.030273 14.310547 73.941406 C 14.617798 73.855469 14.946808 74.036621 15.035156 74.351563 C 15.401947 75.657227 15.832017 76.961426 16.310547 78.230469 C 16.42569 78.536133 16.273865 78.879395 15.970703 78.996094 C 15.901794 79.022461 15.831177 79.035156 15.761719 79.035156 Z M 2.238281 76.265625 C 1.974049 76.265625 1.733297 76.085449 1.667969 75.814453 C 1.343658 74.46875 1.063518 73.091797 0.832031 71.720703 C 0.777562 71.398438 0.991266 71.092773 1.310547 71.037109 C 1.630952 70.98291 1.933807 71.198242 1.988281 71.519531 C 2.21577 72.864746 2.491048 74.21582 2.808594 75.535156 C 2.885376 75.853027 2.691539 76.172363 2.376953 76.25 C 2.330505 76.261719 2.284058 76.265625 2.238281 76.265625 Z M 26.816406 74.800781 C 26.57962 74.800781 26.356384 74.65625 26.267578 74.419922 C 25.775146 73.115234 25.354126 71.764648 25.013672 70.40625 C 24.934601 70.089844 25.125427 69.76709 25.439453 69.6875 C 25.75531 69.60791 26.073273 69.800293 26.152344 70.117188 C 26.481354 71.431152 26.888947 72.738281 27.365234 74 C 27.480499 74.305176 27.328552 74.645508 27.025391 74.761719 C 26.956604 74.787598 26.885742 74.800781 26.816406 74.800781 Z M 118.152344 74.417969 C 118.112762 74.417969 118.071991 74.414063 118.03125 74.40625 C 117.714355 74.338867 117.511536 74.024902 117.578125 73.705078 C 117.854401 72.371582 118.086884 71.014648 118.271484 69.667969 C 118.314972 69.344727 118.602295 69.117188 118.933594 69.162109 C 119.254486 69.206543 119.47821 69.503906 119.433594 69.828125 C 119.246124 71.201172 119.008667 72.588379 118.726563 73.947266 C 118.668793 74.227051 118.424622 74.417969 118.152344 74.417969 Z M 105.707031 74.367188 C 105.657135 74.367188 105.605133 74.361328 105.554688 74.347656 C 105.241119 74.263672 105.055573 73.94043 105.138672 73.625 C 105.483704 72.317383 105.775726 70.973145 106.007813 69.630859 C 106.063995 69.30957 106.36261 69.097168 106.6875 69.150391 C 107.006775 69.206543 107.219574 69.512695 107.164063 69.833984 C 106.926117 71.208984 106.627167 72.586914 106.273438 73.927734 C 106.203522 74.192871 105.966705 74.367188 105.707031 74.367188 Z M 93.357422 74.261719 C 93.290924 74.261719 93.224121 74.250488 93.158203 74.226563 C 92.853333 74.115723 92.696655 73.776367 92.806641 73.46875 C 93.264038 72.196289 93.650452 70.882813 93.957031 69.566406 C 94.031555 69.24707 94.346252 69.05127 94.662109 69.125 C 94.977966 69.199707 95.173523 69.517578 95.099609 69.835938 C 94.782715 71.197266 94.383026 72.555176 93.910156 73.871094 C 93.823517 74.111328 93.597504 74.261719 93.357422 74.261719 Z M 13.525391 71.074219 C 13.249115 71.074219 13.003143 70.877441 12.949219 70.59375 C 12.691864 69.231445 12.490601 67.837891 12.349609 66.449219 C 12.316986 66.123535 12.550323 65.832031 12.873047 65.798828 C 13.187622 65.761719 13.484375 66.003418 13.517578 66.328125 C 13.655243 67.684082 13.852417 69.043457 14.103516 70.373047 C 14.164276 70.693359 13.954865 71.003418 13.636719 71.064453 C 13.599426 71.070801 13.561554 71.074219 13.525391 71.074219 Z M 0.861328 68.109375 C 0.563348 68.109375 0.307645 67.881348 0.277344 67.576172 C 0.140361 66.193848 0.048214 64.79248 0.005859 63.40625 C -0.003844 63.07959 0.250393 62.806641 0.574219 62.796875 C 0.900366 62.783203 1.168823 63.041504 1.179688 63.369141 C 1.221008 64.728027 1.310618 66.104004 1.445313 67.458984 C 1.477356 67.784668 1.242616 68.074707 0.919922 68.107422 C 0.899902 68.109375 0.880768 68.109375 0.861328 68.109375 Z M 24.8125 66.789063 C 24.522491 66.789063 24.269379 66.571289 24.230469 66.273438 C 24.049896 64.88916 23.949036 63.479004 23.927734 62.080078 C 23.922577 61.75293 24.180023 61.483887 24.503906 61.478516 C 24.507324 61.478516 24.510803 61.478516 24.513672 61.478516 C 24.833984 61.478516 25.096527 61.738281 25.101563 62.0625 C 25.122253 63.416504 25.219666 64.782227 25.394531 66.121094 C 25.436981 66.444824 25.211517 66.742188 24.890625 66.785156 C 24.864197 66.788086 24.837769 66.789063 24.8125 66.789063 Z M 119.273438 66.220703 C 119.260376 66.220703 119.246155 66.219727 119.232422 66.21875 C 118.909119 66.197266 118.665771 65.915527 118.6875 65.589844 C 118.779175 64.234375 118.826172 62.854492 118.826172 61.492188 C 118.826172 60.24707 118.785889 58.98584 118.708984 57.742188 C 118.688934 57.415527 118.936584 57.135254 119.259766 57.115234 C 119.591644 57.091797 119.860718 57.342285 119.880859 57.667969 C 119.959351 58.936035 120 60.222656 120 61.492188 C 120 62.881348 119.952301 64.287109 119.859375 65.669922 C 119.838196 65.981934 119.579559 66.220703 119.273438 66.220703 Z M 107.115234 66.21875 C 107.098663 66.21875 107.081604 66.218262 107.064453 66.216797 C 106.74173 66.188477 106.501251 65.903809 106.529297 65.578125 C 106.643951 64.231445 106.703125 62.855957 106.703125 61.492188 C 106.703125 60.987793 106.695251 60.487793 106.679688 59.986328 C 106.668823 59.660156 106.922241 59.384766 107.246094 59.375 C 107.581421 59.356445 107.841858 59.622559 107.851563 59.949219 C 107.868164 60.461426 107.876953 60.975586 107.876953 61.492188 C 107.876953 62.889648 107.817322 64.299805 107.699219 65.679688 C 107.672882 65.988281 107.416687 66.21875 107.115234 66.21875 Z M 95.234375 66.216797 C 95.212067 66.216797 95.189026 66.215332 95.166016 66.212891 C 94.844452 66.175781 94.613068 65.882813 94.650391 65.558594 C 94.802826 64.21582 94.880859 62.84668 94.880859 61.492188 C 94.881439 61.111328 94.874756 60.731934 94.863281 60.355469 C 94.852997 60.027832 95.107178 59.756836 95.431641 59.746094 C 95.743469 59.727051 96.027374 59.991211 96.037109 60.318359 C 96.049683 60.708496 96.055359 61.100098 96.054688 61.494141 C 96.054688 62.891602 95.973999 64.304688 95.816406 65.691406 C 95.781982 65.993164 95.529083 66.216797 95.234375 66.216797 Z M 12.693359 62.847656 C 12.373627 62.847656 12.110748 62.588867 12.105469 62.265625 C 12.101593 62.008789 12.100067 61.751465 12.099609 61.494141 C 12.099609 60.35791 12.139679 59.209473 12.21875 58.078125 C 12.24118 57.751465 12.518158 57.506348 12.84375 57.527344 C 13.167603 57.549805 13.411682 57.833984 13.388672 58.160156 C 13.312561 59.26416 13.273438 60.384277 13.273438 61.492188 C 13.273987 61.743164 13.275299 61.995605 13.279297 62.246094 C 13.284454 62.572754 13.027588 62.841309 12.703125 62.847656 C 12.700256 62.847656 12.696228 62.847656 12.693359 62.847656 Z M 0.607422 59.839844 C 0.599976 59.839844 0.591431 59.838379 0.583984 59.837891 C 0.260158 59.826172 0.007508 59.55127 0.019531 59.224609 C 0.07043 57.833984 0.170025 56.432129 0.314453 55.056641 C 0.348325 54.731445 0.640283 54.496094 0.958984 54.529297 C 1.281557 54.563965 1.514801 54.854004 1.480469 55.179688 C 1.339365 56.528809 1.243835 57.905762 1.193359 59.269531 C 1.181915 59.588379 0.921546 59.839844 0.607422 59.839844 Z M 24.683594 58.527344 C 24.664734 58.527344 24.645142 58.526855 24.625 58.525391 C 24.302979 58.493164 24.065491 58.202637 24.097656 57.876953 C 24.23407 56.481934 24.454041 55.084961 24.748047 53.722656 C 24.817413 53.403809 25.130859 53.199707 25.447266 53.269531 C 25.76416 53.339355 25.963196 53.653809 25.894531 53.972656 C 25.609009 55.290527 25.39801 56.644531 25.265625 57.994141 C 25.23587 58.299805 24.98172 58.527344 24.683594 58.527344 Z M 95.083984 56.806641 C 94.797424 56.806641 94.546936 56.594238 94.503906 56.300781 C 94.307404 54.962891 94.030701 53.622559 93.681641 52.316406 C 93.597412 52 93.782715 51.676758 94.095703 51.591797 C 94.40802 51.505371 94.730225 51.692871 94.814453 52.007813 C 95.174927 53.358398 95.461182 54.746094 95.664063 56.128906 C 95.71167 56.452148 95.490265 56.752441 95.169922 56.800781 C 95.140625 56.804688 95.112579 56.806641 95.083984 56.806641 Z M 106.960938 56.431641 C 106.667389 56.431641 106.41449 56.210938 106.378906 55.910156 C 106.220184 54.557617 106.001434 53.199707 105.728516 51.875 C 105.662598 51.555176 105.86615 51.242188 106.183594 51.175781 C 106.499451 51.108398 106.812408 51.314941 106.878906 51.634766 C 107.158142 52.992676 107.382172 54.383301 107.544922 55.769531 C 107.582794 56.094727 107.353302 56.390137 107.03125 56.427734 C 107.00827 56.430664 106.983826 56.431641 106.960938 56.431641 Z M 13.267578 54.597656 C 13.237244 54.597656 13.204865 54.594727 13.173828 54.589844 C 12.854095 54.538574 12.636475 54.236328 12.6875 53.914063 C 12.902405 52.539063 13.17926 51.157715 13.511719 49.806641 C 13.589661 49.489258 13.906219 49.296387 14.222656 49.375 C 14.537262 49.454102 14.730286 49.774902 14.652344 50.091797 C 14.327881 51.40918 14.056061 52.756836 13.845703 54.097656 C 13.800385 54.389648 13.551392 54.597656 13.267578 54.597656 Z M 118.898438 54.175781 C 118.608459 54.175781 118.357391 53.960938 118.318359 53.664063 C 118.141907 52.314453 117.914734 50.954102 117.646484 49.621094 C 117.581696 49.300293 117.788025 48.987305 118.105469 48.921875 C 118.427063 48.857422 118.732788 49.064453 118.796875 49.384766 C 119.071533 50.744141 119.300446 52.131348 119.480469 53.507813 C 119.522827 53.832031 119.298157 54.129883 118.976563 54.171875 C 118.950256 54.175781 118.923615 54.175781 118.898438 54.175781 Z M 1.470703 51.609375 C 1.43692 51.609375 1.40152 51.60791 1.367188 51.601563 C 1.047911 51.544922 0.835942 51.238281 0.892578 50.916016 C 1.131634 49.547852 1.422026 48.172852 1.753906 46.826172 C 1.83193 46.508789 2.150715 46.313477 2.464844 46.394531 C 2.779522 46.473633 2.97052 46.795898 2.892578 47.113281 C 2.566425 48.432617 2.28178 49.780762 2.046875 51.121094 C 1.996979 51.408203 1.7505 51.609375 1.470703 51.609375 Z M 26.427734 50.453125 C 26.364685 50.453125 26.299377 50.441895 26.236328 50.419922 C 25.929749 50.313477 25.767548 49.977051 25.873047 49.667969 C 26.323029 48.348145 26.855194 47.037109 27.457031 45.773438 C 27.596771 45.479492 27.946838 45.352539 28.240234 45.496094 C 28.532532 45.637207 28.656036 45.990234 28.515625 46.285156 C 27.933777 47.507324 27.418091 48.775391 26.982422 50.052734 C 26.898773 50.296875 26.671387 50.453125 26.427734 50.453125 Z M 92.951172 48.828125 C 92.718384 48.828125 92.497925 48.687012 92.40625 48.455078 C 91.909821 47.201172 91.334351 45.963867 90.695313 44.773438 C 90.541168 44.48584 90.646088 44.125977 90.931641 43.970703 C 91.214752 43.814453 91.573792 43.921875 91.728516 44.208984 C 92.388824 45.438965 92.983063 46.721191 93.496094 48.017578 C 93.616364 48.321289 93.470764 48.664063 93.169922 48.785156 C 93.098267 48.813965 93.023926 48.828125 92.951172 48.828125 Z M 105.292969 48.333984 C 105.040161 48.333984 104.807281 48.168945 104.730469 47.914063 C 104.342407 46.612305 103.892578 45.3125 103.394531 44.052734 C 103.274139 43.749023 103.421112 43.40625 103.722656 43.285156 C 104.02124 43.163574 104.363983 43.309082 104.484375 43.613281 C 104.995575 44.905273 105.457672 46.238281 105.855469 47.572266 C 105.948273 47.885254 105.77301 48.215332 105.462891 48.308594 C 105.406799 48.325684 105.348602 48.333984 105.292969 48.333984 Z M 15.246094 46.572266 C 15.183044 46.572266 15.117737 46.560547 15.054688 46.539063 C 14.747986 46.432617 14.585907 46.097656 14.691406 45.789063 C 15.139557 44.473633 15.652658 43.15918 16.214844 41.884766 C 16.34668 41.587402 16.693115 41.452637 16.988281 41.585938 C 17.284668 41.71875 17.418396 42.067871 17.287109 42.367188 C 16.738037 43.610352 16.238068 44.88916 15.800781 46.171875 C 15.717133 46.416992 15.489624 46.572266 15.246094 46.572266 Z M 117.263672 46.070313 C 117.006317 46.070313 116.770966 45.896484 116.699219 45.634766 C 116.340454 44.325684 115.928955 43.009766 115.478516 41.724609 C 115.370148 41.416016 115.532318 41.077637 115.837891 40.96875 C 116.14447 40.860352 116.478119 41.022461 116.585938 41.330078 C 117.046082 42.641602 117.463867 43.984375 117.830078 45.320313 C 117.916595 45.635254 117.734314 45.959961 117.421875 46.046875 C 117.36969 46.061035 117.315857 46.070313 117.263672 46.070313 Z M 3.453125 43.582031 C 3.392944 43.582031 3.333618 43.572266 3.273438 43.552734 C 2.965046 43.452148 2.794281 43.117676 2.894531 42.806641 C 3.319298 41.488281 3.79618 40.163574 4.3125 38.871094 C 4.434052 38.567383 4.777748 38.422363 5.078125 38.542969 C 5.37838 38.665527 5.523315 39.01123 5.402344 39.314453 C 4.895759 40.581543 4.427788 41.879395 4.011719 43.171875 C 3.931488 43.422363 3.700665 43.582031 3.453125 43.582031 Z M 29.976563 43 C 29.869324 43 29.759491 42.970215 29.662109 42.908203 C 29.388123 42.733887 29.307434 42.368164 29.480469 42.091797 C 30.222137 40.90918 31.03949 39.757813 31.910156 38.669922 C 32.114807 38.416016 32.484558 38.376465 32.736328 38.582031 C 32.988434 38.786621 33.027802 39.159668 32.824219 39.414063 C 31.98111 40.46582 31.189728 41.579102 30.472656 42.722656 C 30.360962 42.901855 30.171356 43 29.976563 43 Z M 89.052734 41.564453 C 88.867584 41.564453 88.686249 41.476563 88.572266 41.3125 C 87.80069 40.20459 86.957672 39.130859 86.066406 38.121094 C 85.8508 37.876953 85.873413 37.501465 86.115234 37.285156 C 86.356598 37.067383 86.727875 37.088867 86.943359 37.333984 C 87.86438 38.37793 88.736481 39.486816 89.533203 40.632813 C 89.719543 40.899414 89.654053 41.269531 89.388672 41.457031 C 89.286011 41.530273 89.169006 41.564453 89.052734 41.564453 Z M 102.255859 40.652344 C 102.040955 40.652344 101.83371 40.534668 101.730469 40.328125 C 101.126343 39.118652 100.459534 37.91748 99.75 36.759766 C 99.579712 36.481934 99.66571 36.117676 99.941406 35.945313 C 100.217102 35.774902 100.579163 35.860352 100.75 36.138672 C 101.477417 37.324707 102.159119 38.555176 102.779297 39.794922 C 102.924866 40.086914 102.80896 40.442871 102.519531 40.589844 C 102.434723 40.633301 102.344666 40.652344 102.255859 40.652344 Z M 18.582031 39.011719 C 18.485779 39.011719 18.388763 38.988281 18.298828 38.9375 C 18.015137 38.779297 17.911255 38.418945 18.068359 38.132813 C 18.736603 36.916992 19.467529 35.713867 20.240234 34.556641 C 20.420685 34.286133 20.785309 34.214844 21.054688 34.396484 C 21.323517 34.57959 21.394043 34.947754 21.212891 35.21875 C 20.459747 36.347168 19.747314 37.519531 19.095703 38.705078 C 18.988464 38.899902 18.788361 39.011719 18.582031 39.011719 Z M 114.533203 38.271484 C 114.306152 38.271484 114.090485 38.137207 113.994141 37.914063 C 113.46048 36.671875 112.872986 35.428711 112.25 34.216797 C 112.100983 33.926758 112.213562 33.568848 112.501953 33.417969 C 112.788513 33.268555 113.143982 33.380859 113.292969 33.671875 C 113.928589 34.907715 114.5271 36.178223 115.072266 37.445313 C 115.200562 37.745117 115.063049 38.092773 114.765625 38.222656 C 114.689972 38.255859 114.610565 38.271484 114.533203 38.271484 Z M 35.125 36.568359 C 34.973236 36.568359 34.821594 36.508301 34.707031 36.390625 C 34.479401 36.157227 34.481842 35.78418 34.712891 35.554688 C 35.703278 34.574219 36.760498 33.641113 37.853516 32.783203 C 38.109192 32.582031 38.478271 32.628418 38.677734 32.886719 C 38.876648 33.14502 38.829773 33.516113 38.574219 33.716797 C 37.516663 34.546875 36.494873 35.449219 35.537109 36.398438 C 35.422455 36.51123 35.273529 36.568359 35.125 36.568359 Z M 6.527344 35.898438 C 6.441284 35.898438 6.354004 35.87793 6.271484 35.837891 C 5.979835 35.694824 5.858459 35.340332 6 35.046875 C 6.60296 33.797852 7.258124 32.554199 7.945313 31.349609 C 8.107483 31.067383 8.464691 30.970215 8.746094 31.132813 C 9.026947 31.295898 9.123077 31.657715 8.960938 31.941406 C 8.28694 33.12207 7.645623 34.34082 7.054688 35.564453 C 6.952606 35.775391 6.745148 35.898438 6.527344 35.898438 Z M 83.605469 35.390625 C 83.466187 35.390625 83.325134 35.34082 83.212891 35.240234 C 82.210388 34.337891 81.147247 33.485352 80.050781 32.707031 C 79.78598 32.519043 79.723267 32.149902 79.910156 31.882813 C 80.096466 31.615234 80.460571 31.551758 80.726563 31.740234 C 81.85907 32.544922 82.959839 33.425781 83.996094 34.357422 C 84.238037 34.575195 84.259033 34.947266 84.042969 35.191406 C 83.927155 35.322754 83.766602 35.390625 83.605469 35.390625 Z M 97.941406 33.617188 C 97.761963 33.617188 97.585938 33.535156 97.470703 33.378906 C 96.667664 32.292969 95.80658 31.228027 94.910156 30.210938 C 94.694672 29.966797 94.716461 29.591797 94.958984 29.375 C 95.200897 29.157715 95.571594 29.178711 95.787109 29.423828 C 96.706512 30.466797 97.58963 31.560059 98.412109 32.673828 C 98.605865 32.936523 98.552643 33.305664 98.292969 33.501953 C 98.187592 33.580078 98.062927 33.617188 97.941406 33.617188 Z M 23.166016 32.148438 C 23.036469 32.148438 22.905243 32.104004 22.796875 32.015625 C 22.544769 31.810547 22.505493 31.438477 22.708984 31.183594 C 23.575623 30.102051 24.499887 29.044434 25.457031 28.039063 C 25.682251 27.803711 26.053772 27.797363 26.287109 28.023438 C 26.520935 28.25 26.528778 28.623535 26.304688 28.859375 C 25.369812 29.839844 24.467834 30.872559 23.623047 31.927734 C 23.506653 32.072754 23.337433 32.148438 23.166016 32.148438 Z M 41.59375 31.492188 C 41.395416 31.492188 41.202454 31.391602 41.091797 31.207031 C 40.92334 30.928711 41.010284 30.563965 41.287109 30.394531 C 42.473541 29.667969 43.71405 29.006836 44.972656 28.423828 C 45.267914 28.288086 45.614716 28.418945 45.75 28.714844 C 45.885254 29.011719 45.755524 29.36377 45.460938 29.5 C 44.24353 30.062988 43.04538 30.703125 41.898438 31.40625 C 41.803223 31.464355 41.697418 31.492188 41.59375 31.492188 Z M 110.757813 30.933594 C 110.560059 30.933594 110.366516 30.831543 110.255859 30.648438 C 109.554352 29.489258 108.802765 28.337891 108.021484 27.226563 C 107.834015 26.959473 107.895325 26.591309 108.160156 26.402344 C 108.424957 26.213379 108.791748 26.276367 108.978516 26.542969 C 109.775818 27.67627 110.542572 28.848633 111.257813 30.03125 C 111.426971 30.310547 111.339325 30.675781 111.0625 30.845703 C 110.967407 30.904297 110.862091 30.933594 110.757813 30.933594 Z M 76.900391 30.632813 C 76.805878 30.632813 76.708527 30.609375 76.619141 30.560547 C 75.438477 29.914063 74.209167 29.330566 72.964844 28.828125 C 72.663849 28.706055 72.5177 28.361328 72.638672 28.058594 C 72.758484 27.754395 73.100769 27.608887 73.402344 27.730469 C 74.688995 28.250488 75.95871 28.851563 77.179688 29.519531 C 77.464508 29.675293 77.57074 30.036621 77.416016 30.324219 C 77.309357 30.521484 77.108459 30.632813 76.900391 30.632813 Z M 10.625 28.720703 C 10.512604 28.720703 10.399048 28.687012 10.298828 28.619141 C 10.029999 28.437012 9.958069 28.069824 10.138672 27.798828 C 10.906482 26.645508 11.725476 25.504395 12.570313 24.408203 C 12.769104 24.150391 13.136353 24.103027 13.392578 24.304688 C 13.648712 24.504883 13.694977 24.876953 13.496094 25.134766 C 12.667371 26.208984 11.866351 27.327148 11.113281 28.457031 C 10.999756 28.626953 10.814056 28.720703 10.625 28.720703 Z M 49.041016 28.050781 C 48.793365 28.050781 48.562622 27.891113 48.482422 27.640625 C 48.382721 27.330566 48.552887 26.996582 48.861328 26.896484 C 50.180115 26.465332 51.53775 26.107422 52.898438 25.833984 C 53.214874 25.770996 53.526184 25.980469 53.589844 26.300781 C 53.653351 26.621094 53.447052 26.932129 53.128906 26.996094 C 51.812836 27.260742 50.497986 27.604492 49.222656 28.021484 C 49.162476 28.041016 49.100525 28.050781 49.041016 28.050781 Z M 69.289063 27.556641 C 69.238007 27.556641 69.186401 27.549805 69.134766 27.535156 C 67.842285 27.182617 66.512268 26.90332 65.183594 26.703125 C 64.862579 26.654785 64.643799 26.353027 64.691406 26.029297 C 64.739502 25.706543 65.036987 25.484375 65.357422 25.53125 C 66.731293 25.738281 68.106689 26.029297 69.443359 26.394531 C 69.756378 26.47998 69.940247 26.805176 69.855469 27.121094 C 69.784973 27.384277 69.547577 27.556641 69.289063 27.556641 Z M 92.490234 27.4375 C 92.345337 27.4375 92.199463 27.382813 92.085938 27.275391 C 91.108154 26.341797 90.076752 25.438477 89.021484 24.59375 C 88.76767 24.391113 88.725952 24.018555 88.927734 23.761719 C 89.128906 23.506836 89.498108 23.464355 89.751953 23.667969 C 90.833527 24.53418 91.889618 25.458008 92.892578 26.414063 C 93.128235 26.638184 93.138947 27.013184 92.916016 27.25 C 92.800201 27.373047 92.64563 27.4375 92.490234 27.4375 Z M 57.078125 26.433594 C 56.775543 26.433594 56.519318 26.199707 56.494141 25.890625 C 56.468292 25.564941 56.707977 25.27832 57.03125 25.251953 C 58.006775 25.171875 58.998352 25.132813 59.978516 25.132813 C 60.402649 25.124023 60.796753 25.137695 61.203125 25.152344 C 61.526978 25.163574 61.780518 25.436523 61.769531 25.763672 C 61.759216 26.090332 61.490204 26.349609 61.164063 26.335938 C 60.770264 26.322754 60.393494 26.32666 59.978516 26.314453 C 59.029907 26.314453 58.070953 26.354492 57.126953 26.431641 C 57.110931 26.433105 57.094147 26.433594 57.078125 26.433594 Z M 28.853516 26.183594 C 28.690216 26.183594 28.526428 26.115234 28.410156 25.982422 C 28.196838 25.73584 28.222687 25.361816 28.466797 25.146484 C 29.504847 24.230469 30.596807 23.348633 31.710938 22.525391 C 31.971161 22.33252 32.337372 22.38916 32.529297 22.652344 C 32.720764 22.916504 32.66571 23.287598 32.404297 23.480469 C 31.317755 24.28418 30.251612 25.143066 29.238281 26.037109 C 29.127045 26.135254 28.991089 26.183594 28.853516 26.183594 Z M 106.013672 24.183594 C 105.843384 24.183594 105.674866 24.109863 105.558594 23.966797 C 104.70166 22.911133 103.798645 21.874023 102.876953 20.884766 C 102.654572 20.646973 102.66626 20.271973 102.902344 20.048828 C 103.13855 19.825195 103.5112 19.835938 103.732422 20.074219 C 104.673004 21.083496 105.592682 22.14209 106.466797 23.21875 C 106.671967 23.47168 106.635834 23.844727 106.384766 24.050781 C 106.27594 24.141113 106.144257 24.183594 106.013672 24.183594 Z M 86.064453 22.291016 C 85.953217 22.291016 85.840027 22.257813 85.740234 22.191406 C 84.617371 21.441406 83.447235 20.732422 82.263672 20.083984 C 81.978729 19.928223 81.874573 19.568848 82.029297 19.28125 C 82.184601 18.994629 82.539246 18.888672 82.824219 19.044922 C 84.037628 19.710449 85.23761 20.436523 86.388672 21.205078 C 86.659088 21.385742 86.731598 21.75293 86.552734 22.025391 C 86.439758 22.197266 86.254669 22.291016 86.064453 22.291016 Z M 15.662109 22.181641 C 15.522827 22.181641 15.383301 22.132324 15.271484 22.03125 C 15.029572 21.813965 15.008972 21.439453 15.224609 21.195313 C 16.140472 20.161621 17.106833 19.146484 18.09375 18.175781 C 18.325836 17.948242 18.697479 17.951172 18.923828 18.185547 C 19.150299 18.418945 19.144287 18.79541 18.912109 19.023438 C 17.944174 19.975098 16.999695 20.971191 16.101563 21.984375 C 15.985168 22.114746 15.823242 22.181641 15.662109 22.181641 Z M 35.470703 21.294922 C 35.2724 21.294922 35.078857 21.192871 34.96875 21.009766 C 34.800293 20.72998 34.887207 20.366699 35.164063 20.197266 C 36.344849 19.474609 37.571716 18.795898 38.808594 18.179688 C 39.098022 18.035156 39.450928 18.155762 39.59375 18.449219 C 39.73761 18.742188 39.618683 19.095215 39.328125 19.240234 C 38.121552 19.840332 36.926208 20.504395 35.775391 21.208984 C 35.679596 21.26709 35.574524 21.294922 35.470703 21.294922 Z M 78.851563 18.339844 C 78.773651 18.339844 78.69342 18.323242 78.617188 18.289063 C 77.383057 17.747559 76.110687 17.254883 74.832031 16.824219 C 74.52475 16.720215 74.357819 16.383789 74.460938 16.074219 C 74.564148 15.76416 74.899078 15.598633 75.205078 15.701172 C 76.516571 16.143555 77.821014 16.649414 79.085938 17.205078 C 79.382904 17.335938 79.520142 17.68457 79.390625 17.984375 C 79.29425 18.207031 79.078522 18.339844 78.851563 18.339844 Z M 100.392578 18.152344 C 100.249878 18.152344 100.105042 18.099609 99.992188 17.994141 C 99 17.066895 97.966827 16.163574 96.917969 15.310547 C 96.665741 15.10498 96.624664 14.73291 96.828125 14.478516 C 97.032166 14.224609 97.402069 14.185547 97.654297 14.390625 C 98.723877 15.26123 99.78006 16.181641 100.791016 17.126953 C 101.028961 17.349121 101.042328 17.723633 100.822266 17.962891 C 100.706421 18.088379 100.550293 18.152344 100.392578 18.152344 Z M 42.824219 17.632813 C 42.589264 17.632813 42.367859 17.490234 42.277344 17.255859 C 42.159821 16.95166 42.309296 16.608887 42.611328 16.490234 C 43.899811 15.984863 45.223938 15.529785 46.546875 15.140625 C 46.860901 15.047363 47.184875 15.229492 47.275391 15.542969 C 47.366028 15.855957 47.188232 16.185547 46.876953 16.277344 C 45.586182 16.65625 44.293427 17.099609 43.037109 17.59375 C 42.967072 17.621094 42.895386 17.632813 42.824219 17.632813 Z M 21.541016 16.404297 C 21.374176 16.404297 21.209595 16.333008 21.09375 16.195313 C 20.883423 15.946289 20.913208 15.572754 21.160156 15.361328 C 22.210127 14.461914 23.303423 13.587891 24.410156 12.765625 C 24.670868 12.571289 25.037994 12.627441 25.230469 12.890625 C 25.423096 13.15332 25.368256 13.525391 25.107422 13.71875 C 24.02199 14.525879 22.949171 15.381836 21.919922 16.263672 C 21.809235 16.358887 21.675171 16.404297 21.541016 16.404297 Z M 71.072266 15.710938 C 71.026947 15.710938 70.979492 15.706543 70.933594 15.695313 C 69.625641 15.378906 68.28775 15.117188 66.955078 14.916016 C 66.634064 14.868164 66.41333 14.567383 66.460938 14.244141 C 66.509003 13.92041 66.805389 13.700195 67.126953 13.746094 C 68.493958 13.952637 69.866364 14.22168 71.207031 14.546875 C 71.522308 14.622559 71.718231 14.939941 71.642578 15.257813 C 71.577911 15.528809 71.337067 15.710938 71.072266 15.710938 Z M 50.699219 15.316406 C 50.424683 15.316406 50.17865 15.121582 50.123047 14.839844 C 50.059418 14.519043 50.265961 14.206543 50.583984 14.142578 C 51.937836 13.871094 53.320648 13.656738 54.693359 13.503906 C 55.013794 13.468262 55.306213 13.703125 55.341797 14.027344 C 55.377289 14.352539 55.144409 14.644043 54.822266 14.679688 C 53.483276 14.828613 52.13443 15.040039 50.814453 15.304688 C 50.775452 15.3125 50.737091 15.316406 50.699219 15.316406 Z M 62.921875 14.488281 C 61.57663 14.405273 60.211304 14.378906 58.867188 14.410156 C 58.551331 14.412598 58.273071 14.158691 58.265625 13.832031 C 58.258179 13.505371 58.516113 13.234375 58.839844 13.226563 C 60.216125 13.193848 61.61615 13.221191 62.994141 13.306641 C 63.317902 13.327148 63.562988 13.606934 63.542969 13.933594 C 63.523499 14.24707 63.266846 14.488281 62.958984 14.488281 C 62.946991 14.488281 62.933899 14.489258 62.921875 14.488281 Z M 94 12.953125 C 93.883606 12.953125 93.766693 12.918945 93.664063 12.845703 C 92.559601 12.067383 91.411591 11.315918 90.251953 10.613281 C 89.974091 10.445313 89.883911 10.081055 90.050781 9.800781 C 90.217529 9.520996 90.579437 9.429688 90.857422 9.599609 C 92.041077 10.315918 93.211548 11.082031 94.337891 11.876953 C 94.603271 12.063965 94.668182 12.433594 94.482422 12.701172 C 94.368317 12.865234 94.18515 12.953125 94 12.953125 Z M 28.144531 11.494141 C 27.950195 11.494141 27.760223 11.397461 27.648438 11.220703 C 27.474243 10.945313 27.554718 10.578125 27.828125 10.402344 C 28.989794 9.657715 30.192274 8.947266 31.400391 8.285156 C 31.687531 8.129883 32.042419 8.236328 32.197266 8.523438 C 32.35199 8.810547 32.245789 9.168457 31.960938 9.324219 C 30.775801 9.972168 29.597216 10.672363 28.458984 11.402344 C 28.361023 11.464844 28.252197 11.494141 28.144531 11.494141 Z M 86.960938 8.6875 C 86.87088 8.6875 86.778717 8.667969 86.693359 8.623047 C 85.491974 8.004883 84.252716 7.421387 83.007813 6.886719 C 82.709717 6.758301 82.570007 6.410156 82.697266 6.109375 C 82.824524 5.808594 83.168823 5.66748 83.466797 5.796875 C 84.737 6.341309 86.002502 6.938965 87.228516 7.570313 C 87.516785 7.719238 87.631653 8.074707 87.484375 8.365234 C 87.380554 8.570313 87.174713 8.6875 86.960938 8.6875 Z M 35.353516 7.550781 C 35.130585 7.550781 34.917023 7.420898 34.818359 7.203125 C 34.684235 6.905762 34.81424 6.555176 35.109375 6.419922 C 36.360687 5.844238 37.648224 5.307129 38.935547 4.820313 C 39.238251 4.70459 39.57605 4.861816 39.689453 5.167969 C 39.802979 5.473633 39.649536 5.814453 39.345703 5.929688 C 38.083527 6.405762 36.822266 6.931641 35.595703 7.496094 C 35.51651 7.532227 35.434875 7.550781 35.353516 7.550781 Z M 79.400391 5.445313 C 79.336731 5.445313 79.272034 5.433594 79.208984 5.412109 C 77.934326 4.967773 76.62677 4.562988 75.322266 4.208984 C 75.009277 4.124023 74.823975 3.800293 74.908203 3.484375 C 74.992432 3.167969 75.317505 2.981445 75.626953 3.066406 C 76.957916 3.427734 78.29187 3.840332 79.591797 4.292969 C 79.898407 4.400391 80.061157 4.737793 79.955078 5.046875 C 79.87085 5.291504 79.644012 5.445313 79.400391 5.445313 Z M 43.033203 4.648438 C 42.779846 4.648438 42.547058 4.483398 42.470703 4.226563 C 42.378479 3.913086 42.55661 3.583008 42.867188 3.490234 C 44.187836 3.094727 45.537872 2.741211 46.880859 2.439453 C 47.198303 2.371094 47.511536 2.569824 47.582031 2.888672 C 47.651978 3.208008 47.453156 3.522949 47.136719 3.59375 C 45.819611 3.889648 44.495392 4.237793 43.201172 4.625 C 43.144989 4.641602 43.088135 4.648438 43.033203 4.648438 Z M 71.474609 3.292969 C 71.437408 3.292969 71.39978 3.289063 71.361328 3.28125 C 70.036804 3.02002 68.686615 2.803223 67.347656 2.634766 C 67.026093 2.594238 66.797729 2.298828 66.837891 1.974609 C 66.87793 1.649902 67.170135 1.419434 67.492188 1.460938 C 68.857452 1.632813 70.236328 1.85498 71.587891 2.121094 C 71.906036 2.184082 72.113403 2.494141 72.050781 2.814453 C 71.99585 3.097168 71.749725 3.292969 71.474609 3.292969 Z M 51.042969 2.849609 C 50.757568 2.849609 50.50705 2.63916 50.462891 2.345703 C 50.414795 2.022949 50.636597 1.721191 50.957031 1.671875 C 52.31546 1.464844 53.699677 1.303711 55.074219 1.191406 C 55.397522 1.166016 55.680695 1.407715 55.707031 1.734375 C 55.732788 2.05957 55.492645 2.345215 55.169922 2.371094 C 53.821808 2.481445 52.464325 2.640625 51.132813 2.84375 C 51.103027 2.847656 51.072144 2.849609 51.042969 2.849609 Z M 63.296875 2.267578 C 61.952789 2.191895 60.577667 2.161621 59.232422 2.179688 C 59.229584 2.179688 59.226868 2.179688 59.224609 2.179688 C 58.903595 2.179688 58.64267 1.919922 58.638672 1.595703 C 58.634644 1.269531 58.894867 1.000488 59.21875 0.996094 C 60.596039 0.978027 61.99231 1.008789 63.363281 1.085938 C 63.686584 1.103516 63.934326 1.382813 63.916016 1.708984 C 63.898743 2.024414 63.638977 2.267578 63.330078 2.267578 C 63.319092 2.267578 63.308319 2.267578 63.296875 2.267578 Z"/>
</svg>
