<?xml version="1.0" encoding="UTF-8"?>
<!-- Generated by Pixelmator Pro 3.3.11 -->
<svg width="1923" height="745" viewBox="0 0 1923 745" xmlns="http://www.w3.org/2000/svg">
    <path id="Pattern" fill="#ededed" fill-rule="evenodd" stroke="none" d="M 6.248047 744.984375 L 0 739.074219 L 0 736.984375 L 8.455078 744.984375 L 6.248047 744.984375 Z M 41.804688 744.984375 L 0 705.431641 L 0 703.34375 L 44.013672 744.984375 L 41.804688 744.984375 Z M 77.363281 744.984375 L 0 671.791016 L 0 669.703125 L 79.570313 744.984375 L 77.363281 744.984375 Z M 110.167969 744.984375 L 191.105469 668.408203 L 272.044922 744.984375 L 269.837891 744.984375 L 191.105469 670.498047 L 112.375 744.984375 L 110.167969 744.984375 Z M 145.724609 744.984375 L 191.105469 702.050781 L 236.484375 744.984375 L 234.279297 744.984375 L 191.105469 704.138672 L 147.933594 744.984375 L 145.724609 744.984375 Z M 181.283203 744.984375 L 191.105469 735.691406 L 200.927734 744.984375 L 198.720703 744.984375 L 191.105469 737.78125 L 183.490234 744.984375 L 181.283203 744.984375 Z M 302.640625 744.984375 L 383.580078 668.408203 L 464.517578 744.984375 L 462.310547 744.984375 L 383.580078 670.498047 L 304.847656 744.984375 L 302.640625 744.984375 Z M 338.199219 744.984375 L 383.578125 702.050781 L 428.957031 744.984375 L 426.751953 744.984375 L 383.580078 704.138672 L 340.40625 744.984375 L 338.199219 744.984375 Z M 373.757813 744.984375 L 383.580078 735.691406 L 393.402344 744.984375 L 391.195313 744.984375 L 383.580078 737.78125 L 375.964844 744.984375 L 373.757813 744.984375 Z M 495.113281 744.984375 L 576.054688 668.408203 L 656.992188 744.984375 L 654.783203 744.984375 L 576.054688 670.498047 L 497.320313 744.984375 L 495.113281 744.984375 Z M 530.673828 744.984375 L 576.054688 702.050781 L 621.431641 744.984375 L 619.226563 744.984375 L 576.054688 704.138672 L 532.878906 744.984375 L 530.673828 744.984375 Z M 566.230469 744.984375 L 576.054688 735.691406 L 585.875 744.984375 L 583.667969 744.984375 L 576.054688 737.78125 L 568.439453 744.984375 L 566.230469 744.984375 Z M 687.585938 744.984375 L 768.525391 668.408203 L 849.464844 744.984375 L 847.257813 744.984375 L 768.527344 670.498047 L 689.794922 744.984375 L 687.585938 744.984375 Z M 723.146484 744.984375 L 768.525391 702.050781 L 813.90625 744.984375 L 811.699219 744.984375 L 768.527344 704.138672 L 725.351563 744.984375 L 723.146484 744.984375 Z M 758.705078 744.984375 L 768.525391 735.691406 L 778.347656 744.984375 L 776.140625 744.984375 L 768.527344 737.78125 L 760.912109 744.984375 L 758.705078 744.984375 Z M 880.060547 744.984375 L 960.998047 668.408203 L 1041.9375 744.984375 L 1039.730469 744.984375 L 960.998047 670.498047 L 882.269531 744.984375 L 880.060547 744.984375 Z M 915.617188 744.984375 L 960.998047 702.050781 L 1006.378906 744.984375 L 1004.171875 744.984375 L 960.998047 704.138672 L 917.826172 744.984375 L 915.617188 744.984375 Z M 951.177734 744.984375 L 961.001953 735.691406 L 970.822266 744.984375 L 968.613281 744.984375 L 961.001953 737.78125 L 953.386719 744.984375 L 951.177734 744.984375 Z M 1072.535156 744.984375 L 1153.472656 668.408203 L 1234.410156 744.984375 L 1232.205078 744.984375 L 1153.472656 670.498047 L 1074.742188 744.984375 L 1072.535156 744.984375 Z M 1108.091797 744.984375 L 1153.472656 702.050781 L 1198.853516 744.984375 L 1196.644531 744.984375 L 1153.472656 704.138672 L 1110.300781 744.984375 L 1108.091797 744.984375 Z M 1143.652344 744.984375 L 1153.472656 735.691406 L 1163.294922 744.984375 L 1161.087891 744.984375 L 1153.472656 737.78125 L 1145.857422 744.984375 L 1143.652344 744.984375 Z M 1265.007813 744.984375 L 1345.921875 668.433594 L 1345.935547 668.447266 L 1345.958984 668.423828 L 1426.884766 744.984375 L 1424.679688 744.984375 L 1345.945313 670.498047 L 1267.216797 744.984375 L 1265.007813 744.984375 Z M 1300.566406 744.984375 L 1345.921875 702.074219 L 1345.935547 702.089844 L 1345.958984 702.064453 L 1391.328125 744.984375 L 1389.119141 744.984375 L 1345.945313 704.138672 L 1302.773438 744.984375 L 1300.566406 744.984375 Z M 1336.125 744.984375 L 1345.921875 735.716797 L 1345.935547 735.730469 L 1345.958984 735.705078 L 1355.769531 744.984375 L 1353.5625 744.984375 L 1345.945313 737.78125 L 1338.332031 744.984375 L 1336.125 744.984375 Z M 1457.482422 744.984375 L 1538.396484 668.433594 L 1538.410156 668.447266 L 1538.433594 668.423828 L 1619.359375 744.984375 L 1617.150391 744.984375 L 1538.419922 670.498047 L 1459.6875 744.984375 L 1457.482422 744.984375 Z M 1493.039063 744.984375 L 1538.396484 702.074219 L 1538.410156 702.089844 L 1538.433594 702.064453 L 1583.800781 744.984375 L 1581.59375 744.984375 L 1538.419922 704.138672 L 1495.248047 744.984375 L 1493.039063 744.984375 Z M 1528.597656 744.984375 L 1538.396484 735.716797 L 1538.410156 735.728516 L 1538.433594 735.705078 L 1548.244141 744.984375 L 1546.035156 744.984375 L 1538.419922 737.78125 L 1530.804688 744.984375 L 1528.597656 744.984375 Z M 1649.957031 744.984375 L 1730.869141 668.433594 L 1730.882813 668.447266 L 1730.908203 668.423828 L 1811.832031 744.984375 L 1809.625 744.984375 L 1730.894531 670.498047 L 1652.162109 744.984375 L 1649.957031 744.984375 Z M 1685.513672 744.984375 L 1730.869141 702.074219 L 1730.882813 702.089844 L 1730.910156 702.066406 L 1776.271484 744.984375 L 1774.066406 744.984375 L 1730.894531 704.138672 L 1687.720703 744.984375 L 1685.513672 744.984375 Z M 1721.070313 744.984375 L 1730.869141 735.716797 L 1730.882813 735.730469 L 1730.908203 735.707031 L 1740.714844 744.984375 L 1738.509766 744.984375 L 1730.894531 737.78125 L 1723.279297 744.984375 L 1721.070313 744.984375 Z M 1842.427734 744.984375 L 1922 669.703125 L 1922 671.791016 L 1844.634766 744.984375 L 1842.427734 744.984375 Z M 1877.988281 744.984375 L 1922 703.34375 L 1922 705.431641 L 1880.193359 744.984375 L 1877.988281 744.984375 Z M 1913.544922 744.984375 L 1922 736.984375 L 1922 739.074219 L 1915.753906 744.984375 L 1913.544922 744.984375 Z M 81.525391 726.857422 L 80.59375 725.652344 L 94.869141 712.146484 L 109.142578 725.652344 L 108.210938 726.855469 L 94.869141 714.234375 L 81.525391 726.857422 Z M 274 726.857422 L 273.068359 725.652344 L 287.34375 712.146484 L 301.615234 725.652344 L 300.683594 726.857422 L 287.34375 714.234375 L 274 726.857422 Z M 466.472656 726.857422 L 465.541016 725.652344 L 479.814453 712.146484 L 494.089844 725.652344 L 493.158203 726.857422 L 479.814453 714.234375 L 466.472656 726.857422 Z M 658.947266 726.857422 L 658.015625 725.652344 L 672.289063 712.146484 L 686.5625 725.652344 L 685.630859 726.857422 L 672.289063 714.234375 L 658.947266 726.857422 Z M 851.419922 726.857422 L 850.488281 725.652344 L 864.763672 712.146484 L 879.037109 725.652344 L 878.105469 726.857422 L 864.763672 714.234375 L 851.419922 726.857422 Z M 1043.894531 726.857422 L 1042.962891 725.652344 L 1057.236328 712.146484 L 1071.511719 725.652344 L 1070.580078 726.857422 L 1057.236328 714.234375 L 1043.894531 726.857422 Z M 1236.369141 726.857422 L 1235.4375 725.652344 L 1249.710938 712.146484 L 1263.982422 725.652344 L 1263.052734 726.855469 L 1249.710938 714.234375 L 1236.369141 726.857422 Z M 1455.525391 726.857422 L 1442.181641 714.234375 L 1428.839844 726.855469 L 1427.910156 725.652344 L 1442.181641 712.146484 L 1456.457031 725.652344 L 1455.525391 726.857422 Z M 1621.314453 726.857422 L 1620.382813 725.652344 L 1634.65625 712.146484 L 1648.929688 725.652344 L 1647.998047 726.857422 L 1634.65625 714.234375 L 1621.314453 726.857422 Z M 1813.787109 726.857422 L 1812.855469 725.652344 L 1827.128906 712.146484 L 1841.404297 725.652344 L 1840.472656 726.857422 L 1827.128906 714.234375 L 1813.787109 726.857422 Z M 66.501953 707.429688 L 65.570313 706.222656 L 94.869141 678.503906 L 124.167969 706.222656 L 123.236328 707.429688 L 94.869141 680.591797 L 66.501953 707.429688 Z M 258.976563 707.429688 L 258.044922 706.222656 L 287.34375 678.503906 L 316.640625 706.222656 L 315.708984 707.427734 L 287.34375 680.591797 L 258.976563 707.429688 Z M 451.449219 707.429688 L 450.517578 706.222656 L 479.814453 678.503906 L 509.111328 706.222656 L 508.183594 707.427734 L 479.814453 680.591797 L 451.449219 707.429688 Z M 643.923828 707.429688 L 642.992188 706.222656 L 672.289063 678.503906 L 701.585938 706.222656 L 700.654297 707.429688 L 672.289063 680.591797 L 643.923828 707.429688 Z M 836.398438 707.429688 L 835.466797 706.222656 L 864.763672 678.503906 L 894.060547 706.222656 L 893.128906 707.429688 L 864.763672 680.591797 L 836.398438 707.429688 Z M 1028.871094 707.429688 L 1027.9375 706.222656 L 1057.236328 678.503906 L 1086.533203 706.222656 L 1085.601563 707.429688 L 1057.236328 680.591797 L 1028.871094 707.429688 Z M 1221.34375 707.429688 L 1220.412109 706.222656 L 1249.710938 678.503906 L 1279.007813 706.222656 L 1278.076172 707.429688 L 1249.710938 680.591797 L 1221.34375 707.429688 Z M 1413.816406 707.429688 L 1412.884766 706.222656 L 1442.181641 678.503906 L 1471.482422 706.222656 L 1470.550781 707.429688 L 1442.181641 680.591797 L 1413.816406 707.429688 Z M 1606.291016 707.429688 L 1605.359375 706.222656 L 1634.65625 678.503906 L 1663.955078 706.222656 L 1663.023438 707.429688 L 1634.65625 680.591797 L 1606.291016 707.429688 Z M 1798.763672 707.429688 L 1797.832031 706.222656 L 1827.128906 678.503906 L 1856.425781 706.222656 L 1855.498047 707.427734 L 1827.128906 680.591797 L 1798.763672 707.429688 Z M 51.480469 688.001953 L 50.548828 686.794922 L 94.869141 644.863281 L 139.191406 686.794922 L 138.259766 688.001953 L 94.869141 646.951172 L 51.480469 688.001953 Z M 243.953125 688.001953 L 243.019531 686.794922 L 287.34375 644.863281 L 331.666016 686.794922 L 330.732422 688.001953 L 287.34375 646.951172 L 243.953125 688.001953 Z M 436.423828 688.001953 L 435.492188 686.794922 L 479.814453 644.863281 L 524.138672 686.794922 L 523.207031 688.001953 L 479.814453 646.951172 L 436.423828 688.001953 Z M 628.898438 688.001953 L 627.966797 686.794922 L 672.289063 644.863281 L 716.611328 686.794922 L 715.679688 688.001953 L 672.289063 646.951172 L 628.898438 688.001953 Z M 821.373047 688.001953 L 820.441406 686.794922 L 864.763672 644.863281 L 909.085938 686.794922 L 908.154297 688.001953 L 864.763672 646.951172 L 821.373047 688.001953 Z M 1013.845703 688.001953 L 1012.914063 686.794922 L 1057.236328 644.863281 L 1101.558594 686.796875 L 1100.626953 688.001953 L 1057.236328 646.951172 L 1013.845703 688.001953 Z M 1206.320313 688.001953 L 1205.388672 686.794922 L 1249.710938 644.863281 L 1294.03125 686.794922 L 1293.099609 688.001953 L 1249.710938 646.951172 L 1206.320313 688.001953 Z M 1398.794922 688.001953 L 1397.863281 686.794922 L 1442.181641 644.863281 L 1486.503906 686.794922 L 1485.572266 688.001953 L 1442.181641 646.951172 L 1398.794922 688.001953 Z M 1591.267578 688.001953 L 1590.335938 686.794922 L 1634.65625 644.863281 L 1678.978516 686.794922 L 1678.046875 688.001953 L 1634.65625 646.951172 L 1591.267578 688.001953 Z M 1783.738281 688.001953 L 1782.806641 686.794922 L 1827.128906 644.863281 L 1871.453125 686.794922 L 1870.519531 688.001953 L 1827.128906 646.951172 L 1783.738281 688.001953 Z M 731.955078 671.457031 L 732.714844 670.476563 L 672.289063 613.308594 L 611.865234 670.476563 L 612.615234 671.449219 L 576.054688 636.855469 L 539.484375 671.455078 L 540.240234 670.476563 L 479.814453 613.308594 L 419.390625 670.476563 L 420.144531 671.451172 L 383.580078 636.855469 L 347.013672 671.451172 L 347.767578 670.476563 L 287.34375 613.308594 L 226.916016 670.476563 L 227.666016 671.447266 L 191.105469 636.855469 L 154.539063 671.451172 L 155.294922 670.476563 L 94.869141 613.308594 L 34.445313 670.476563 L 35.197266 671.451172 L 0 638.148438 L 0 636.060547 L 29.253906 663.738281 L 30.75 665.699219 L 33.511719 669.271484 L 94.869141 611.220703 L 154.214844 667.369141 L 153.472656 668.328125 L 155.658203 670.007813 L 160.628906 663.582031 L 191.105469 634.767578 L 221.728516 663.738281 L 223.222656 665.697266 L 225.986328 669.271484 L 287.34375 611.220703 L 348.697266 669.271484 L 350.371094 667.107422 L 353.101563 663.582031 L 383.578125 634.767578 L 414.201172 663.738281 L 418.458984 669.273438 L 479.814453 611.220703 L 539.160156 667.369141 L 538.386719 668.369141 L 540.572266 670.048828 L 545.574219 663.582031 L 576.050781 634.767578 L 606.675781 663.738281 L 608.167969 665.697266 L 610.933594 669.271484 L 672.289063 611.220703 L 733.646484 669.271484 L 737.984375 663.664063 L 768.525391 634.767578 L 799.148438 663.738281 L 800.644531 665.697266 L 803.40625 669.271484 L 864.763672 611.220703 L 926.119141 669.273438 L 928.853516 665.734375 L 930.519531 663.582031 L 960.998047 634.767578 L 991.623047 663.738281 L 993.117188 665.697266 L 995.880859 669.271484 L 1057.236328 611.220703 L 1118.59375 669.273438 L 1121.326172 665.734375 L 1122.994141 663.582031 L 1153.472656 634.767578 L 1184.097656 663.738281 L 1185.589844 665.697266 L 1188.353516 669.271484 L 1249.710938 611.220703 L 1311.064453 669.271484 L 1315.466797 663.582031 L 1345.921875 634.791016 L 1345.935547 634.804688 L 1345.958984 634.78125 L 1376.568359 663.738281 L 1380.826172 669.273438 L 1442.181641 611.220703 L 1503.539063 669.271484 L 1504.486328 668.046875 L 1507.941406 663.582031 L 1538.396484 634.791016 L 1538.410156 634.804688 L 1538.433594 634.78125 L 1569.042969 663.738281 L 1573.298828 669.273438 L 1634.65625 611.220703 L 1694.001953 667.369141 L 1693.072266 668.574219 L 1634.65625 613.308594 L 1574.230469 670.476563 L 1574.978516 671.443359 L 1538.419922 636.855469 L 1501.847656 671.457031 L 1502.607422 670.476563 L 1442.181641 613.308594 L 1381.757813 670.478516 L 1382.505859 671.443359 L 1345.945313 636.855469 L 1309.384766 671.447266 L 1310.134766 670.476563 L 1249.710938 613.308594 L 1189.283203 670.478516 L 1190.03125 671.443359 L 1153.472656 636.855469 L 1116.910156 671.447266 L 1117.662109 670.476563 L 1057.236328 613.308594 L 996.8125 670.476563 L 997.566406 671.453125 L 960.998047 636.855469 L 924.431641 671.453125 L 925.1875 670.476563 L 864.763672 613.308594 L 804.337891 670.476563 L 805.091797 671.451172 L 768.527344 636.855469 L 731.955078 671.457031 Z M 1694.324219 671.455078 L 1696.912109 668.111328 L 1700.416016 663.582031 L 1730.869141 634.791016 L 1730.882813 634.804688 L 1730.908203 634.78125 L 1761.515625 663.738281 L 1765.773438 669.273438 L 1827.128906 611.220703 L 1886.474609 667.369141 L 1885.542969 668.574219 L 1827.128906 613.308594 L 1766.705078 670.476563 L 1767.458984 671.451172 L 1730.894531 636.855469 L 1694.324219 671.455078 Z M 1886.808594 671.445313 L 1892.888672 663.582031 L 1922 636.058594 L 1922 638.148438 L 1886.808594 671.445313 Z M 21.431641 649.148438 L 20.5 647.941406 L 94.869141 577.578125 L 169.238281 647.941406 L 168.306641 649.148438 L 94.869141 579.667969 L 21.431641 649.148438 Z M 213.90625 649.148438 L 212.972656 647.941406 L 287.34375 577.578125 L 361.712891 647.941406 L 360.779297 649.148438 L 287.34375 579.667969 L 213.90625 649.148438 Z M 406.376953 649.148438 L 405.445313 647.941406 L 479.814453 577.578125 L 554.185547 647.939453 L 553.251953 649.148438 L 479.814453 579.667969 L 406.376953 649.148438 Z M 598.853516 649.148438 L 597.921875 647.941406 L 672.289063 577.578125 L 746.660156 647.939453 L 745.724609 649.148438 L 672.289063 579.667969 L 598.853516 649.148438 Z M 791.324219 649.148438 L 790.392578 647.941406 L 864.763672 577.578125 L 939.132813 647.939453 L 938.199219 649.148438 L 864.763672 579.667969 L 791.324219 649.148438 Z M 983.798828 649.148438 L 982.867188 647.941406 L 1057.236328 577.578125 L 1131.605469 647.941406 L 1130.673828 649.148438 L 1057.236328 579.667969 L 983.798828 649.148438 Z M 1176.271484 649.148438 L 1175.339844 647.941406 L 1249.710938 577.578125 L 1324.078125 647.941406 L 1323.146484 649.148438 L 1249.710938 579.667969 L 1176.271484 649.148438 Z M 1368.746094 649.148438 L 1367.814453 647.941406 L 1442.181641 577.578125 L 1516.552734 647.941406 L 1515.621094 649.148438 L 1442.181641 579.667969 L 1368.746094 649.148438 Z M 1561.21875 649.148438 L 1560.287109 647.941406 L 1634.65625 577.578125 L 1709.027344 647.941406 L 1708.095703 649.148438 L 1634.65625 579.667969 L 1561.21875 649.148438 Z M 1753.693359 649.148438 L 1752.761719 647.941406 L 1827.128906 577.578125 L 1901.5 647.941406 L 1900.568359 649.148438 L 1827.128906 579.667969 L 1753.693359 649.148438 Z M 6.408203 629.71875 L 5.476563 628.513672 L 94.869141 543.9375 L 184.261719 628.513672 L 183.330078 629.71875 L 94.869141 546.025391 L 6.408203 629.71875 Z M 198.880859 629.71875 L 197.949219 628.513672 L 287.34375 543.9375 L 376.736328 628.513672 L 375.802734 629.71875 L 287.34375 546.025391 L 198.880859 629.71875 Z M 391.355469 629.71875 L 390.421875 628.513672 L 479.814453 543.9375 L 569.208984 628.513672 L 568.277344 629.71875 L 479.814453 546.025391 L 391.355469 629.71875 Z M 583.828125 629.71875 L 582.896484 628.513672 L 672.289063 543.9375 L 761.683594 628.513672 L 760.75 629.71875 L 672.289063 546.025391 L 583.828125 629.71875 Z M 776.300781 629.71875 L 775.369141 628.513672 L 864.763672 543.9375 L 954.15625 628.513672 L 953.224609 629.71875 L 864.763672 546.025391 L 776.300781 629.71875 Z M 968.775391 629.71875 L 967.84375 628.513672 L 1057.236328 543.9375 L 1146.630859 628.513672 L 1145.699219 629.71875 L 1057.236328 546.025391 L 968.775391 629.71875 Z M 1161.25 629.71875 L 1160.318359 628.513672 L 1249.710938 543.9375 L 1339.103516 628.511719 L 1338.169922 629.71875 L 1249.710938 546.025391 L 1161.25 629.71875 Z M 1353.722656 629.71875 L 1352.789063 628.511719 L 1442.181641 543.9375 L 1531.578125 628.511719 L 1530.644531 629.71875 L 1442.181641 546.025391 L 1353.722656 629.71875 Z M 1546.193359 629.71875 L 1545.261719 628.513672 L 1634.65625 543.9375 L 1724.048828 628.513672 L 1723.117188 629.71875 L 1634.65625 546.025391 L 1546.193359 629.71875 Z M 1738.667969 629.71875 L 1737.736328 628.513672 L 1827.128906 543.9375 L 1916.523438 628.513672 L 1915.591797 629.71875 L 1827.128906 546.025391 L 1738.667969 629.71875 Z M 11.962891 602.396484 L 0 591.080078 L 0 588.990234 L 12.894531 601.191406 L 11.962891 602.396484 Z M 177.775391 602.396484 L 176.84375 601.193359 L 191.105469 587.697266 L 205.367188 601.191406 L 204.435547 602.396484 L 191.105469 589.785156 L 177.775391 602.396484 Z M 370.248047 602.396484 L 369.318359 601.193359 L 383.580078 587.697266 L 397.841797 601.191406 L 396.910156 602.396484 L 383.580078 589.785156 L 370.248047 602.396484 Z M 562.722656 602.396484 L 561.791016 601.193359 L 576.054688 587.697266 L 590.314453 601.191406 L 589.382813 602.396484 L 576.054688 589.785156 L 562.722656 602.396484 Z M 755.195313 602.396484 L 754.263672 601.193359 L 768.527344 587.697266 L 782.789063 601.191406 L 781.857422 602.396484 L 768.527344 589.785156 L 755.195313 602.396484 Z M 947.669922 602.396484 L 946.738281 601.193359 L 961.001953 587.697266 L 975.261719 601.191406 L 974.330078 602.396484 L 960.998047 589.785156 L 947.669922 602.396484 Z M 1140.144531 602.396484 L 1139.210938 601.193359 L 1153.474609 587.697266 L 1167.736328 601.191406 L 1166.804688 602.396484 L 1153.472656 589.785156 L 1140.144531 602.396484 Z M 1332.617188 602.396484 L 1331.685547 601.193359 L 1345.919922 587.722656 L 1345.935547 587.738281 L 1345.958984 587.712891 L 1360.208984 601.191406 L 1359.277344 602.396484 L 1345.945313 589.785156 L 1332.617188 602.396484 Z M 1525.087891 602.396484 L 1524.160156 601.193359 L 1538.396484 587.720703 L 1538.410156 587.736328 L 1538.433594 587.712891 L 1552.683594 601.191406 L 1551.751953 602.396484 L 1538.419922 589.785156 L 1525.087891 602.396484 Z M 1717.5625 602.396484 L 1716.630859 601.193359 L 1730.869141 587.720703 L 1730.882813 587.736328 L 1730.908203 587.712891 L 1745.154297 601.191406 L 1744.222656 602.396484 L 1730.894531 589.785156 L 1717.5625 602.396484 Z M 1910.037109 602.396484 L 1909.105469 601.193359 L 1922 588.990234 L 1922 591.080078 L 1910.037109 602.396484 Z M 26.986328 582.970703 L 0 557.4375 L 0 555.347656 L 27.919922 581.763672 L 26.986328 582.970703 Z M 162.751953 582.970703 L 161.820313 581.763672 L 191.023438 554.134766 L 191.037109 554.150391 L 191.121094 554.068359 L 220.392578 581.763672 L 219.458984 582.970703 L 191.105469 556.144531 L 162.751953 582.970703 Z M 355.224609 582.970703 L 354.292969 581.763672 L 383.554688 554.080078 L 383.625 554.150391 L 383.650391 554.123047 L 412.865234 581.763672 L 411.933594 582.970703 L 383.580078 556.144531 L 355.224609 582.970703 Z M 547.699219 582.970703 L 546.767578 581.763672 L 576.054688 554.054688 L 605.339844 581.761719 L 604.40625 582.970703 L 576.054688 556.144531 L 547.699219 582.970703 Z M 740.173828 582.970703 L 739.242188 581.763672 L 768.527344 554.054688 L 797.810547 581.763672 L 796.878906 582.970703 L 768.527344 556.144531 L 740.173828 582.970703 Z M 989.353516 582.970703 L 960.998047 556.144531 L 932.644531 582.96875 L 931.714844 581.763672 L 961.001953 554.054688 L 990.285156 581.763672 L 989.353516 582.970703 Z M 1125.117188 582.970703 L 1124.185547 581.763672 L 1153.472656 554.054688 L 1182.757813 581.763672 L 1181.826172 582.970703 L 1153.472656 556.144531 L 1125.117188 582.970703 Z M 1317.591797 582.970703 L 1316.660156 581.763672 L 1345.863281 554.134766 L 1345.935547 554.216797 L 1346.019531 554.125 L 1375.232422 581.763672 L 1374.300781 582.970703 L 1345.945313 556.144531 L 1317.591797 582.970703 Z M 1510.066406 582.970703 L 1509.134766 581.763672 L 1538.335938 554.134766 L 1538.410156 554.216797 L 1538.492188 554.125 L 1567.707031 581.763672 L 1566.775391 582.970703 L 1538.419922 556.144531 L 1510.066406 582.970703 Z M 1702.539063 582.970703 L 1701.607422 581.763672 L 1730.810547 554.134766 L 1730.882813 554.216797 L 1730.966797 554.125 L 1760.179688 581.761719 L 1759.248047 582.96875 L 1730.894531 556.144531 L 1702.539063 582.970703 Z M 1895.013672 582.970703 L 1894.082031 581.763672 L 1922 555.347656 L 1922 557.4375 L 1895.013672 582.970703 Z M 42.009766 563.542969 L 0 523.796875 L 0 521.705078 L 42.941406 562.335938 L 42.009766 563.542969 Z M 147.726563 563.542969 L 146.794922 562.335938 L 191.021484 520.494141 L 191.037109 520.511719 L 191.121094 520.427734 L 235.414063 562.335938 L 234.482422 563.542969 L 191.105469 522.501953 L 147.726563 563.542969 Z M 340.201172 563.542969 L 339.269531 562.335938 L 383.552734 520.439453 L 383.625 520.511719 L 383.652344 520.484375 L 427.888672 562.335938 L 426.957031 563.542969 L 383.580078 522.501953 L 340.201172 563.542969 Z M 532.673828 563.542969 L 531.742188 562.335938 L 576.054688 520.414063 L 620.363281 562.335938 L 619.431641 563.542969 L 576.054688 522.501953 L 532.673828 563.542969 Z M 725.148438 563.542969 L 724.216797 562.335938 L 768.525391 520.414063 L 812.835938 562.335938 L 811.904297 563.542969 L 768.527344 522.501953 L 725.148438 563.542969 Z M 917.621094 563.542969 L 916.689453 562.335938 L 960.998047 520.414063 L 1005.308594 562.335938 L 1004.378906 563.541016 L 960.998047 522.501953 L 917.621094 563.542969 Z M 1110.095703 563.542969 L 1109.164063 562.335938 L 1153.472656 520.414063 L 1197.78125 562.335938 L 1196.849609 563.542969 L 1153.472656 522.501953 L 1110.095703 563.542969 Z M 1302.568359 563.542969 L 1301.636719 562.335938 L 1345.863281 520.494141 L 1345.935547 520.578125 L 1346.019531 520.484375 L 1390.255859 562.335938 L 1389.324219 563.542969 L 1345.945313 522.501953 L 1302.568359 563.542969 Z M 1495.042969 563.542969 L 1494.111328 562.335938 L 1538.335938 520.494141 L 1538.410156 520.578125 L 1538.492188 520.484375 L 1582.728516 562.335938 L 1581.796875 563.542969 L 1538.419922 522.501953 L 1495.042969 563.542969 Z M 1687.517578 563.542969 L 1686.582031 562.335938 L 1730.810547 520.494141 L 1730.882813 520.578125 L 1730.96875 520.484375 L 1775.203125 562.335938 L 1774.271484 563.542969 L 1730.894531 522.501953 L 1687.517578 563.542969 Z M 1879.988281 563.542969 L 1879.056641 562.335938 L 1922 521.705078 L 1922 523.796875 L 1879.988281 563.542969 Z M 443.240234 546.988281 L 443.990234 546.015625 L 442.318359 544.433594 L 444.134766 545.832031 L 449.326172 539.121094 L 479.814453 510.294922 L 510.447266 539.277344 L 514.707031 544.810547 L 576.054688 486.771484 L 635.384766 542.908203 L 634.453125 544.113281 L 576.054688 488.861328 L 515.638672 546.015625 L 516.388672 546.982422 L 479.814453 512.382813 L 443.240234 546.988281 Z M 1020.662109 546.988281 L 1021.412109 546.015625 L 1019.738281 544.433594 L 1021.554688 545.832031 L 1026.744141 539.119141 L 1057.236328 510.294922 L 1087.869141 539.277344 L 1092.126953 544.810547 L 1153.472656 486.771484 L 1214.818359 544.810547 L 1219.21875 539.121094 L 1249.710938 510.294922 L 1280.34375 539.277344 L 1284.601563 544.810547 L 1345.921875 486.796875 L 1345.935547 486.810547 L 1345.958984 486.787109 L 1407.292969 544.810547 L 1411.691406 539.121094 L 1442.181641 510.294922 L 1472.816406 539.277344 L 1477.074219 544.810547 L 1538.396484 486.796875 L 1538.410156 486.810547 L 1538.433594 486.787109 L 1597.751953 542.908203 L 1596.822266 544.113281 L 1538.419922 488.861328 L 1478.005859 546.015625 L 1478.753906 546.984375 L 1442.181641 512.382813 L 1405.617188 546.978516 L 1406.361328 546.015625 L 1345.945313 488.861328 L 1285.533203 546.015625 L 1286.273438 546.974609 L 1249.710938 512.382813 L 1213.134766 546.988281 L 1213.886719 546.015625 L 1153.472656 488.861328 L 1093.060547 546.015625 L 1093.808594 546.984375 L 1057.236328 512.382813 L 1020.662109 546.988281 Z M 1790.554688 546.988281 L 1791.304688 546.015625 L 1789.632813 544.433594 L 1791.449219 545.832031 L 1796.640625 539.121094 L 1827.128906 510.294922 L 1857.761719 539.277344 L 1862.021484 544.810547 L 1922 488.064453 L 1922 490.154297 L 1862.953125 546.015625 L 1863.703125 546.982422 L 1827.128906 512.382813 L 1790.554688 546.988281 Z M 635.712891 546.986328 L 636.464844 546.015625 L 634.792969 544.433594 L 636.607422 545.832031 L 641.796875 539.119141 L 672.289063 510.294922 L 702.921875 539.277344 L 707.181641 544.810547 L 768.525391 486.771484 L 827.859375 542.908203 L 826.927734 544.113281 L 768.527344 488.861328 L 708.113281 546.015625 L 708.861328 546.984375 L 672.289063 512.382813 L 635.712891 546.986328 Z M 828.1875 546.986328 L 828.939453 546.015625 L 827.267578 544.433594 L 829.082031 545.832031 L 834.271484 539.119141 L 864.763672 510.294922 L 895.396484 539.277344 L 899.65625 544.810547 L 960.998047 486.771484 L 1020.333984 542.908203 L 1019.402344 544.113281 L 961.001953 488.861328 L 900.587891 546.015625 L 901.335938 546.984375 L 864.763672 512.382813 L 828.1875 546.986328 Z M 250.769531 546.984375 L 251.519531 546.015625 L 249.849609 544.4375 L 251.662109 545.832031 L 256.853516 539.121094 L 287.34375 510.294922 L 317.974609 539.277344 L 322.234375 544.810547 L 383.580078 486.771484 L 442.912109 542.908203 L 441.980469 544.113281 L 383.580078 488.861328 L 323.166016 546.015625 L 323.908203 546.976563 L 287.34375 512.382813 L 250.769531 546.984375 Z M 1671.228516 546.984375 L 1634.65625 512.382813 L 1598.091797 546.978516 L 1598.833984 546.015625 L 1597.173828 544.445313 L 1598.974609 545.832031 L 1604.166016 539.121094 L 1634.65625 510.294922 L 1665.291016 539.277344 L 1669.548828 544.810547 L 1730.869141 486.796875 L 1730.882813 486.810547 L 1730.908203 486.787109 L 1790.226563 542.908203 L 1789.294922 544.113281 L 1730.894531 488.861328 L 1670.480469 546.015625 L 1671.228516 546.984375 Z M 58.298828 546.982422 L 59.046875 546.015625 L 57.378906 544.439453 L 59.189453 545.832031 L 64.378906 539.121094 L 94.869141 510.294922 L 125.5 539.277344 L 129.759766 544.810547 L 191.105469 486.771484 L 250.439453 542.908203 L 249.507813 544.113281 L 191.105469 488.861328 L 130.691406 546.015625 L 131.435547 546.978516 L 94.869141 512.382813 L 58.298828 546.982422 Z M 57.035156 544.113281 L 0 490.154297 L 0 488.064453 L 57.966797 542.908203 L 57.035156 544.113281 Z M 72.058594 524.6875 L 0 456.511719 L 0 454.423828 L 72.988281 523.480469 L 72.058594 524.6875 Z M 117.679688 524.6875 L 116.748047 523.480469 L 191.105469 453.130859 L 265.462891 523.480469 L 264.53125 524.6875 L 191.105469 455.21875 L 117.679688 524.6875 Z M 310.152344 524.6875 L 309.220703 523.480469 L 383.578125 453.130859 L 457.9375 523.480469 L 457.005859 524.6875 L 383.580078 455.21875 L 310.152344 524.6875 Z M 502.625 524.6875 L 501.693359 523.480469 L 576.050781 453.130859 L 650.410156 523.480469 L 649.478516 524.6875 L 576.054688 455.21875 L 502.625 524.6875 Z M 695.099609 524.6875 L 694.167969 523.480469 L 768.525391 453.130859 L 842.882813 523.480469 L 841.953125 524.685547 L 768.527344 455.21875 L 695.099609 524.6875 Z M 887.574219 524.6875 L 886.640625 523.480469 L 960.998047 453.130859 L 1035.355469 523.480469 L 1034.423828 524.6875 L 960.998047 455.21875 L 887.574219 524.6875 Z M 1080.046875 524.6875 L 1079.115234 523.480469 L 1153.472656 453.130859 L 1227.830078 523.480469 L 1226.898438 524.6875 L 1153.472656 455.21875 L 1080.046875 524.6875 Z M 1272.521484 524.6875 L 1271.589844 523.480469 L 1345.921875 453.154297 L 1345.935547 453.169922 L 1345.958984 453.144531 L 1420.302734 523.480469 L 1419.371094 524.6875 L 1345.945313 455.21875 L 1272.521484 524.6875 Z M 1611.845703 524.6875 L 1538.419922 455.21875 L 1464.992188 524.685547 L 1464.0625 523.480469 L 1538.396484 453.154297 L 1538.410156 453.169922 L 1538.433594 453.144531 L 1612.777344 523.480469 L 1611.845703 524.6875 Z M 1657.466797 524.6875 L 1656.535156 523.480469 L 1730.869141 453.154297 L 1730.882813 453.169922 L 1730.910156 453.146484 L 1805.251953 523.480469 L 1804.320313 524.6875 L 1730.894531 455.21875 L 1657.466797 524.6875 Z M 1849.939453 524.6875 L 1849.007813 523.480469 L 1922 454.423828 L 1922 456.511719 L 1849.939453 524.6875 Z M 102.65625 505.259766 L 101.722656 504.054688 L 191.105469 419.488281 L 280.486328 504.054688 L 279.554688 505.259766 L 191.105469 421.578125 L 102.65625 505.259766 Z M 295.128906 505.259766 L 294.195313 504.054688 L 383.578125 419.488281 L 472.958984 504.054688 L 472.03125 505.257813 L 383.580078 421.578125 L 295.128906 505.259766 Z M 487.603516 505.259766 L 486.671875 504.054688 L 576.054688 419.488281 L 665.433594 504.054688 L 664.501953 505.259766 L 576.054688 421.578125 L 487.603516 505.259766 Z M 680.076172 505.259766 L 679.144531 504.054688 L 768.525391 419.488281 L 857.908203 504.054688 L 856.976563 505.259766 L 768.527344 421.578125 L 680.076172 505.259766 Z M 872.550781 505.259766 L 871.619141 504.054688 L 960.998047 419.488281 L 1050.380859 504.054688 L 1049.449219 505.259766 L 960.998047 421.578125 L 872.550781 505.259766 Z M 1065.023438 505.259766 L 1064.089844 504.052734 L 1153.472656 419.488281 L 1242.855469 504.054688 L 1241.923828 505.259766 L 1153.472656 421.578125 L 1065.023438 505.259766 Z M 1257.496094 505.259766 L 1256.564453 504.054688 L 1345.921875 419.511719 L 1345.935547 419.527344 L 1345.958984 419.503906 L 1435.328125 504.054688 L 1434.398438 505.259766 L 1345.945313 421.578125 L 1257.496094 505.259766 Z M 1449.96875 505.259766 L 1449.037109 504.054688 L 1538.396484 419.511719 L 1538.410156 419.527344 L 1538.433594 419.503906 L 1627.802734 504.054688 L 1626.871094 505.259766 L 1538.419922 421.578125 L 1449.96875 505.259766 Z M 1642.443359 505.259766 L 1641.511719 504.054688 L 1730.869141 419.511719 L 1730.882813 419.529297 L 1730.910156 419.503906 L 1820.273438 504.054688 L 1819.345703 505.257813 L 1730.894531 421.578125 L 1642.443359 505.259766 Z M 1834.917969 505.259766 L 1833.986328 504.054688 L 1922 420.78125 L 1922 422.871094 L 1834.917969 505.259766 Z M 87.083984 505.257813 L 0 422.871094 L 0 420.78125 L 88.015625 504.054688 L 87.083984 505.257813 Z M 81.525391 477.9375 L 80.59375 476.730469 L 94.869141 463.224609 L 109.142578 476.730469 L 108.210938 477.9375 L 94.869141 465.314453 L 81.525391 477.9375 Z M 274 477.9375 L 273.068359 476.730469 L 287.34375 463.224609 L 301.615234 476.730469 L 300.683594 477.9375 L 287.34375 465.314453 L 274 477.9375 Z M 466.472656 477.9375 L 465.541016 476.730469 L 479.814453 463.224609 L 494.089844 476.730469 L 493.158203 477.9375 L 479.814453 465.314453 L 466.472656 477.9375 Z M 658.947266 477.9375 L 658.015625 476.730469 L 672.289063 463.224609 L 686.5625 476.730469 L 685.630859 477.9375 L 672.289063 465.314453 L 658.947266 477.9375 Z M 851.419922 477.9375 L 850.488281 476.730469 L 864.763672 463.224609 L 879.037109 476.730469 L 878.105469 477.9375 L 864.763672 465.314453 L 851.419922 477.9375 Z M 1043.894531 477.9375 L 1042.962891 476.730469 L 1057.236328 463.224609 L 1071.511719 476.730469 L 1070.580078 477.9375 L 1057.236328 465.314453 L 1043.894531 477.9375 Z M 1236.369141 477.9375 L 1235.4375 476.730469 L 1249.710938 463.224609 L 1263.982422 476.730469 L 1263.052734 477.9375 L 1249.710938 465.314453 L 1236.369141 477.9375 Z M 1428.839844 477.9375 L 1427.910156 476.730469 L 1442.181641 463.224609 L 1456.457031 476.730469 L 1455.525391 477.9375 L 1442.181641 465.314453 L 1428.839844 477.9375 Z M 1621.314453 477.9375 L 1620.382813 476.730469 L 1634.65625 463.224609 L 1648.929688 476.730469 L 1647.998047 477.9375 L 1634.65625 465.314453 L 1621.314453 477.9375 Z M 1813.787109 477.9375 L 1812.855469 476.730469 L 1827.128906 463.224609 L 1841.404297 476.730469 L 1840.472656 477.9375 L 1827.128906 465.314453 L 1813.787109 477.9375 Z M 66.501953 458.509766 L 65.570313 457.302734 L 94.869141 429.583984 L 124.167969 457.302734 L 123.236328 458.509766 L 94.869141 431.671875 L 66.501953 458.509766 Z M 258.976563 458.509766 L 258.044922 457.302734 L 287.34375 429.583984 L 316.640625 457.302734 L 315.708984 458.507813 L 287.34375 431.671875 L 258.976563 458.509766 Z M 451.449219 458.509766 L 450.517578 457.302734 L 479.814453 429.583984 L 509.111328 457.302734 L 508.183594 458.507813 L 479.814453 431.671875 L 451.449219 458.509766 Z M 643.923828 458.509766 L 642.992188 457.302734 L 672.289063 429.583984 L 701.585938 457.302734 L 700.654297 458.509766 L 672.289063 431.671875 L 643.923828 458.509766 Z M 836.398438 458.509766 L 835.466797 457.302734 L 864.763672 429.583984 L 894.060547 457.302734 L 893.128906 458.509766 L 864.763672 431.671875 L 836.398438 458.509766 Z M 1028.871094 458.509766 L 1027.9375 457.300781 L 1057.236328 429.583984 L 1086.533203 457.302734 L 1085.601563 458.509766 L 1057.236328 431.671875 L 1028.871094 458.509766 Z M 1221.34375 458.509766 L 1220.412109 457.302734 L 1249.710938 429.583984 L 1279.007813 457.302734 L 1278.076172 458.509766 L 1249.710938 431.671875 L 1221.34375 458.509766 Z M 1413.816406 458.509766 L 1412.884766 457.302734 L 1442.181641 429.583984 L 1471.482422 457.302734 L 1470.550781 458.509766 L 1442.181641 431.671875 L 1413.816406 458.509766 Z M 1606.291016 458.509766 L 1605.359375 457.302734 L 1634.65625 429.583984 L 1663.955078 457.302734 L 1663.023438 458.509766 L 1634.65625 431.671875 L 1606.291016 458.509766 Z M 1798.763672 458.509766 L 1797.832031 457.302734 L 1827.128906 429.583984 L 1856.425781 457.302734 L 1855.498047 458.507813 L 1827.128906 431.671875 L 1798.763672 458.509766 Z M 51.480469 439.082031 L 50.548828 437.875 L 94.869141 395.943359 L 139.191406 437.875 L 138.259766 439.082031 L 94.869141 398.03125 L 51.480469 439.082031 Z M 243.953125 439.082031 L 243.019531 437.875 L 287.34375 395.943359 L 331.666016 437.875 L 330.732422 439.082031 L 287.34375 398.03125 L 243.953125 439.082031 Z M 436.423828 439.082031 L 435.492188 437.875 L 479.814453 395.943359 L 524.138672 437.875 L 523.207031 439.082031 L 479.814453 398.03125 L 436.423828 439.082031 Z M 628.898438 439.082031 L 627.966797 437.875 L 672.289063 395.943359 L 716.611328 437.875 L 715.679688 439.082031 L 672.289063 398.03125 L 628.898438 439.082031 Z M 821.373047 439.082031 L 820.441406 437.875 L 864.763672 395.943359 L 909.085938 437.875 L 908.154297 439.082031 L 864.763672 398.03125 L 821.373047 439.082031 Z M 1013.845703 439.082031 L 1012.914063 437.875 L 1057.236328 395.943359 L 1101.558594 437.876953 L 1100.626953 439.082031 L 1057.236328 398.03125 L 1013.845703 439.082031 Z M 1206.320313 439.082031 L 1205.388672 437.875 L 1249.710938 395.943359 L 1294.03125 437.875 L 1293.099609 439.082031 L 1249.710938 398.03125 L 1206.320313 439.082031 Z M 1398.794922 439.082031 L 1397.863281 437.875 L 1442.181641 395.943359 L 1486.503906 437.875 L 1485.572266 439.082031 L 1442.181641 398.03125 L 1398.794922 439.082031 Z M 1591.267578 439.082031 L 1590.335938 437.875 L 1634.65625 395.943359 L 1678.978516 437.875 L 1678.046875 439.082031 L 1634.65625 398.03125 L 1591.267578 439.082031 Z M 1783.738281 439.082031 L 1782.806641 437.875 L 1827.128906 395.943359 L 1871.453125 437.875 L 1870.519531 439.082031 L 1827.128906 398.03125 L 1783.738281 439.082031 Z M 997.5625 422.529297 L 960.998047 387.935547 L 924.439453 422.525391 L 928.427734 417.365234 L 930.519531 414.660156 L 960.998047 385.847656 L 991.623047 414.818359 L 993.117188 416.777344 L 995.880859 420.351563 L 1057.236328 362.300781 L 1116.582031 418.449219 L 1115.650391 419.654297 L 1057.236328 364.388672 L 996.8125 421.556641 L 997.5625 422.529297 Z M 35.193359 422.527344 L 0 389.228516 L 0 387.140625 L 29.253906 414.818359 L 30.75 416.779297 L 33.511719 420.351563 L 94.869141 362.300781 L 154.214844 418.449219 L 153.283203 419.654297 L 94.869141 364.388672 L 34.443359 421.556641 L 35.193359 422.527344 Z M 420.140625 422.527344 L 383.580078 387.935547 L 347.021484 422.523438 L 353.101563 414.660156 L 383.578125 385.847656 L 414.201172 414.818359 L 418.458984 420.351563 L 479.814453 362.300781 L 539.160156 418.449219 L 538.228516 419.654297 L 479.814453 364.388672 L 419.390625 421.556641 L 420.140625 422.527344 Z M 539.488281 422.527344 L 545.574219 414.660156 L 576.050781 385.847656 L 606.675781 414.818359 L 608.167969 416.777344 L 610.933594 420.351563 L 672.289063 362.300781 L 731.634766 418.449219 L 730.703125 419.654297 L 672.289063 364.388672 L 611.865234 421.556641 L 612.615234 422.527344 L 576.054688 387.935547 L 539.488281 422.527344 Z M 731.962891 422.527344 L 737.980469 414.744141 L 768.525391 385.847656 L 799.148438 414.818359 L 800.644531 416.777344 L 803.40625 420.351563 L 864.763672 362.300781 L 924.107422 418.449219 L 923.175781 419.654297 L 864.763672 364.388672 L 804.337891 421.556641 L 805.089844 422.527344 L 768.527344 387.935547 L 731.962891 422.527344 Z M 1767.457031 422.527344 L 1730.894531 387.935547 L 1694.339844 422.519531 L 1700.416016 414.660156 L 1730.869141 385.871094 L 1730.882813 385.886719 L 1730.908203 385.861328 L 1761.515625 414.818359 L 1765.773438 420.351563 L 1827.128906 362.300781 L 1886.474609 418.449219 L 1885.542969 419.654297 L 1827.128906 364.388672 L 1766.705078 421.556641 L 1767.457031 422.527344 Z M 227.664063 422.523438 L 191.105469 387.935547 L 154.552734 422.519531 L 160.628906 414.660156 L 191.105469 385.847656 L 221.728516 414.818359 L 223.222656 416.777344 L 225.986328 420.351563 L 287.34375 362.300781 L 346.6875 418.449219 L 345.755859 419.654297 L 287.34375 364.388672 L 226.916016 421.556641 L 227.664063 422.523438 Z M 1116.917969 422.519531 L 1120.900391 417.365234 L 1122.994141 414.660156 L 1153.472656 385.847656 L 1184.097656 414.818359 L 1185.589844 416.777344 L 1188.353516 420.351563 L 1249.710938 362.300781 L 1309.056641 418.449219 L 1308.125 419.654297 L 1249.710938 364.388672 L 1189.283203 421.558594 L 1190.029297 422.519531 L 1153.472656 387.935547 L 1116.917969 422.519531 Z M 1309.392578 422.519531 L 1315.466797 414.660156 L 1345.921875 385.871094 L 1345.935547 385.886719 L 1345.958984 385.861328 L 1376.568359 414.818359 L 1380.826172 420.351563 L 1442.181641 362.300781 L 1501.529297 418.449219 L 1500.597656 419.654297 L 1442.181641 364.388672 L 1381.757813 421.558594 L 1382.503906 422.519531 L 1345.945313 387.935547 L 1309.392578 422.519531 Z M 1501.867188 422.519531 L 1507.941406 414.660156 L 1538.396484 385.871094 L 1538.410156 385.886719 L 1538.433594 385.861328 L 1569.042969 414.818359 L 1573.298828 420.351563 L 1634.65625 362.300781 L 1694.001953 418.449219 L 1693.072266 419.654297 L 1634.65625 364.388672 L 1574.230469 421.556641 L 1574.976563 422.519531 L 1538.419922 387.935547 L 1501.867188 422.519531 Z M 1886.814453 422.519531 L 1892.888672 414.660156 L 1922 387.140625 L 1922 389.228516 L 1886.814453 422.519531 Z M 21.431641 400.226563 L 20.5 399.021484 L 94.869141 328.660156 L 169.238281 399.021484 L 168.306641 400.226563 L 94.869141 330.748047 L 21.431641 400.226563 Z M 213.90625 400.226563 L 212.972656 399.021484 L 287.34375 328.660156 L 361.712891 399.021484 L 360.779297 400.226563 L 287.34375 330.748047 L 213.90625 400.226563 Z M 406.376953 400.226563 L 405.445313 399.021484 L 479.814453 328.660156 L 554.185547 399.019531 L 553.251953 400.226563 L 479.814453 330.748047 L 406.376953 400.226563 Z M 598.853516 400.226563 L 597.921875 399.021484 L 672.289063 328.660156 L 746.660156 399.019531 L 745.724609 400.226563 L 672.289063 330.748047 L 598.853516 400.226563 Z M 791.324219 400.226563 L 790.392578 399.021484 L 864.763672 328.660156 L 939.132813 399.019531 L 938.199219 400.226563 L 864.763672 330.748047 L 791.324219 400.226563 Z M 983.798828 400.226563 L 982.867188 399.021484 L 1057.236328 328.660156 L 1131.605469 399.021484 L 1130.673828 400.226563 L 1057.236328 330.748047 L 983.798828 400.226563 Z M 1176.271484 400.226563 L 1175.339844 399.021484 L 1249.710938 328.660156 L 1324.078125 399.021484 L 1323.146484 400.226563 L 1249.710938 330.748047 L 1176.271484 400.226563 Z M 1368.746094 400.226563 L 1367.814453 399.021484 L 1442.181641 328.660156 L 1516.552734 399.021484 L 1515.621094 400.226563 L 1442.181641 330.748047 L 1368.746094 400.226563 Z M 1561.21875 400.226563 L 1560.287109 399.021484 L 1634.65625 328.660156 L 1709.027344 399.021484 L 1708.095703 400.226563 L 1634.65625 330.748047 L 1561.21875 400.226563 Z M 1753.693359 400.226563 L 1752.761719 399.021484 L 1827.128906 328.660156 L 1901.5 399.021484 L 1900.568359 400.226563 L 1827.128906 330.748047 L 1753.693359 400.226563 Z M 6.408203 380.798828 L 5.476563 379.59375 L 94.869141 295.017578 L 184.261719 379.59375 L 183.330078 380.798828 L 94.869141 297.105469 L 6.408203 380.798828 Z M 198.880859 380.798828 L 197.949219 379.59375 L 287.34375 295.017578 L 376.736328 379.59375 L 375.802734 380.798828 L 287.34375 297.105469 L 198.880859 380.798828 Z M 391.355469 380.798828 L 390.421875 379.59375 L 479.814453 295.017578 L 569.208984 379.59375 L 568.277344 380.798828 L 479.814453 297.105469 L 391.355469 380.798828 Z M 583.828125 380.798828 L 582.896484 379.59375 L 672.289063 295.017578 L 761.683594 379.59375 L 760.75 380.798828 L 672.289063 297.105469 L 583.828125 380.798828 Z M 776.300781 380.798828 L 775.369141 379.59375 L 864.763672 295.017578 L 954.15625 379.59375 L 953.224609 380.798828 L 864.763672 297.105469 L 776.300781 380.798828 Z M 968.775391 380.798828 L 967.84375 379.59375 L 1057.236328 295.017578 L 1146.630859 379.59375 L 1145.699219 380.798828 L 1057.236328 297.105469 L 968.775391 380.798828 Z M 1161.25 380.798828 L 1160.318359 379.59375 L 1249.710938 295.017578 L 1339.103516 379.591797 L 1338.169922 380.798828 L 1249.710938 297.105469 L 1161.25 380.798828 Z M 1353.722656 380.798828 L 1352.789063 379.591797 L 1442.181641 295.017578 L 1531.578125 379.591797 L 1530.644531 380.798828 L 1442.181641 297.105469 L 1353.722656 380.798828 Z M 1546.193359 380.798828 L 1545.261719 379.59375 L 1634.65625 295.017578 L 1724.048828 379.59375 L 1723.117188 380.798828 L 1634.65625 297.105469 L 1546.193359 380.798828 Z M 1738.667969 380.798828 L 1737.736328 379.59375 L 1827.128906 295.017578 L 1916.523438 379.59375 L 1915.591797 380.798828 L 1827.128906 297.105469 L 1738.667969 380.798828 Z M 11.962891 353.476563 L 0 342.160156 L 0 340.070313 L 12.894531 352.271484 L 11.962891 353.476563 Z M 177.775391 353.476563 L 176.84375 352.271484 L 191.105469 338.777344 L 205.367188 352.271484 L 204.435547 353.476563 L 191.105469 340.865234 L 177.775391 353.476563 Z M 370.248047 353.476563 L 369.316406 352.271484 L 383.580078 338.777344 L 397.841797 352.271484 L 396.910156 353.476563 L 383.580078 340.865234 L 370.248047 353.476563 Z M 562.722656 353.476563 L 561.791016 352.271484 L 576.054688 338.777344 L 590.314453 352.271484 L 589.382813 353.476563 L 576.054688 340.865234 L 562.722656 353.476563 Z M 755.195313 353.476563 L 754.263672 352.271484 L 768.525391 338.777344 L 782.789063 352.271484 L 781.857422 353.476563 L 768.527344 340.865234 L 755.195313 353.476563 Z M 947.669922 353.476563 L 946.738281 352.271484 L 961.001953 338.777344 L 975.261719 352.271484 L 974.330078 353.476563 L 960.998047 340.865234 L 947.669922 353.476563 Z M 1140.144531 353.476563 L 1139.210938 352.271484 L 1153.472656 338.777344 L 1167.736328 352.271484 L 1166.804688 353.476563 L 1153.472656 340.865234 L 1140.144531 353.476563 Z M 1332.617188 353.476563 L 1331.685547 352.271484 L 1345.919922 338.802734 L 1345.935547 338.816406 L 1345.958984 338.792969 L 1360.208984 352.271484 L 1359.277344 353.476563 L 1345.945313 340.865234 L 1332.617188 353.476563 Z M 1525.087891 353.476563 L 1524.160156 352.271484 L 1538.396484 338.800781 L 1538.410156 338.816406 L 1538.433594 338.792969 L 1552.683594 352.271484 L 1551.751953 353.476563 L 1538.419922 340.865234 L 1525.087891 353.476563 Z M 1717.5625 353.476563 L 1716.630859 352.271484 L 1730.869141 338.800781 L 1730.882813 338.816406 L 1730.908203 338.792969 L 1745.154297 352.271484 L 1744.222656 353.476563 L 1730.894531 340.865234 L 1717.5625 353.476563 Z M 1910.037109 353.476563 L 1909.105469 352.271484 L 1922 340.070313 L 1922 342.160156 L 1910.037109 353.476563 Z M 219.458984 334.050781 L 191.105469 307.222656 L 162.751953 334.048828 L 161.820313 332.84375 L 191.105469 305.134766 L 220.392578 332.84375 L 219.458984 334.050781 Z M 411.933594 334.050781 L 383.580078 307.222656 L 355.224609 334.048828 L 354.292969 332.84375 L 383.580078 305.134766 L 412.865234 332.84375 L 411.933594 334.050781 Z M 604.40625 334.050781 L 576.054688 307.222656 L 547.699219 334.048828 L 546.767578 332.84375 L 576.054688 305.134766 L 605.339844 332.84375 L 604.40625 334.050781 Z M 26.986328 334.048828 L 0 308.517578 L 0 306.429688 L 27.917969 332.84375 L 26.986328 334.048828 Z M 740.173828 334.048828 L 739.242188 332.84375 L 768.527344 305.134766 L 797.810547 332.84375 L 796.878906 334.048828 L 768.527344 307.222656 L 740.173828 334.048828 Z M 989.353516 334.048828 L 960.998047 307.222656 L 932.644531 334.046875 L 931.714844 332.84375 L 961.001953 305.134766 L 990.285156 332.84375 L 989.353516 334.048828 Z M 1125.117188 334.048828 L 1124.185547 332.84375 L 1153.472656 305.134766 L 1182.757813 332.84375 L 1181.826172 334.048828 L 1153.472656 307.222656 L 1125.117188 334.048828 Z M 1317.591797 334.048828 L 1316.660156 332.84375 L 1345.921875 305.160156 L 1345.935547 305.171875 L 1345.958984 305.148438 L 1375.232422 332.84375 L 1374.300781 334.048828 L 1345.945313 307.222656 L 1317.591797 334.048828 Z M 1510.066406 334.048828 L 1509.134766 332.84375 L 1538.396484 305.160156 L 1538.410156 305.171875 L 1538.433594 305.148438 L 1567.707031 332.84375 L 1566.775391 334.048828 L 1538.419922 307.222656 L 1510.066406 334.048828 Z M 1702.539063 334.048828 L 1701.607422 332.84375 L 1730.869141 305.160156 L 1730.882813 305.171875 L 1730.908203 305.148438 L 1760.179688 332.84375 L 1759.246094 334.048828 L 1730.894531 307.222656 L 1702.539063 334.048828 Z M 1895.013672 334.048828 L 1894.082031 332.84375 L 1922 306.429688 L 1922 308.517578 L 1895.013672 334.048828 Z M 42.009766 314.621094 L 0 274.875 L 0 272.787109 L 42.941406 313.416016 L 42.009766 314.621094 Z M 147.726563 314.621094 L 146.794922 313.416016 L 191.105469 271.494141 L 235.414063 313.416016 L 234.482422 314.621094 L 191.105469 273.582031 L 147.726563 314.621094 Z M 340.201172 314.621094 L 339.269531 313.416016 L 383.580078 271.494141 L 427.888672 313.416016 L 426.957031 314.621094 L 383.580078 273.582031 L 340.201172 314.621094 Z M 532.673828 314.621094 L 531.742188 313.416016 L 576.054688 271.494141 L 620.363281 313.416016 L 619.431641 314.621094 L 576.054688 273.582031 L 532.673828 314.621094 Z M 725.148438 314.621094 L 724.216797 313.416016 L 768.525391 271.494141 L 812.835938 313.416016 L 811.904297 314.621094 L 768.527344 273.582031 L 725.148438 314.621094 Z M 917.621094 314.621094 L 916.689453 313.416016 L 960.998047 271.494141 L 1005.308594 313.416016 L 1004.378906 314.621094 L 960.998047 273.582031 L 917.621094 314.621094 Z M 1110.095703 314.621094 L 1109.164063 313.416016 L 1153.472656 271.494141 L 1197.78125 313.416016 L 1196.849609 314.621094 L 1153.472656 273.582031 L 1110.095703 314.621094 Z M 1302.568359 314.621094 L 1301.636719 313.416016 L 1345.921875 271.517578 L 1345.935547 271.533203 L 1345.958984 271.507813 L 1390.255859 313.416016 L 1389.324219 314.621094 L 1345.945313 273.582031 L 1302.568359 314.621094 Z M 1495.042969 314.621094 L 1494.111328 313.416016 L 1538.396484 271.517578 L 1538.410156 271.533203 L 1538.433594 271.507813 L 1582.728516 313.416016 L 1581.796875 314.621094 L 1538.419922 273.582031 L 1495.042969 314.621094 Z M 1687.517578 314.621094 L 1686.582031 313.414063 L 1730.869141 271.517578 L 1730.882813 271.535156 L 1730.910156 271.509766 L 1775.203125 313.416016 L 1774.271484 314.621094 L 1730.894531 273.582031 L 1687.517578 314.621094 Z M 1879.988281 314.621094 L 1879.056641 313.416016 L 1922 272.787109 L 1922 274.875 L 1879.988281 314.621094 Z M 1020.662109 298.068359 L 1021.412109 297.097656 L 1019.734375 295.509766 L 1021.554688 296.910156 L 1026.744141 290.199219 L 1057.236328 261.375 L 1087.869141 290.357422 L 1092.126953 295.890625 L 1153.472656 237.851563 L 1214.818359 295.890625 L 1219.21875 290.199219 L 1249.710938 261.375 L 1280.34375 290.357422 L 1284.601563 295.890625 L 1345.921875 237.875 L 1345.935547 237.890625 L 1345.958984 237.867188 L 1407.292969 295.890625 L 1411.691406 290.199219 L 1442.181641 261.375 L 1472.816406 290.357422 L 1477.074219 295.890625 L 1538.396484 237.875 L 1538.410156 237.890625 L 1538.433594 237.867188 L 1597.751953 293.988281 L 1596.822266 295.193359 L 1538.419922 239.941406 L 1478.005859 297.097656 L 1478.753906 298.0625 L 1442.181641 263.464844 L 1405.615234 298.058594 L 1406.361328 297.097656 L 1345.945313 239.941406 L 1285.533203 297.097656 L 1286.273438 298.054688 L 1249.710938 263.464844 L 1213.134766 298.068359 L 1213.886719 297.097656 L 1153.472656 239.941406 L 1093.060547 297.097656 L 1093.808594 298.0625 L 1057.236328 263.464844 L 1020.662109 298.068359 Z M 250.769531 298.066406 L 251.519531 297.097656 L 191.105469 239.941406 L 130.691406 297.097656 L 131.435547 298.058594 L 94.869141 263.464844 L 58.296875 298.0625 L 59.046875 297.097656 L 57.376953 295.515625 L 59.189453 296.912109 L 64.378906 290.199219 L 94.869141 261.375 L 125.5 290.357422 L 129.759766 295.890625 L 191.105469 237.851563 L 252.451172 295.890625 L 256.853516 290.199219 L 287.34375 261.375 L 317.974609 290.357422 L 322.234375 295.890625 L 383.580078 237.851563 L 442.912109 293.988281 L 441.980469 295.195313 L 383.580078 239.941406 L 323.166016 297.097656 L 323.910156 298.058594 L 287.34375 263.464844 L 250.769531 298.066406 Z M 443.240234 298.066406 L 443.990234 297.097656 L 442.316406 295.511719 L 444.134766 296.912109 L 449.326172 290.199219 L 479.814453 261.375 L 510.447266 290.357422 L 514.707031 295.890625 L 576.054688 237.851563 L 635.384766 293.988281 L 634.453125 295.195313 L 576.054688 239.941406 L 515.638672 297.097656 L 516.388672 298.0625 L 479.814453 263.464844 L 443.240234 298.066406 Z M 635.712891 298.066406 L 636.464844 297.097656 L 634.791016 295.511719 L 636.607422 296.910156 L 641.796875 290.199219 L 672.289063 261.375 L 702.921875 290.357422 L 707.181641 295.890625 L 768.525391 237.851563 L 827.859375 293.988281 L 826.927734 295.195313 L 768.527344 239.941406 L 708.113281 297.097656 L 708.861328 298.0625 L 672.289063 263.464844 L 635.712891 298.066406 Z M 828.1875 298.066406 L 828.939453 297.097656 L 827.263672 295.511719 L 829.082031 296.910156 L 834.271484 290.199219 L 864.763672 261.375 L 895.396484 290.357422 L 899.65625 295.890625 L 960.998047 237.851563 L 1020.333984 293.988281 L 1019.402344 295.195313 L 961.001953 239.941406 L 900.587891 297.097656 L 901.335938 298.0625 L 864.763672 263.464844 L 828.1875 298.066406 Z M 1790.554688 298.066406 L 1791.304688 297.097656 L 1789.630859 295.511719 L 1791.449219 296.912109 L 1796.640625 290.199219 L 1827.128906 261.375 L 1857.761719 290.357422 L 1862.021484 295.890625 L 1922 239.144531 L 1922 241.234375 L 1862.953125 297.097656 L 1863.703125 298.0625 L 1827.128906 263.464844 L 1790.554688 298.066406 Z M 1671.228516 298.0625 L 1634.65625 263.464844 L 1598.087891 298.058594 L 1598.833984 297.097656 L 1597.169922 295.523438 L 1598.974609 296.912109 L 1604.166016 290.199219 L 1634.65625 261.375 L 1665.291016 290.357422 L 1669.548828 295.890625 L 1730.869141 237.875 L 1730.882813 237.890625 L 1730.908203 237.867188 L 1790.226563 293.988281 L 1789.294922 295.195313 L 1730.894531 239.941406 L 1670.480469 297.097656 L 1671.228516 298.0625 Z M 57.035156 295.195313 L 0 241.234375 L 0 239.144531 L 57.964844 293.988281 L 57.035156 295.195313 Z M 72.058594 275.765625 L 0 207.591797 L 0 205.503906 L 72.988281 274.5625 L 72.058594 275.765625 Z M 117.679688 275.765625 L 116.748047 274.5625 L 191.105469 204.210938 L 265.462891 274.5625 L 264.53125 275.765625 L 191.105469 206.298828 L 117.679688 275.765625 Z M 310.152344 275.765625 L 309.220703 274.5625 L 383.578125 204.210938 L 457.9375 274.5625 L 457.005859 275.765625 L 383.580078 206.298828 L 310.152344 275.765625 Z M 502.625 275.765625 L 501.693359 274.5625 L 576.050781 204.210938 L 650.410156 274.5625 L 649.478516 275.765625 L 576.054688 206.298828 L 502.625 275.765625 Z M 695.099609 275.765625 L 694.167969 274.5625 L 768.525391 204.210938 L 842.882813 274.5625 L 841.953125 275.765625 L 768.527344 206.298828 L 695.099609 275.765625 Z M 887.574219 275.765625 L 886.640625 274.5625 L 960.998047 204.210938 L 1035.355469 274.5625 L 1034.423828 275.765625 L 960.998047 206.298828 L 887.574219 275.765625 Z M 1080.046875 275.765625 L 1079.115234 274.5625 L 1153.472656 204.210938 L 1227.830078 274.5625 L 1226.898438 275.765625 L 1153.472656 206.298828 L 1080.046875 275.765625 Z M 1272.521484 275.765625 L 1271.589844 274.5625 L 1345.921875 204.234375 L 1345.935547 204.25 L 1345.958984 204.224609 L 1420.302734 274.5625 L 1419.371094 275.765625 L 1345.945313 206.298828 L 1272.521484 275.765625 Z M 1464.992188 275.765625 L 1464.0625 274.5625 L 1538.396484 204.234375 L 1538.410156 204.25 L 1538.433594 204.224609 L 1612.777344 274.5625 L 1611.845703 275.765625 L 1538.419922 206.298828 L 1464.992188 275.765625 Z M 1657.466797 275.765625 L 1656.535156 274.5625 L 1730.869141 204.234375 L 1730.882813 204.25 L 1730.910156 204.226563 L 1805.251953 274.5625 L 1804.320313 275.765625 L 1730.894531 206.298828 L 1657.466797 275.765625 Z M 1849.939453 275.765625 L 1849.007813 274.5625 L 1922 205.503906 L 1922 207.591797 L 1849.939453 275.765625 Z M 102.65625 256.339844 L 101.722656 255.132813 L 191.105469 170.568359 L 280.486328 255.132813 L 279.554688 256.339844 L 191.105469 172.65625 L 102.65625 256.339844 Z M 295.128906 256.339844 L 294.197266 255.132813 L 383.578125 170.568359 L 472.958984 255.132813 L 472.03125 256.337891 L 383.580078 172.65625 L 295.128906 256.339844 Z M 487.603516 256.339844 L 486.671875 255.132813 L 576.054688 170.568359 L 665.433594 255.132813 L 664.501953 256.339844 L 576.054688 172.65625 L 487.603516 256.339844 Z M 680.076172 256.339844 L 679.144531 255.132813 L 768.525391 170.568359 L 857.908203 255.132813 L 856.976563 256.339844 L 768.527344 172.65625 L 680.076172 256.339844 Z M 872.550781 256.339844 L 871.619141 255.132813 L 960.998047 170.568359 L 1050.380859 255.132813 L 1049.449219 256.339844 L 960.998047 172.65625 L 872.550781 256.339844 Z M 1065.023438 256.339844 L 1064.089844 255.132813 L 1153.472656 170.568359 L 1242.855469 255.132813 L 1241.923828 256.339844 L 1153.472656 172.65625 L 1065.023438 256.339844 Z M 1257.496094 256.339844 L 1256.564453 255.132813 L 1345.921875 170.591797 L 1345.935547 170.607422 L 1345.958984 170.582031 L 1435.328125 255.132813 L 1434.398438 256.339844 L 1345.945313 172.65625 L 1257.496094 256.339844 Z M 1449.96875 256.339844 L 1449.037109 255.132813 L 1538.396484 170.591797 L 1538.410156 170.607422 L 1538.433594 170.582031 L 1627.802734 255.132813 L 1626.871094 256.339844 L 1538.419922 172.65625 L 1449.96875 256.339844 Z M 1642.443359 256.339844 L 1641.511719 255.132813 L 1730.869141 170.591797 L 1730.882813 170.609375 L 1730.910156 170.583984 L 1820.273438 255.132813 L 1819.345703 256.337891 L 1730.894531 172.65625 L 1642.443359 256.339844 Z M 1834.917969 256.339844 L 1833.986328 255.132813 L 1922 171.861328 L 1922 173.949219 L 1834.917969 256.339844 Z M 87.083984 256.337891 L 0 173.949219 L 0 171.861328 L 88.015625 255.132813 L 87.083984 256.337891 Z M 81.525391 229.017578 L 80.59375 227.8125 L 94.869141 214.304688 L 109.142578 227.8125 L 108.210938 229.015625 L 94.869141 216.394531 L 81.525391 229.017578 Z M 274 229.017578 L 273.068359 227.8125 L 287.34375 214.304688 L 301.615234 227.8125 L 300.683594 229.017578 L 287.34375 216.394531 L 274 229.017578 Z M 466.472656 229.017578 L 465.541016 227.8125 L 479.814453 214.304688 L 494.089844 227.8125 L 493.158203 229.017578 L 479.814453 216.394531 L 466.472656 229.017578 Z M 658.947266 229.017578 L 658.015625 227.8125 L 672.289063 214.304688 L 686.5625 227.8125 L 685.630859 229.017578 L 672.289063 216.394531 L 658.947266 229.017578 Z M 851.419922 229.017578 L 850.488281 227.8125 L 864.763672 214.304688 L 879.037109 227.8125 L 878.105469 229.017578 L 864.763672 216.394531 L 851.419922 229.017578 Z M 1043.894531 229.017578 L 1042.962891 227.8125 L 1057.236328 214.304688 L 1071.511719 227.8125 L 1070.580078 229.017578 L 1057.236328 216.394531 L 1043.894531 229.017578 Z M 1236.369141 229.017578 L 1235.4375 227.8125 L 1249.710938 214.304688 L 1263.982422 227.8125 L 1263.052734 229.015625 L 1249.710938 216.394531 L 1236.369141 229.017578 Z M 1455.525391 229.017578 L 1442.181641 216.394531 L 1428.839844 229.015625 L 1427.910156 227.8125 L 1442.181641 214.304688 L 1456.457031 227.8125 L 1455.525391 229.017578 Z M 1621.314453 229.017578 L 1620.382813 227.8125 L 1634.65625 214.304688 L 1648.929688 227.8125 L 1647.998047 229.017578 L 1634.65625 216.394531 L 1621.314453 229.017578 Z M 1813.787109 229.017578 L 1812.855469 227.8125 L 1827.128906 214.304688 L 1841.404297 227.8125 L 1840.472656 229.017578 L 1827.128906 216.394531 L 1813.787109 229.017578 Z M 66.501953 209.589844 L 65.570313 208.382813 L 94.869141 180.664063 L 124.167969 208.382813 L 123.236328 209.589844 L 94.869141 182.751953 L 66.501953 209.589844 Z M 258.976563 209.589844 L 258.044922 208.382813 L 287.34375 180.664063 L 316.640625 208.382813 L 315.708984 209.587891 L 287.34375 182.751953 L 258.976563 209.589844 Z M 451.449219 209.589844 L 450.517578 208.382813 L 479.814453 180.664063 L 509.111328 208.382813 L 508.183594 209.587891 L 479.814453 182.751953 L 451.449219 209.589844 Z M 643.923828 209.589844 L 642.992188 208.382813 L 672.289063 180.664063 L 701.585938 208.382813 L 700.654297 209.589844 L 672.289063 182.751953 L 643.923828 209.589844 Z M 836.398438 209.589844 L 835.466797 208.382813 L 864.763672 180.664063 L 894.060547 208.382813 L 893.128906 209.589844 L 864.763672 182.751953 L 836.398438 209.589844 Z M 1028.871094 209.589844 L 1027.9375 208.382813 L 1057.236328 180.664063 L 1086.533203 208.382813 L 1085.601563 209.589844 L 1057.236328 182.751953 L 1028.871094 209.589844 Z M 1221.34375 209.589844 L 1220.412109 208.382813 L 1249.710938 180.664063 L 1279.007813 208.382813 L 1278.076172 209.589844 L 1249.710938 182.751953 L 1221.34375 209.589844 Z M 1413.816406 209.589844 L 1412.884766 208.382813 L 1442.181641 180.664063 L 1471.482422 208.382813 L 1470.550781 209.589844 L 1442.181641 182.751953 L 1413.816406 209.589844 Z M 1606.291016 209.589844 L 1605.359375 208.382813 L 1634.65625 180.664063 L 1663.955078 208.382813 L 1663.023438 209.589844 L 1634.65625 182.751953 L 1606.291016 209.589844 Z M 1798.763672 209.589844 L 1797.832031 208.382813 L 1827.128906 180.664063 L 1856.425781 208.382813 L 1855.498047 209.587891 L 1827.128906 182.751953 L 1798.763672 209.589844 Z M 51.480469 190.160156 L 50.548828 188.955078 L 94.869141 147.023438 L 139.191406 188.955078 L 138.259766 190.160156 L 94.869141 149.109375 L 51.480469 190.160156 Z M 243.953125 190.160156 L 243.019531 188.955078 L 287.34375 147.023438 L 331.666016 188.955078 L 330.732422 190.160156 L 287.34375 149.109375 L 243.953125 190.160156 Z M 436.423828 190.160156 L 435.492188 188.955078 L 479.814453 147.023438 L 524.138672 188.955078 L 523.207031 190.160156 L 479.814453 149.109375 L 436.423828 190.160156 Z M 628.898438 190.160156 L 627.966797 188.955078 L 672.289063 147.023438 L 716.611328 188.955078 L 715.679688 190.160156 L 672.289063 149.109375 L 628.898438 190.160156 Z M 821.373047 190.160156 L 820.441406 188.955078 L 864.763672 147.023438 L 909.085938 188.955078 L 908.154297 190.160156 L 864.763672 149.109375 L 821.373047 190.160156 Z M 1013.845703 190.160156 L 1012.914063 188.955078 L 1057.236328 147.023438 L 1101.558594 188.957031 L 1100.626953 190.160156 L 1057.236328 149.109375 L 1013.845703 190.160156 Z M 1206.320313 190.160156 L 1205.388672 188.955078 L 1249.710938 147.023438 L 1294.03125 188.955078 L 1293.099609 190.160156 L 1249.710938 149.109375 L 1206.320313 190.160156 Z M 1398.794922 190.160156 L 1397.863281 188.955078 L 1442.181641 147.023438 L 1486.503906 188.955078 L 1485.572266 190.160156 L 1442.181641 149.109375 L 1398.794922 190.160156 Z M 1591.267578 190.160156 L 1590.335938 188.955078 L 1634.65625 147.023438 L 1678.978516 188.955078 L 1678.046875 190.160156 L 1634.65625 149.109375 L 1591.267578 190.160156 Z M 1783.738281 190.160156 L 1782.806641 188.955078 L 1827.128906 147.023438 L 1871.453125 188.955078 L 1870.519531 190.160156 L 1827.128906 149.109375 L 1783.738281 190.160156 Z M 731.955078 173.617188 L 732.714844 172.636719 L 672.289063 115.46875 L 611.865234 172.636719 L 612.615234 173.609375 L 576.054688 139.015625 L 539.484375 173.615234 L 540.240234 172.636719 L 479.814453 115.46875 L 419.390625 172.636719 L 420.144531 173.609375 L 383.580078 139.015625 L 347.013672 173.609375 L 347.767578 172.636719 L 287.34375 115.46875 L 226.916016 172.636719 L 227.666016 173.605469 L 191.105469 139.015625 L 154.539063 173.609375 L 155.294922 172.636719 L 94.869141 115.46875 L 34.445313 172.636719 L 35.197266 173.609375 L 0 140.308594 L 0 138.220703 L 29.253906 165.898438 L 30.75 167.859375 L 33.511719 171.429688 L 94.869141 113.380859 L 154.214844 169.527344 L 153.472656 170.488281 L 155.658203 172.167969 L 160.628906 165.740234 L 191.105469 136.925781 L 221.728516 165.898438 L 223.222656 167.857422 L 225.986328 171.429688 L 287.34375 113.380859 L 348.697266 171.429688 L 350.371094 169.265625 L 353.101563 165.740234 L 383.578125 136.925781 L 414.201172 165.898438 L 418.458984 171.431641 L 479.814453 113.380859 L 539.160156 169.527344 L 538.386719 170.527344 L 540.572266 172.208984 L 545.574219 165.740234 L 576.050781 136.925781 L 606.675781 165.898438 L 608.167969 167.857422 L 610.933594 171.429688 L 672.289063 113.380859 L 733.646484 171.429688 L 737.984375 165.824219 L 768.525391 136.925781 L 799.148438 165.898438 L 800.644531 167.857422 L 803.40625 171.429688 L 864.763672 113.380859 L 926.119141 171.431641 L 928.853516 167.894531 L 930.519531 165.740234 L 960.998047 136.925781 L 991.623047 165.898438 L 993.117188 167.857422 L 995.880859 171.429688 L 1057.236328 113.380859 L 1118.59375 171.431641 L 1121.326172 167.894531 L 1122.994141 165.740234 L 1153.472656 136.925781 L 1184.097656 165.898438 L 1185.589844 167.857422 L 1188.353516 171.429688 L 1249.710938 113.380859 L 1311.064453 171.429688 L 1315.466797 165.740234 L 1345.921875 136.951172 L 1345.935547 136.964844 L 1345.958984 136.941406 L 1376.568359 165.898438 L 1380.826172 171.431641 L 1442.181641 113.380859 L 1503.539063 171.429688 L 1504.486328 170.207031 L 1507.941406 165.740234 L 1538.396484 136.951172 L 1538.410156 136.964844 L 1538.433594 136.941406 L 1569.042969 165.898438 L 1573.298828 171.431641 L 1634.65625 113.380859 L 1694.001953 169.527344 L 1693.072266 170.734375 L 1634.65625 115.46875 L 1574.230469 172.636719 L 1574.978516 173.603516 L 1538.419922 139.015625 L 1501.847656 173.617188 L 1502.607422 172.636719 L 1442.181641 115.46875 L 1381.757813 172.638672 L 1382.505859 173.601563 L 1345.945313 139.015625 L 1309.384766 173.605469 L 1310.134766 172.636719 L 1249.710938 115.46875 L 1189.283203 172.638672 L 1190.03125 173.601563 L 1153.472656 139.015625 L 1116.910156 173.605469 L 1117.662109 172.636719 L 1057.236328 115.46875 L 996.8125 172.636719 L 997.566406 173.613281 L 960.998047 139.015625 L 924.431641 173.613281 L 925.1875 172.636719 L 864.763672 115.46875 L 804.337891 172.636719 L 805.091797 173.609375 L 768.527344 139.015625 L 731.955078 173.617188 Z M 1694.324219 173.615234 L 1696.912109 170.271484 L 1700.416016 165.740234 L 1730.869141 136.951172 L 1730.882813 136.964844 L 1730.908203 136.941406 L 1761.515625 165.898438 L 1765.773438 171.431641 L 1827.128906 113.380859 L 1886.474609 169.527344 L 1885.542969 170.734375 L 1827.128906 115.46875 L 1766.705078 172.636719 L 1767.458984 173.609375 L 1730.894531 139.015625 L 1694.324219 173.615234 Z M 1886.808594 173.605469 L 1892.888672 165.740234 L 1922 138.21875 L 1922 140.308594 L 1886.808594 173.605469 Z M 21.431641 151.306641 L 20.5 150.101563 L 94.869141 79.738281 L 169.238281 150.101563 L 168.306641 151.306641 L 94.869141 81.828125 L 21.431641 151.306641 Z M 213.90625 151.306641 L 212.972656 150.101563 L 287.34375 79.738281 L 361.712891 150.101563 L 360.779297 151.306641 L 287.34375 81.828125 L 213.90625 151.306641 Z M 406.376953 151.306641 L 405.445313 150.101563 L 479.814453 79.738281 L 554.185547 150.099609 L 553.251953 151.306641 L 479.814453 81.828125 L 406.376953 151.306641 Z M 598.853516 151.306641 L 597.921875 150.101563 L 672.289063 79.738281 L 746.660156 150.099609 L 745.724609 151.306641 L 672.289063 81.828125 L 598.853516 151.306641 Z M 791.324219 151.306641 L 790.392578 150.101563 L 864.763672 79.738281 L 939.132813 150.099609 L 938.199219 151.306641 L 864.763672 81.828125 L 791.324219 151.306641 Z M 983.798828 151.306641 L 982.867188 150.101563 L 1057.236328 79.738281 L 1131.605469 150.101563 L 1130.673828 151.306641 L 1057.236328 81.828125 L 983.798828 151.306641 Z M 1176.271484 151.306641 L 1175.339844 150.101563 L 1249.710938 79.738281 L 1324.078125 150.101563 L 1323.146484 151.306641 L 1249.710938 81.828125 L 1176.271484 151.306641 Z M 1368.746094 151.306641 L 1367.814453 150.101563 L 1442.181641 79.738281 L 1516.552734 150.101563 L 1515.621094 151.306641 L 1442.181641 81.828125 L 1368.746094 151.306641 Z M 1561.21875 151.306641 L 1560.287109 150.101563 L 1634.65625 79.738281 L 1709.027344 150.101563 L 1708.095703 151.306641 L 1634.65625 81.828125 L 1561.21875 151.306641 Z M 1753.693359 151.306641 L 1752.761719 150.101563 L 1827.128906 79.738281 L 1901.5 150.101563 L 1900.568359 151.306641 L 1827.128906 81.828125 L 1753.693359 151.306641 Z M 6.408203 131.878906 L 5.476563 130.671875 L 94.869141 46.097656 L 184.261719 130.671875 L 183.330078 131.878906 L 94.869141 48.185547 L 6.408203 131.878906 Z M 198.880859 131.878906 L 197.949219 130.671875 L 287.34375 46.097656 L 376.736328 130.671875 L 375.802734 131.878906 L 287.34375 48.185547 L 198.880859 131.878906 Z M 391.355469 131.878906 L 390.421875 130.671875 L 479.814453 46.097656 L 569.208984 130.671875 L 568.277344 131.878906 L 479.814453 48.185547 L 391.355469 131.878906 Z M 583.828125 131.878906 L 582.896484 130.671875 L 672.289063 46.097656 L 761.683594 130.671875 L 760.75 131.878906 L 672.289063 48.185547 L 583.828125 131.878906 Z M 776.300781 131.878906 L 775.369141 130.671875 L 864.763672 46.097656 L 954.15625 130.671875 L 953.224609 131.878906 L 864.763672 48.185547 L 776.300781 131.878906 Z M 968.775391 131.878906 L 967.84375 130.671875 L 1057.236328 46.097656 L 1146.630859 130.671875 L 1145.699219 131.878906 L 1057.236328 48.185547 L 968.775391 131.878906 Z M 1161.25 131.878906 L 1160.318359 130.671875 L 1249.710938 46.097656 L 1339.103516 130.671875 L 1338.169922 131.878906 L 1249.710938 48.185547 L 1161.25 131.878906 Z M 1353.722656 131.878906 L 1352.789063 130.671875 L 1442.181641 46.097656 L 1531.578125 130.671875 L 1530.644531 131.878906 L 1442.181641 48.185547 L 1353.722656 131.878906 Z M 1546.193359 131.878906 L 1545.261719 130.671875 L 1634.65625 46.097656 L 1724.048828 130.671875 L 1723.117188 131.878906 L 1634.65625 48.185547 L 1546.193359 131.878906 Z M 1738.667969 131.878906 L 1737.736328 130.671875 L 1827.128906 46.097656 L 1916.523438 130.671875 L 1915.591797 131.878906 L 1827.128906 48.185547 L 1738.667969 131.878906 Z M 11.962891 104.556641 L 0 93.238281 L 0 91.150391 L 12.894531 103.351563 L 11.962891 104.556641 Z M 177.775391 104.556641 L 176.84375 103.351563 L 191.105469 89.855469 L 205.367188 103.351563 L 204.435547 104.556641 L 191.105469 91.945313 L 177.775391 104.556641 Z M 370.248047 104.556641 L 369.318359 103.351563 L 383.580078 89.855469 L 397.841797 103.351563 L 396.910156 104.556641 L 383.580078 91.945313 L 370.248047 104.556641 Z M 562.722656 104.556641 L 561.791016 103.351563 L 576.054688 89.855469 L 590.314453 103.351563 L 589.382813 104.556641 L 576.054688 91.945313 L 562.722656 104.556641 Z M 755.195313 104.556641 L 754.263672 103.351563 L 768.527344 89.855469 L 782.789063 103.351563 L 781.857422 104.556641 L 768.527344 91.945313 L 755.195313 104.556641 Z M 947.669922 104.556641 L 946.738281 103.351563 L 961.001953 89.855469 L 975.261719 103.351563 L 974.330078 104.556641 L 960.998047 91.945313 L 947.669922 104.556641 Z M 1140.144531 104.556641 L 1139.210938 103.351563 L 1153.474609 89.855469 L 1167.736328 103.351563 L 1166.804688 104.556641 L 1153.472656 91.945313 L 1140.144531 104.556641 Z M 1332.617188 104.556641 L 1331.685547 103.351563 L 1345.919922 89.882813 L 1345.935547 89.898438 L 1345.958984 89.871094 L 1360.208984 103.351563 L 1359.277344 104.556641 L 1345.945313 91.945313 L 1332.617188 104.556641 Z M 1551.751953 104.556641 L 1538.419922 91.945313 L 1525.087891 104.554688 L 1524.160156 103.351563 L 1538.396484 89.880859 L 1538.410156 89.896484 L 1538.433594 89.871094 L 1552.683594 103.351563 L 1551.751953 104.556641 Z M 1717.5625 104.556641 L 1716.630859 103.351563 L 1730.869141 89.880859 L 1730.882813 89.896484 L 1730.908203 89.871094 L 1745.154297 103.351563 L 1744.222656 104.556641 L 1730.894531 91.945313 L 1717.5625 104.556641 Z M 1910.037109 104.556641 L 1909.105469 103.351563 L 1922 91.150391 L 1922 93.238281 L 1910.037109 104.556641 Z M 26.986328 85.128906 L 0 59.597656 L 0 57.507813 L 27.919922 83.923828 L 26.986328 85.128906 Z M 162.751953 85.128906 L 161.820313 83.923828 L 191.023438 56.292969 L 191.037109 56.310547 L 191.121094 56.228516 L 220.392578 83.923828 L 219.458984 85.128906 L 191.105469 58.304688 L 162.751953 85.128906 Z M 355.224609 85.128906 L 354.292969 83.923828 L 383.554688 56.238281 L 383.625 56.310547 L 383.650391 56.283203 L 412.865234 83.923828 L 411.933594 85.128906 L 383.580078 58.304688 L 355.224609 85.128906 Z M 547.699219 85.128906 L 546.767578 83.923828 L 576.054688 56.214844 L 605.339844 83.921875 L 604.40625 85.128906 L 576.054688 58.304688 L 547.699219 85.128906 Z M 740.173828 85.128906 L 739.242188 83.923828 L 768.527344 56.214844 L 797.810547 83.923828 L 796.878906 85.128906 L 768.527344 58.304688 L 740.173828 85.128906 Z M 932.644531 85.128906 L 931.714844 83.923828 L 961.001953 56.214844 L 990.285156 83.923828 L 989.353516 85.128906 L 960.998047 58.304688 L 932.644531 85.128906 Z M 1125.117188 85.128906 L 1124.185547 83.923828 L 1153.472656 56.214844 L 1182.757813 83.923828 L 1181.826172 85.128906 L 1153.472656 58.304688 L 1125.117188 85.128906 Z M 1317.591797 85.128906 L 1316.660156 83.923828 L 1345.863281 56.292969 L 1345.935547 56.376953 L 1346.019531 56.285156 L 1375.232422 83.923828 L 1374.300781 85.128906 L 1345.945313 58.304688 L 1317.591797 85.128906 Z M 1510.066406 85.128906 L 1509.134766 83.923828 L 1538.335938 56.292969 L 1538.410156 56.376953 L 1538.492188 56.285156 L 1567.707031 83.923828 L 1566.775391 85.128906 L 1538.419922 58.304688 L 1510.066406 85.128906 Z M 1702.539063 85.128906 L 1701.607422 83.923828 L 1730.810547 56.292969 L 1730.882813 56.376953 L 1730.966797 56.285156 L 1760.179688 83.921875 L 1759.248047 85.128906 L 1730.894531 58.304688 L 1702.539063 85.128906 Z M 1895.013672 85.128906 L 1894.082031 83.923828 L 1922 57.507813 L 1922 59.597656 L 1895.013672 85.128906 Z M 42.009766 65.703125 L 0 25.955078 L 0 23.865234 L 42.941406 64.496094 L 42.009766 65.703125 Z M 147.726563 65.703125 L 146.794922 64.496094 L 191.021484 22.654297 L 191.037109 22.671875 L 191.121094 22.587891 L 235.414063 64.496094 L 234.482422 65.703125 L 191.105469 24.662109 L 147.726563 65.703125 Z M 340.201172 65.703125 L 339.269531 64.496094 L 383.552734 22.599609 L 383.625 22.671875 L 383.652344 22.642578 L 427.888672 64.496094 L 426.957031 65.703125 L 383.580078 24.662109 L 340.201172 65.703125 Z M 532.673828 65.703125 L 531.742188 64.496094 L 576.054688 22.574219 L 620.363281 64.496094 L 619.431641 65.703125 L 576.054688 24.662109 L 532.673828 65.703125 Z M 725.148438 65.703125 L 724.216797 64.496094 L 768.525391 22.574219 L 812.835938 64.496094 L 811.904297 65.703125 L 768.527344 24.662109 L 725.148438 65.703125 Z M 917.621094 65.703125 L 916.689453 64.496094 L 960.998047 22.574219 L 1005.308594 64.496094 L 1004.378906 65.701172 L 960.998047 24.662109 L 917.621094 65.703125 Z M 1110.095703 65.703125 L 1109.164063 64.496094 L 1153.472656 22.574219 L 1197.78125 64.496094 L 1196.849609 65.703125 L 1153.472656 24.662109 L 1110.095703 65.703125 Z M 1302.568359 65.703125 L 1301.636719 64.496094 L 1345.863281 22.654297 L 1345.935547 22.738281 L 1346.019531 22.642578 L 1390.255859 64.496094 L 1389.324219 65.703125 L 1345.945313 24.662109 L 1302.568359 65.703125 Z M 1495.042969 65.703125 L 1494.111328 64.496094 L 1538.335938 22.654297 L 1538.410156 22.738281 L 1538.492188 22.642578 L 1582.728516 64.496094 L 1581.796875 65.703125 L 1538.419922 24.662109 L 1495.042969 65.703125 Z M 1687.517578 65.703125 L 1686.582031 64.494141 L 1730.810547 22.654297 L 1730.882813 22.738281 L 1730.96875 22.644531 L 1775.203125 64.496094 L 1774.271484 65.703125 L 1730.894531 24.662109 L 1687.517578 65.703125 Z M 1879.988281 65.703125 L 1879.056641 64.496094 L 1922 23.865234 L 1922 25.955078 L 1879.988281 65.703125 Z M 443.240234 49.148438 L 443.990234 48.175781 L 442.316406 46.59375 L 444.134766 47.992188 L 449.326172 41.28125 L 479.814453 12.455078 L 510.447266 41.4375 L 514.707031 46.970703 L 563.322266 0.976563 L 565.527344 0.976563 L 515.638672 48.175781 L 516.388672 49.142578 L 479.814453 14.542969 L 443.240234 49.148438 Z M 635.712891 49.148438 L 636.464844 48.175781 L 634.791016 46.591797 L 636.607422 47.990234 L 641.796875 41.277344 L 672.289063 12.455078 L 702.921875 41.4375 L 707.181641 46.970703 L 755.796875 0.976563 L 758.001953 0.976563 L 708.113281 48.175781 L 708.861328 49.142578 L 672.289063 14.542969 L 635.712891 49.148438 Z M 828.1875 49.148438 L 828.939453 48.175781 L 827.263672 46.591797 L 829.082031 47.990234 L 834.271484 41.277344 L 864.763672 12.455078 L 895.396484 41.4375 L 899.65625 46.970703 L 948.269531 0.976563 L 950.474609 0.976563 L 900.587891 48.175781 L 901.335938 49.142578 L 864.763672 14.542969 L 828.1875 49.148438 Z M 1020.662109 49.148438 L 1021.412109 48.175781 L 1019.738281 46.591797 L 1021.554688 47.990234 L 1026.744141 41.277344 L 1057.236328 12.455078 L 1087.869141 41.4375 L 1092.126953 46.970703 L 1140.742188 0.976563 L 1142.949219 0.976563 L 1093.060547 48.175781 L 1093.808594 49.142578 L 1057.236328 14.542969 L 1020.662109 49.148438 Z M 1213.134766 49.148438 L 1213.886719 48.175781 L 1163.998047 0.976563 L 1166.203125 0.976563 L 1214.818359 46.970703 L 1219.21875 41.28125 L 1249.710938 12.455078 L 1280.34375 41.4375 L 1284.601563 46.970703 L 1333.214844 0.976563 L 1335.423828 0.976563 L 1285.533203 48.175781 L 1286.273438 49.132813 L 1249.710938 14.542969 L 1213.134766 49.148438 Z M 1790.554688 49.148438 L 1791.304688 48.175781 L 1789.630859 46.59375 L 1791.449219 47.992188 L 1796.640625 41.28125 L 1827.128906 12.455078 L 1857.761719 41.4375 L 1862.021484 46.970703 L 1910.636719 0.976563 L 1912.841797 0.976563 L 1862.953125 48.175781 L 1863.703125 49.142578 L 1827.128906 14.542969 L 1790.554688 49.148438 Z M 250.769531 49.142578 L 251.519531 48.175781 L 249.845703 46.59375 L 251.662109 47.992188 L 256.853516 41.28125 L 287.34375 12.455078 L 317.974609 41.4375 L 322.234375 46.970703 L 370.847656 0.976563 L 373.054688 0.976563 L 323.166016 48.175781 L 323.910156 49.136719 L 287.34375 14.542969 L 250.769531 49.142578 Z M 1478.753906 49.142578 L 1442.181641 14.542969 L 1405.617188 49.136719 L 1406.361328 48.175781 L 1356.472656 0.976563 L 1358.677734 0.976563 L 1407.292969 46.970703 L 1411.691406 41.28125 L 1442.181641 12.455078 L 1472.816406 41.4375 L 1477.074219 46.970703 L 1525.689453 0.976563 L 1527.896484 0.976563 L 1478.005859 48.175781 L 1478.753906 49.142578 Z M 1671.228516 49.142578 L 1634.65625 14.542969 L 1598.091797 49.136719 L 1598.833984 48.175781 L 1597.169922 46.603516 L 1598.974609 47.992188 L 1604.166016 41.28125 L 1634.65625 12.455078 L 1665.291016 41.4375 L 1669.548828 46.970703 L 1718.162109 0.976563 L 1720.369141 0.976563 L 1670.480469 48.175781 L 1671.228516 49.142578 Z M 58.298828 49.140625 L 59.046875 48.175781 L 57.376953 46.597656 L 59.189453 47.990234 L 64.378906 41.277344 L 94.869141 12.455078 L 125.5 41.4375 L 129.759766 46.970703 L 178.375 0.976563 L 180.582031 0.976563 L 130.691406 48.175781 L 131.435547 49.136719 L 94.869141 14.542969 L 58.298828 49.140625 Z M 57.035156 46.273438 L 9.158203 0.976563 L 11.363281 0.976563 L 57.966797 45.068359 L 57.035156 46.273438 Z M 249.507813 46.273438 L 201.630859 0.976563 L 203.837891 0.976563 L 250.439453 45.068359 L 249.507813 46.273438 Z M 441.980469 46.273438 L 394.103516 0.976563 L 396.310547 0.976563 L 442.912109 45.068359 L 441.980469 46.273438 Z M 634.453125 46.273438 L 586.576172 0.976563 L 588.785156 0.976563 L 635.384766 45.068359 L 634.453125 46.273438 Z M 826.927734 46.273438 L 779.050781 0.976563 L 781.255859 0.976563 L 827.859375 45.068359 L 826.927734 46.273438 Z M 1019.402344 46.273438 L 971.525391 0.976563 L 973.730469 0.976563 L 1020.333984 45.068359 L 1019.402344 46.273438 Z M 1596.822266 46.273438 L 1548.945313 0.976563 L 1551.152344 0.976563 L 1597.751953 45.068359 L 1596.822266 46.273438 Z M 1789.294922 46.273438 L 1741.417969 0.976563 L 1743.625 0.976563 L 1790.226563 45.068359 L 1789.294922 46.273438 Z M 72.058594 26.845703 L 44.714844 0.976563 L 46.919922 0.976563 L 72.988281 25.640625 L 72.058594 26.845703 Z M 117.679688 26.845703 L 116.748047 25.640625 L 142.816406 0.976563 L 145.023438 0.976563 L 117.679688 26.845703 Z M 264.53125 26.845703 L 237.1875 0.976563 L 239.394531 0.976563 L 265.462891 25.640625 L 264.53125 26.845703 Z M 310.152344 26.845703 L 309.220703 25.640625 L 335.289063 0.976563 L 337.496094 0.976563 L 310.152344 26.845703 Z M 457.005859 26.845703 L 429.660156 0.976563 L 431.869141 0.976563 L 457.9375 25.640625 L 457.005859 26.845703 Z M 502.625 26.845703 L 501.693359 25.640625 L 527.761719 0.976563 L 529.970703 0.976563 L 502.625 26.845703 Z M 649.478516 26.845703 L 622.134766 0.976563 L 624.339844 0.976563 L 650.410156 25.640625 L 649.478516 26.845703 Z M 695.099609 26.845703 L 694.167969 25.640625 L 720.236328 0.976563 L 722.443359 0.976563 L 695.099609 26.845703 Z M 887.574219 26.845703 L 886.640625 25.640625 L 912.708984 0.976563 L 914.917969 0.976563 L 887.574219 26.845703 Z M 1034.423828 26.845703 L 1007.082031 0.976563 L 1009.287109 0.976563 L 1035.355469 25.640625 L 1034.423828 26.845703 Z M 1080.046875 26.845703 L 1079.115234 25.640625 L 1105.183594 0.976563 L 1107.392578 0.976563 L 1080.046875 26.845703 Z M 1226.898438 26.845703 L 1199.556641 0.976563 L 1201.761719 0.976563 L 1227.830078 25.640625 L 1226.898438 26.845703 Z M 1272.521484 26.845703 L 1271.589844 25.640625 L 1297.658203 0.976563 L 1299.863281 0.976563 L 1272.521484 26.845703 Z M 1419.371094 26.845703 L 1392.029297 0.976563 L 1394.234375 0.976563 L 1420.302734 25.640625 L 1419.371094 26.845703 Z M 1611.845703 26.845703 L 1584.503906 0.976563 L 1586.708984 0.976563 L 1612.777344 25.640625 L 1611.845703 26.845703 Z M 1657.466797 26.845703 L 1656.535156 25.640625 L 1682.605469 0.976563 L 1684.810547 0.976563 L 1657.466797 26.845703 Z M 1804.320313 26.845703 L 1776.974609 0.976563 L 1779.183594 0.976563 L 1805.251953 25.640625 L 1804.320313 26.845703 Z M 1849.939453 26.845703 L 1849.007813 25.640625 L 1875.076172 0.976563 L 1877.285156 0.976563 L 1849.939453 26.845703 Z M 841.953125 26.84375 L 814.607422 0.976563 L 816.814453 0.976563 L 842.882813 25.640625 L 841.953125 26.84375 Z M 1464.992188 26.84375 L 1464.0625 25.640625 L 1490.130859 0.976563 L 1492.335938 0.976563 L 1464.992188 26.84375 Z M 102.65625 7.419922 L 101.722656 6.212891 L 107.257813 0.976563 L 109.464844 0.976563 L 102.65625 7.419922 Z M 279.554688 7.419922 L 272.746094 0.976563 L 274.953125 0.976563 L 280.486328 6.212891 L 279.554688 7.419922 Z M 295.128906 7.419922 L 294.195313 6.212891 L 299.732422 0.976563 L 301.939453 0.976563 L 295.128906 7.419922 Z M 487.603516 7.419922 L 486.671875 6.212891 L 492.205078 0.976563 L 494.412109 0.976563 L 487.603516 7.419922 Z M 664.501953 7.419922 L 657.691406 0.976563 L 659.900391 0.976563 L 665.433594 6.212891 L 664.501953 7.419922 Z M 680.076172 7.419922 L 679.144531 6.212891 L 684.677734 0.976563 L 686.886719 0.976563 L 680.076172 7.419922 Z M 856.976563 7.419922 L 850.166016 0.976563 L 852.373047 0.976563 L 857.908203 6.212891 L 856.976563 7.419922 Z M 872.550781 7.419922 L 871.619141 6.212891 L 877.152344 0.976563 L 879.359375 0.976563 L 872.550781 7.419922 Z M 1049.449219 7.419922 L 1042.640625 0.976563 L 1044.847656 0.976563 L 1050.380859 6.212891 L 1049.449219 7.419922 Z M 1065.023438 7.419922 L 1064.089844 6.210938 L 1069.626953 0.976563 L 1071.833984 0.976563 L 1065.023438 7.419922 Z M 1241.923828 7.419922 L 1235.113281 0.976563 L 1237.318359 0.976563 L 1242.855469 6.212891 L 1241.923828 7.419922 Z M 1257.496094 7.419922 L 1256.564453 6.212891 L 1262.099609 0.976563 L 1264.304688 0.976563 L 1257.496094 7.419922 Z M 1434.398438 7.419922 L 1427.587891 0.976563 L 1429.792969 0.976563 L 1435.328125 6.212891 L 1434.398438 7.419922 Z M 1449.96875 7.419922 L 1449.037109 6.212891 L 1454.574219 0.976563 L 1456.779297 0.976563 L 1449.96875 7.419922 Z M 1626.871094 7.419922 L 1620.0625 0.976563 L 1622.267578 0.976563 L 1627.802734 6.212891 L 1626.871094 7.419922 Z M 1642.443359 7.419922 L 1641.511719 6.212891 L 1647.044922 0.976563 L 1649.253906 0.976563 L 1642.443359 7.419922 Z M 1834.917969 7.419922 L 1833.986328 6.212891 L 1839.519531 0.976563 L 1841.726563 0.976563 L 1834.917969 7.419922 Z M 87.083984 7.417969 L 80.273438 0.976563 L 82.480469 0.976563 L 88.015625 6.212891 L 87.083984 7.417969 Z M 472.03125 7.417969 L 465.220703 0.976563 L 467.425781 0.976563 L 472.958984 6.212891 L 472.03125 7.417969 Z M 1819.345703 7.417969 L 1812.535156 0.976563 L 1814.740234 0.976563 L 1820.273438 6.212891 L 1819.345703 7.417969 Z"/>
</svg>
