<?xml version="1.0" encoding="UTF-8"?>
<!-- Generated by Pixelmator Pro 3.3.11 -->
<svg width="1642" height="381" viewBox="0 0 1642 381" xmlns="http://www.w3.org/2000/svg">
    <g id="Geometric-Shape">
        <filter id="filter1" x="0" y="0" width="1642" height="381" filterUnits="userSpaceOnUse" primitiveUnits="userSpaceOnUse" color-interpolation-filters="sRGB">
            <feGaussianBlur stdDeviation="10"/>
            <feOffset dx="-0" dy="3" result="offsetblur"/>
            <feFlood flood-color="#fe3e57" flood-opacity="0.5"/>
            <feComposite in2="offsetblur" operator="in"/>
            <feMerge>
                <feMergeNode/>
                <feMergeNode in="SourceGraphic"/>
            </feMerge>
        </filter>
        <path id="Shape-24" fill="#fe3e57" fill-rule="evenodd" stroke="none" filter="url(#filter1)" d="M 1594.498047 357.998047 C 1581.518677 357.998047 1570.998047 347.475555 1570.998047 334.498047 C 1570.998047 321.519562 1581.518677 311 1594.498047 311 C 1607.477295 311 1618.001953 321.519562 1618.001953 334.498047 C 1618.001953 347.475555 1607.477295 357.998047 1594.498047 357.998047 Z"/>
        <path id="Shape-22" fill="#34c3ff" fill-rule="evenodd" stroke="none" d="M 53.583984 107 C 52.389786 107 51.421875 106.032715 51.421875 104.841797 C 51.421875 103.649902 52.389786 102.683594 53.583984 102.683594 C 54.77681 102.683594 55.746094 103.649902 55.746094 104.841797 C 55.746094 106.032715 54.77681 107 53.583984 107 Z M 46.378906 99.806641 C 45.185974 99.806641 44.21875 98.841309 44.21875 97.650391 C 44.21875 96.458496 45.185974 95.492188 46.378906 95.492188 C 47.572296 95.492188 48.541016 96.458496 48.541016 97.650391 C 48.541016 98.841309 47.572296 99.806641 46.378906 99.806641 Z M 60.787109 99.806641 C 59.592239 99.806641 58.625 98.841309 58.625 97.650391 C 58.625 96.458496 59.592239 95.492188 60.787109 95.492188 C 61.978561 95.492188 62.949219 96.458496 62.949219 97.650391 C 62.949219 98.841309 61.978561 99.806641 60.787109 99.806641 Z M 39.177734 92.615234 C 38.281555 92.615234 37.513306 92.071777 37.185547 91.296875 C 37.076706 91.039063 37.017578 90.756348 37.017578 90.458984 C 37.017578 90.160156 37.076706 89.875977 37.185547 89.617188 C 37.513306 88.843262 38.281555 88.300781 39.177734 88.300781 C 40.071747 88.300781 40.840881 88.843262 41.167969 89.617188 C 41.278168 89.875977 41.337891 90.160156 41.337891 90.458984 C 41.337891 90.756348 41.278168 91.039063 41.167969 91.296875 C 40.840881 92.071777 40.071747 92.615234 39.177734 92.615234 Z M 53.583984 92.615234 C 52.389786 92.615234 51.421875 91.649902 51.421875 90.458984 C 51.421875 89.266602 52.389786 88.300781 53.583984 88.300781 C 54.776794 88.300781 55.744141 89.266602 55.744141 90.458984 C 55.744141 91.649902 54.776794 92.615234 53.583984 92.615234 Z M 67.992188 92.615234 C 66.797302 92.615234 65.830078 91.649902 65.830078 90.458984 C 65.830078 89.266602 66.797302 88.300781 67.992188 88.300781 C 69.18512 88.300781 70.152344 89.266602 70.152344 90.458984 C 70.152344 91.649902 69.18512 92.615234 67.992188 92.615234 Z M 31.974609 85.425781 C 31.079788 85.425781 30.310867 84.880859 29.982422 84.105469 C 29.87291 83.848633 29.8125 83.5625 29.8125 83.265625 C 29.8125 82.968262 29.87291 82.683594 29.982422 82.425781 C 30.310867 81.651367 31.079788 81.107422 31.974609 81.107422 C 32.2733 81.107422 32.555145 81.168457 32.814453 81.277344 C 33.58934 81.604492 34.134766 82.371582 34.134766 83.265625 C 34.134766 84.159668 33.58934 84.927246 32.814453 85.253906 C 32.555145 85.363281 32.2733 85.425781 31.974609 85.425781 Z M 46.378906 85.425781 C 45.185974 85.425781 44.21875 84.457031 44.21875 83.265625 C 44.21875 82.073242 45.185974 81.107422 46.378906 81.107422 C 47.572296 81.107422 48.541016 82.073242 48.541016 83.265625 C 48.541016 84.457031 47.572296 85.425781 46.378906 85.425781 Z M 60.787109 85.425781 C 59.592239 85.425781 58.625 84.457031 58.625 83.265625 C 58.625 82.073242 59.592239 81.107422 60.787109 81.107422 C 61.979935 81.107422 62.949219 82.073242 62.949219 83.265625 C 62.949219 84.457031 61.979935 85.425781 60.787109 85.425781 Z M 75.195313 85.425781 C 74.00238 85.425781 73.033203 84.457031 73.033203 83.265625 C 73.033203 82.073242 74.00238 81.107422 75.195313 81.107422 C 76.388031 81.107422 77.355469 82.073242 77.355469 83.265625 C 77.355469 84.457031 76.388031 85.425781 75.195313 85.425781 Z M 24.769531 78.232422 C 23.576021 78.232422 22.609375 77.266113 22.609375 76.074219 C 22.609375 74.883301 23.576021 73.916016 24.769531 73.916016 C 25.963041 73.916016 26.931641 74.883301 26.931641 76.074219 C 26.931641 77.266113 25.963041 78.232422 24.769531 78.232422 Z M 39.177734 78.232422 C 38.281555 78.232422 37.513306 77.688477 37.185547 76.914063 C 37.076706 76.654785 37.017578 76.37207 37.017578 76.074219 C 37.017578 75.776367 37.076706 75.493164 37.185547 75.234375 C 37.513306 74.459473 38.281555 73.916016 39.177734 73.916016 C 40.071747 73.916016 40.840881 74.459473 41.167969 75.234375 C 41.278168 75.493164 41.337891 75.776367 41.337891 76.074219 C 41.337891 76.37207 41.278168 76.654785 41.167969 76.914063 C 40.840881 77.688477 40.071747 78.232422 39.177734 78.232422 Z M 53.583984 78.232422 C 52.389786 78.232422 51.421875 77.266113 51.421875 76.074219 C 51.421875 74.883301 52.389786 73.916016 53.583984 73.916016 C 54.77681 73.916016 55.746094 74.883301 55.746094 76.074219 C 55.746094 77.266113 54.77681 78.232422 53.583984 78.232422 Z M 67.992188 78.232422 C 66.797302 78.232422 65.830078 77.266113 65.830078 76.074219 C 65.830078 74.883301 66.797302 73.916016 67.992188 73.916016 C 69.18512 73.916016 70.152344 74.883301 70.152344 76.074219 C 70.152344 77.266113 69.18512 78.232422 67.992188 78.232422 Z M 82.398438 78.232422 C 81.204239 78.232422 80.236328 77.266113 80.236328 76.074219 C 80.236328 74.883301 81.204239 73.916016 82.398438 73.916016 C 83.591263 73.916016 84.558594 74.883301 84.558594 76.074219 C 84.558594 77.266113 83.591263 78.232422 82.398438 78.232422 Z M 17.566406 71.039063 C 16.373608 71.039063 15.40625 70.07373 15.40625 68.882813 C 15.40625 67.69043 16.373608 66.724609 17.566406 66.724609 C 18.759327 66.724609 19.728516 67.69043 19.728516 68.882813 C 19.728516 70.07373 18.759327 71.039063 17.566406 71.039063 Z M 31.974609 71.039063 C 30.779734 71.039063 29.8125 70.07373 29.8125 68.882813 C 29.8125 67.69043 30.779734 66.724609 31.974609 66.724609 C 33.166046 66.724609 34.134766 67.69043 34.134766 68.882813 C 34.134766 70.07373 33.166046 71.039063 31.974609 71.039063 Z M 46.378906 71.039063 C 45.185974 71.039063 44.21875 70.07373 44.21875 68.882813 C 44.21875 67.69043 45.185974 66.724609 46.378906 66.724609 C 47.572296 66.724609 48.541016 67.69043 48.541016 68.882813 C 48.541016 70.07373 47.572296 71.039063 46.378906 71.039063 Z M 60.787109 71.039063 C 59.592239 71.039063 58.625 70.07373 58.625 68.882813 C 58.625 67.69043 59.592239 66.724609 60.787109 66.724609 C 61.978561 66.724609 62.949219 67.69043 62.949219 68.882813 C 62.949219 70.07373 61.978561 71.039063 60.787109 71.039063 Z M 75.195313 71.039063 C 74.00238 71.039063 73.033203 70.07373 73.033203 68.882813 C 73.033203 67.69043 74.00238 66.724609 75.195313 66.724609 C 76.388031 66.724609 77.355469 67.69043 77.355469 68.882813 C 77.355469 70.07373 76.388031 71.039063 75.195313 71.039063 Z M 89.601563 71.039063 C 88.407379 71.039063 87.439453 70.07373 87.439453 68.882813 C 87.439453 67.69043 88.407379 66.724609 89.601563 66.724609 C 90.792999 66.724609 91.763672 67.69043 91.763672 68.882813 C 91.763672 70.07373 90.792999 71.039063 89.601563 71.039063 Z M 10.363281 63.847656 C 9.169106 63.847656 8.201172 62.882813 8.201172 61.691406 C 8.201172 60.499023 9.169106 59.533203 10.363281 59.533203 C 11.556785 59.533203 12.523438 60.499023 12.523438 61.691406 C 12.523438 62.882813 11.556785 63.847656 10.363281 63.847656 Z M 24.769531 63.847656 C 23.576038 63.847656 22.609375 62.882813 22.609375 61.691406 C 22.609375 60.499023 23.576038 59.533203 24.769531 59.533203 C 25.963024 59.533203 26.931641 60.499023 26.931641 61.691406 C 26.931641 62.882813 25.963024 63.847656 24.769531 63.847656 Z M 39.177734 63.847656 C 38.281555 63.847656 37.513306 63.305664 37.185547 62.53125 C 37.076706 62.272949 37.017578 61.98877 37.017578 61.691406 C 37.017578 61.394043 37.076706 61.108398 37.185547 60.851563 C 37.513306 60.077148 38.281555 59.533203 39.177734 59.533203 C 40.071747 59.533203 40.840881 60.077148 41.167969 60.851563 C 41.278168 61.108398 41.337891 61.394043 41.337891 61.691406 C 41.337891 61.98877 41.278168 62.272949 41.167969 62.53125 C 40.840881 63.305664 40.071747 63.847656 39.177734 63.847656 Z M 53.583984 63.847656 C 52.389786 63.847656 51.421875 62.882813 51.421875 61.691406 C 51.421875 60.499023 52.389786 59.533203 53.583984 59.533203 C 54.776794 59.533203 55.744141 60.499023 55.744141 61.691406 C 55.744141 62.882813 54.776794 63.847656 53.583984 63.847656 Z M 67.992188 63.847656 C 66.797302 63.847656 65.830078 62.882813 65.830078 61.691406 C 65.830078 60.499023 66.797302 59.533203 67.992188 59.533203 C 69.18512 59.533203 70.152344 60.499023 70.152344 61.691406 C 70.152344 62.882813 69.18512 63.847656 67.992188 63.847656 Z M 82.398438 63.847656 C 81.204239 63.847656 80.236328 62.882813 80.236328 61.691406 C 80.236328 60.499023 81.204239 59.533203 82.398438 59.533203 C 83.591263 59.533203 84.558594 60.499023 84.558594 61.691406 C 84.558594 62.882813 83.591263 63.847656 82.398438 63.847656 Z M 96.804688 63.847656 C 95.610504 63.847656 94.642578 62.882813 94.642578 61.691406 C 94.642578 60.499023 95.610504 59.533203 96.804688 59.533203 C 97.997498 59.533203 98.964844 60.499023 98.964844 61.691406 C 98.964844 62.882813 97.997498 63.847656 96.804688 63.847656 Z M 3.160156 56.65625 C 1.965969 56.65625 0.998047 55.69043 0.998047 54.498047 C 0.998047 53.306152 1.965969 52.341797 3.160156 52.341797 C 4.35297 52.341797 5.322266 53.306152 5.322266 54.498047 C 5.322266 55.69043 4.35297 56.65625 3.160156 56.65625 Z M 17.566406 56.65625 C 16.373604 56.65625 15.40625 55.69043 15.40625 54.498047 C 15.40625 53.306152 16.373604 52.341797 17.566406 52.341797 C 18.759331 52.341797 19.728516 53.306152 19.728516 54.498047 C 19.728516 55.69043 18.759331 56.65625 17.566406 56.65625 Z M 31.974609 56.65625 C 31.079788 56.65625 30.310867 56.11377 29.982422 55.339844 C 29.87291 55.081543 29.8125 54.797363 29.8125 54.498047 C 29.8125 54.200195 29.87291 53.916992 29.982422 53.658203 C 30.310867 52.883301 31.079788 52.341797 31.974609 52.341797 C 32.2733 52.341797 32.555145 52.402832 32.814453 52.511719 C 33.58934 52.839355 34.134766 53.604492 34.134766 54.498047 C 34.134766 55.391113 33.58934 56.158691 32.814453 56.486328 C 32.555145 56.595703 32.2733 56.65625 31.974609 56.65625 Z M 46.378906 56.65625 C 45.185974 56.65625 44.21875 55.69043 44.21875 54.498047 C 44.21875 53.306152 45.185974 52.341797 46.378906 52.341797 C 47.572296 52.341797 48.541016 53.306152 48.541016 54.498047 C 48.541016 55.69043 47.572296 56.65625 46.378906 56.65625 Z M 60.787109 56.65625 C 59.592239 56.65625 58.625 55.69043 58.625 54.498047 C 58.625 53.306152 59.592239 52.341797 60.787109 52.341797 C 61.979935 52.341797 62.949219 53.306152 62.949219 54.498047 C 62.949219 55.69043 61.979935 56.65625 60.787109 56.65625 Z M 75.195313 56.65625 C 74.00238 56.65625 73.033203 55.69043 73.033203 54.498047 C 73.033203 53.306152 74.00238 52.341797 75.195313 52.341797 C 76.388031 52.341797 77.355469 53.306152 77.355469 54.498047 C 77.355469 55.69043 76.388031 56.65625 75.195313 56.65625 Z M 89.599609 56.65625 C 88.406799 56.65625 87.439453 55.69043 87.439453 54.498047 C 87.439453 53.306152 88.406799 52.341797 89.599609 52.341797 C 90.792419 52.341797 91.761719 53.306152 91.761719 54.498047 C 91.761719 55.69043 90.792419 56.65625 89.599609 56.65625 Z M 104.007813 56.65625 C 102.812943 56.65625 101.845703 55.69043 101.845703 54.498047 C 101.845703 53.306152 102.812943 52.341797 104.007813 52.341797 C 105.198578 52.341797 106.169922 53.306152 106.169922 54.498047 C 106.169922 55.69043 105.198578 56.65625 104.007813 56.65625 Z M 10.363281 49.464844 C 9.169105 49.464844 8.201172 48.499023 8.201172 47.306641 C 8.201172 46.116211 9.169105 45.148438 10.363281 45.148438 C 11.556787 45.148438 12.523438 46.116211 12.523438 47.306641 C 12.523438 48.499023 11.556787 49.464844 10.363281 49.464844 Z M 24.769531 49.464844 C 23.576035 49.464844 22.609375 48.499023 22.609375 47.306641 C 22.609375 46.116211 23.576035 45.148438 24.769531 45.148438 C 25.963028 45.148438 26.931641 46.116211 26.931641 47.306641 C 26.931641 48.499023 25.963028 49.464844 24.769531 49.464844 Z M 39.177734 49.464844 C 38.281555 49.464844 37.513306 48.920898 37.185547 48.146484 C 37.076706 47.88916 37.017578 47.60498 37.017578 47.306641 C 37.017578 47.009277 37.076706 46.725098 37.185547 46.466797 C 37.513306 45.692383 38.281555 45.148438 39.177734 45.148438 C 40.071747 45.148438 40.840881 45.692383 41.167969 46.466797 C 41.278168 46.725098 41.337891 47.009277 41.337891 47.306641 C 41.337891 47.60498 41.278168 47.88916 41.167969 48.146484 C 40.840881 48.920898 40.071747 49.464844 39.177734 49.464844 Z M 53.583984 49.464844 C 52.389786 49.464844 51.421875 48.499023 51.421875 47.306641 C 51.421875 46.116211 52.389786 45.148438 53.583984 45.148438 C 54.77681 45.148438 55.746094 46.116211 55.746094 47.306641 C 55.746094 48.499023 54.77681 49.464844 53.583984 49.464844 Z M 67.992188 49.464844 C 66.797302 49.464844 65.830078 48.499023 65.830078 47.306641 C 65.830078 46.116211 66.797302 45.148438 67.992188 45.148438 C 69.18512 45.148438 70.152344 46.116211 70.152344 47.306641 C 70.152344 48.499023 69.18512 49.464844 67.992188 49.464844 Z M 82.398438 49.464844 C 81.204239 49.464844 80.236328 48.499023 80.236328 47.306641 C 80.236328 46.116211 81.204239 45.148438 82.398438 45.148438 C 83.591263 45.148438 84.558594 46.116211 84.558594 47.306641 C 84.558594 48.499023 83.591263 49.464844 82.398438 49.464844 Z M 96.804688 49.464844 C 95.610504 49.464844 94.642578 48.499023 94.642578 47.306641 C 94.642578 46.116211 95.610504 45.148438 96.804688 45.148438 C 97.997498 45.148438 98.964844 46.116211 98.964844 47.306641 C 98.964844 48.499023 97.997498 49.464844 96.804688 49.464844 Z M 17.566406 42.273438 C 16.373619 42.273438 15.40625 41.306152 15.40625 40.115234 C 15.40625 38.922852 16.373619 37.957031 17.566406 37.957031 C 18.759315 37.957031 19.728516 38.922852 19.728516 40.115234 C 19.728516 41.306152 18.759315 42.273438 17.566406 42.273438 Z M 31.974609 42.273438 C 30.779747 42.273438 29.8125 41.306152 29.8125 40.115234 C 29.8125 38.922852 30.779747 37.957031 31.974609 37.957031 C 33.166046 37.957031 34.134766 38.922852 34.134766 40.115234 C 34.134766 41.306152 33.166046 42.273438 31.974609 42.273438 Z M 46.378906 42.273438 C 45.185974 42.273438 44.21875 41.306152 44.21875 40.115234 C 44.21875 38.922852 45.185974 37.957031 46.378906 37.957031 C 47.572296 37.957031 48.541016 38.922852 48.541016 40.115234 C 48.541016 41.306152 47.572296 42.273438 46.378906 42.273438 Z M 60.787109 42.273438 C 59.592239 42.273438 58.625 41.306152 58.625 40.115234 C 58.625 38.922852 59.592239 37.957031 60.787109 37.957031 C 61.978561 37.957031 62.949219 38.922852 62.949219 40.115234 C 62.949219 41.306152 61.978561 42.273438 60.787109 42.273438 Z M 75.195313 42.273438 C 74.00238 42.273438 73.033203 41.306152 73.033203 40.115234 C 73.033203 38.922852 74.00238 37.957031 75.195313 37.957031 C 76.388031 37.957031 77.355469 38.922852 77.355469 40.115234 C 77.355469 41.306152 76.388031 42.273438 75.195313 42.273438 Z M 89.601563 42.273438 C 88.407379 42.273438 87.439453 41.306152 87.439453 40.115234 C 87.439453 38.922852 88.407379 37.957031 89.601563 37.957031 C 90.792999 37.957031 91.763672 38.922852 91.763672 40.115234 C 91.763672 41.306152 90.792999 42.273438 89.601563 42.273438 Z M 24.769531 35.082031 C 23.576044 35.082031 22.609375 34.11377 22.609375 32.923828 C 22.609375 31.730957 23.576044 30.765625 24.769531 30.765625 C 25.963018 30.765625 26.931641 31.730957 26.931641 32.923828 C 26.931641 34.11377 25.963018 35.082031 24.769531 35.082031 Z M 39.177734 35.082031 C 38.281555 35.082031 37.513306 34.538086 37.185547 33.763672 C 37.076706 33.504883 37.017578 33.220703 37.017578 32.923828 C 37.017578 32.624023 37.076706 32.342285 37.185547 32.083984 C 37.513306 31.30957 38.281555 30.765625 39.177734 30.765625 C 40.071747 30.765625 40.840881 31.30957 41.167969 32.083984 C 41.278168 32.342285 41.337891 32.624023 41.337891 32.923828 C 41.337891 33.220703 41.278168 33.504883 41.167969 33.763672 C 40.840881 34.538086 40.071747 35.082031 39.177734 35.082031 Z M 53.583984 35.082031 C 52.389786 35.082031 51.421875 34.11377 51.421875 32.923828 C 51.421875 31.730957 52.389786 30.765625 53.583984 30.765625 C 54.776794 30.765625 55.744141 31.730957 55.744141 32.923828 C 55.744141 34.11377 54.776794 35.082031 53.583984 35.082031 Z M 67.992188 35.082031 C 66.797302 35.082031 65.830078 34.11377 65.830078 32.923828 C 65.830078 31.730957 66.797302 30.765625 67.992188 30.765625 C 69.18512 30.765625 70.152344 31.730957 70.152344 32.923828 C 70.152344 34.11377 69.18512 35.082031 67.992188 35.082031 Z M 82.398438 35.082031 C 81.204239 35.082031 80.236328 34.11377 80.236328 32.923828 C 80.236328 31.730957 81.204239 30.765625 82.398438 30.765625 C 83.591263 30.765625 84.558594 31.730957 84.558594 32.923828 C 84.558594 34.11377 83.591263 35.082031 82.398438 35.082031 Z M 31.974609 27.888672 C 31.079788 27.888672 30.310867 27.344727 29.982422 26.570313 C 29.87291 26.3125 29.8125 26.027832 29.8125 25.730469 C 29.8125 25.432617 29.87291 25.148926 29.982422 24.890625 C 30.310867 24.116699 31.079788 23.574219 31.974609 23.574219 C 32.2733 23.574219 32.555145 23.632813 32.814453 23.742188 C 33.58934 24.068848 34.134766 24.835938 34.134766 25.730469 C 34.134766 26.625 33.58934 27.391602 32.814453 27.71875 C 32.555145 27.828125 32.2733 27.888672 31.974609 27.888672 Z M 46.378906 27.888672 C 45.185974 27.888672 44.21875 26.922363 44.21875 25.730469 C 44.21875 24.538086 45.185974 23.574219 46.378906 23.574219 C 47.572296 23.574219 48.541016 24.538086 48.541016 25.730469 C 48.541016 26.922363 47.572296 27.888672 46.378906 27.888672 Z M 60.787109 27.888672 C 59.592239 27.888672 58.625 26.922363 58.625 25.730469 C 58.625 24.538086 59.592239 23.574219 60.787109 23.574219 C 61.979935 23.574219 62.949219 24.538086 62.949219 25.730469 C 62.949219 26.922363 61.979935 27.888672 60.787109 27.888672 Z M 75.195313 27.888672 C 74.00238 27.888672 73.033203 26.922363 73.033203 25.730469 C 73.033203 24.538086 74.00238 23.574219 75.195313 23.574219 C 76.388031 23.574219 77.355469 24.538086 77.355469 25.730469 C 77.355469 26.922363 76.388031 27.888672 75.195313 27.888672 Z M 39.177734 20.697266 C 38.281555 20.697266 37.513306 20.152344 37.185547 19.378906 C 37.076706 19.119141 37.017578 18.837891 37.017578 18.539063 C 37.017578 18.241699 37.076706 17.958496 37.185547 17.699219 C 37.513306 16.925293 38.281555 16.380859 39.177734 16.380859 C 40.071747 16.380859 40.840881 16.925293 41.167969 17.699219 C 41.278168 17.958496 41.337891 18.241699 41.337891 18.539063 C 41.337891 18.837891 41.278168 19.119141 41.167969 19.378906 C 40.840881 20.152344 40.071747 20.697266 39.177734 20.697266 Z M 53.583984 20.697266 C 52.389786 20.697266 51.421875 19.730957 51.421875 18.539063 C 51.421875 17.348145 52.389786 16.380859 53.583984 16.380859 C 54.77681 16.380859 55.746094 17.348145 55.746094 18.539063 C 55.746094 19.730957 54.77681 20.697266 53.583984 20.697266 Z M 67.992188 20.697266 C 66.797302 20.697266 65.830078 19.730957 65.830078 18.539063 C 65.830078 17.348145 66.797302 16.380859 67.992188 16.380859 C 69.18512 16.380859 70.152344 17.348145 70.152344 18.539063 C 70.152344 19.730957 69.18512 20.697266 67.992188 20.697266 Z M 46.378906 13.503906 C 45.185974 13.503906 44.21875 12.540039 44.21875 11.347656 C 44.21875 10.155762 45.185974 9.189453 46.378906 9.189453 C 47.572296 9.189453 48.541016 10.155762 48.541016 11.347656 C 48.541016 12.540039 47.572296 13.503906 46.378906 13.503906 Z M 60.787109 13.503906 C 59.592239 13.503906 58.625 12.540039 58.625 11.347656 C 58.625 10.155762 59.592239 9.189453 60.787109 9.189453 C 61.978561 9.189453 62.949219 10.155762 62.949219 11.347656 C 62.949219 12.540039 61.978561 13.503906 60.787109 13.503906 Z M 53.583984 6.3125 C 52.389786 6.3125 51.421875 5.348145 51.421875 4.15625 C 51.421875 2.964844 52.389786 1.998047 53.583984 1.998047 C 54.776794 1.998047 55.744141 2.964844 55.744141 4.15625 C 55.744141 5.348145 54.776794 6.3125 53.583984 6.3125 Z"/>
    </g>
</svg>
