<?xml version="1.0" encoding="UTF-8"?>
<!-- Generated by Pixelmator Pro 3.3.11 -->
<svg width="9" height="10" viewBox="0 0 9 10" xmlns="http://www.w3.org/2000/svg">
    <path id="angleright" fill="#727272" fill-rule="evenodd" stroke="none" d="M 0.78125 9.988281 C 0.700501 9.988281 0.628479 9.955322 0.566406 9.888672 L 0.101563 9.388672 C 0.039795 9.321289 0.007813 9.244385 0.007813 9.158203 C 0.007813 9.071411 0.039795 8.99646 0.101563 8.929688 L 3.759766 4.998047 L 0.101563 1.068359 C 0.039795 1.002075 0.007813 0.924683 0.007813 0.837891 C 0.007813 0.751221 0.039795 0.67395 0.101563 0.607422 L 0.566406 0.107422 C 0.628479 0.04126 0.700501 0.007813 0.78125 0.007813 C 0.861633 0.007813 0.931702 0.04126 0.994141 0.107422 L 5.332031 4.767578 C 5.394653 4.834595 5.425781 4.911621 5.425781 4.998047 C 5.425781 5.084961 5.394653 5.162598 5.332031 5.228516 L 0.994141 9.888672 C 0.931702 9.955322 0.861633 9.988281 0.78125 9.988281 Z M 4.355469 9.988281 C 4.275146 9.988281 4.202515 9.955322 4.140625 9.888672 L 3.675781 9.388672 C 3.613708 9.321289 3.582031 9.244385 3.582031 9.158203 C 3.582031 9.071411 3.613708 8.99646 3.675781 8.929688 L 7.333984 4.998047 L 3.675781 1.068359 C 3.613708 1.002075 3.582031 0.924683 3.582031 0.837891 C 3.582031 0.751221 3.613708 0.67395 3.675781 0.607422 L 4.140625 0.107422 C 4.202515 0.04126 4.275146 0.007813 4.355469 0.007813 C 4.436401 0.007813 4.506348 0.04126 4.568359 0.107422 L 8.90625 4.767578 C 8.968262 4.834595 9 4.911621 9 4.998047 C 9 5.084961 8.968262 5.162598 8.90625 5.228516 L 4.568359 9.888672 C 4.506348 9.955322 4.436401 9.988281 4.355469 9.988281 Z"/>
</svg>
