<?xml version="1.0" encoding="UTF-8"?>
<!-- Generated by Pixelmator Pro 3.3.11 -->
<svg width="10" height="9" viewBox="0 0 10 9" xmlns="http://www.w3.org/2000/svg">
    <path id="arrow" fill="#FE3E57" fill-rule="evenodd" stroke="none" d="M 9.836304 4.624512 L 6.227051 1.151367 C 6.123901 1.052246 5.986572 0.99707 5.84021 0.99707 C 5.693604 0.99707 5.556396 1.052246 5.453247 1.151367 L 5.12561 1.466797 C 5.022705 1.56543 4.965942 1.698242 4.965942 1.838867 C 4.965942 1.980469 5.022705 2.117188 5.12561 2.21582 L 7.231201 4.246582 L 0.541626 4.246582 C 0.23999 4.246582 0.001709 4.473145 0.001709 4.763184 L 0.001709 5.209473 C 0.001709 5.499512 0.23999 5.75 0.541626 5.75 L 7.255127 5.75 L 5.125732 7.791992 C 5.022705 7.890625 4.965942 8.019531 4.965942 8.160645 C 4.965942 8.300781 5.022705 8.431641 5.125732 8.530762 L 5.453369 8.845215 C 5.556396 8.944336 5.693726 8.998535 5.84021 8.998535 C 5.986694 8.998535 6.124023 8.943359 6.227051 8.844238 L 9.836426 5.371582 C 9.939697 5.272461 9.99646 5.139648 9.995972 4.998047 C 9.996338 4.856934 9.939697 4.724121 9.836304 4.624512"/>
</svg>
