<?xml version="1.0" encoding="UTF-8"?>
<svg xmlns="http://www.w3.org/2000/svg" xmlns:xlink="http://www.w3.org/1999/xlink" width="14px" height="16px" viewBox="0 0 14 16" version="1.1">
<g id="surface1">
<path style=" stroke:none;fill-rule:nonzero;fill:#FE3E57;fill-opacity:1;" d="M 4.75 0.75 C 4.75 0.335938 4.414062 0 4 0 C 3.585938 0 3.25 0.335938 3.25 0.75 L 3.25 2 L 2 2 C 0.898438 2 0 2.898438 0 4 L 0 14 C 0 15.101562 0.898438 16 2 16 L 12 16 C 13.101562 16 14 15.101562 14 14 L 14 4 C 14 2.898438 13.101562 2 12 2 L 10.75 2 L 10.75 0.75 C 10.75 0.335938 10.414062 0 10 0 C 9.585938 0 9.25 0.335938 9.25 0.75 L 9.25 2 L 4.75 2 Z M 1.5 6 L 4 6 L 4 7.75 L 1.5 7.75 Z M 1.5 9.25 L 4 9.25 L 4 11.25 L 1.5 11.25 Z M 5.5 9.25 L 8.5 9.25 L 8.5 11.25 L 5.5 11.25 Z M 10 9.25 L 12.5 9.25 L 12.5 11.25 L 10 11.25 Z M 12.5 7.75 L 10 7.75 L 10 6 L 12.5 6 Z M 12.5 12.75 L 12.5 14 C 12.5 14.273438 12.273438 14.5 12 14.5 L 10 14.5 L 10 12.75 Z M 8.5 12.75 L 8.5 14.5 L 5.5 14.5 L 5.5 12.75 Z M 4 12.75 L 4 14.5 L 2 14.5 C 1.726562 14.5 1.5 14.273438 1.5 14 L 1.5 12.75 Z M 8.5 7.75 L 5.5 7.75 L 5.5 6 L 8.5 6 Z M 8.5 7.75 "/>
</g>
</svg>
