<?xml version="1.0" encoding="UTF-8"?>
<!-- Generated by Pixelmator Pro 3.3.11 -->
<svg width="23" height="21" viewBox="0 0 23 21" xmlns="http://www.w3.org/2000/svg">
    <path id="carticon" fill="#29282d" fill-rule="evenodd" stroke="none" d="M 7.476563 20.996094 C 5.963748 20.996094 4.732422 19.776363 4.732422 18.273438 C 4.732422 16.771 5.963748 15.548828 7.476563 15.548828 C 8.989376 15.548828 10.220703 16.771 10.220703 18.273438 C 10.220703 19.776363 8.989376 20.996094 7.476563 20.996094 Z M 17.435547 20.996094 C 15.922859 20.996094 14.691406 19.776361 14.691406 18.273438 C 14.691406 16.771002 15.922859 15.548828 17.435547 15.548828 C 18.948479 15.548828 20.179688 16.771002 20.179688 18.273438 C 20.179688 19.776361 18.948479 20.996094 17.435547 20.996094 Z M 6.378906 14.376953 C 5.998048 14.376953 5.66687 14.118162 5.578125 13.75 L 2.902344 2.632813 L 0.835938 2.632813 C 0.381227 2.632813 0.013672 2.268066 0.013672 1.816406 C 0.013672 1.364746 0.381227 1 0.835938 1 L 3.552734 1 C 3.933592 1 4.264893 1.259766 4.353516 1.626953 L 5.09375 4.705078 L 21.195313 4.705078 C 21.448364 4.705078 21.685913 4.819824 21.841797 5.017578 C 21.997559 5.216309 22.05481 5.474609 21.994141 5.71875 L 19.990234 13.755859 C 19.899414 14.119627 19.569702 14.376953 19.191406 14.376953 L 6.378906 14.376953 Z"/>
</svg>
