<?xml version="1.0" encoding="UTF-8"?>
<!-- Generated by Pixelmator Pro 3.3.11 -->
<svg width="18" height="22" viewBox="0 0 18 22" xmlns="http://www.w3.org/2000/svg">
    <path id="Shape-1" fill="#fe3e57" fill-rule="evenodd" stroke="none" d="M 1.800781 21.003906 C 1.523835 21.003906 1.263884 20.937866 1.029297 20.828125 L 6.847656 15.142578 L 11.150391 15.142578 L 16.970703 20.828125 C 16.735992 20.937866 16.476257 21.003906 16.199219 21.003906 L 1.800781 21.003906 Z M 0.179688 20 C 0.067444 19.770632 0 19.516844 0 19.246094 L 0 8.9375 C 2.219472 11.10607 3.61729 12.470957 5.751953 14.556641 L 0.179688 20 Z M 17.818359 20 L 12.248047 14.556641 C 14.406179 12.44813 15.868052 11.018545 17.998047 8.9375 L 17.998047 19.246094 C 17.998047 19.516844 17.930603 19.770632 17.818359 20 Z M 6.847656 13.970703 L 3.599609 10.796875 L 3.599609 1.638672 C 3.599609 1.284546 3.893434 0.996094 4.255859 0.996094 L 13.630859 0.996094 C 14.05542 0.996094 14.398438 1.333252 14.398438 1.748047 L 14.398438 10.796875 L 11.150391 13.970703 L 6.847656 13.970703 Z M 2.400391 9.625 L 0.599609 7.867188 L 2.400391 6.107422 L 2.400391 9.625 Z M 15.599609 9.625 L 15.599609 6.107422 L 17.398438 7.867188 L 15.599609 9.625 Z"/>
</svg>
