<?xml version="1.0" encoding="UTF-8"?>
<!-- Generated by Pixelmator Pro 3.3.11 -->
<svg width="21" height="21" viewBox="0 0 21 21" xmlns="http://www.w3.org/2000/svg">
    <path id="hearticon" fill="#29282d" fill-rule="evenodd" stroke="none" d="M 9.941406 20.994141 C 9.558228 20.994141 9.133908 20.824703 6.451172 17.810547 C 5.046022 16.240725 3.341552 14.246092 2.234375 12.845703 C -0.235349 9.747561 -0.192993 7.20117 0.275391 5.630859 C 0.956786 3.253908 2.958864 1.811523 4.449219 1.259766 C 6.152464 0.70752 8.196291 1.258791 10.027344 2.828125 C 11.858397 1.216799 13.902102 0.624023 15.605469 1.21875 C 17.095701 1.727051 19.095947 3.170412 19.777344 5.589844 C 20.245728 7.159666 20.247068 9.705569 17.777344 12.802734 C 16.67029 14.160643 14.965819 16.156252 13.560547 17.769531 C 10.877933 20.82568 10.496582 20.994141 10.113281 20.994141 L 10.070313 20.994141 L 10.027344 20.994141 C 9.984863 20.994141 9.984131 20.994141 9.941406 20.994141 Z"/>
</svg>
