<?xml version="1.0" encoding="UTF-8"?>
<!-- Generated by Pixelmator Pro 3.3.11 -->
<svg width="16" height="17" viewBox="0 0 16 17" xmlns="http://www.w3.org/2000/svg">
    <path id="homeicon" fill="#727272" fill-rule="evenodd" stroke="none" d="M 3.292969 17 C 2.22516 17 1.359375 16.118773 1.359375 15.033203 L 1.359375 8.59375 L 1.074219 8.847656 C 0.805542 9.084717 0.397583 9.054199 0.164063 8.78125 C -0.069336 8.507813 -0.040283 8.095093 0.228516 7.857422 L 7.998047 1 L 15.769531 7.857422 C 16.03833 8.094971 16.067322 8.507813 15.833984 8.78125 C 15.600525 9.054199 15.192627 9.084961 14.923828 8.847656 L 14.638672 8.59375 L 14.638672 15.033203 C 14.638672 16.118773 13.771056 17 12.703125 17 L 9.158203 17 L 9.158203 11.724609 C 9.158203 11.091797 8.654235 10.580078 8.03125 10.580078 C 7.408326 10.580078 6.902344 11.091797 6.902344 11.724609 L 6.902344 17 L 3.292969 17 Z"/>
</svg>
