<?xml version="1.0" encoding="UTF-8"?>
<!-- Generated by Pixelmator Pro 3.3.11 -->
<svg width="20" height="22" viewBox="0 0 20 22" xmlns="http://www.w3.org/2000/svg">
    <path id="phoneicon" fill="#fe3e57" fill-rule="evenodd" stroke="none" d="M 14.056641 21.007813 C 12.41991 21.002829 10.813407 20.355379 9.613281 19.154297 L 1.839844 11.369141 C -0.514308 9.012821 -0.597774 5.263912 1.535156 2.775391 L 6.492188 7.736328 C 6.087312 8.258177 6.10312 9.005129 6.582031 9.484375 L 11.496094 14.40625 C 11.973875 14.885375 12.719423 14.901488 13.242188 14.496094 L 18.199219 19.457031 C 16.967594 20.514635 15.500814 21.012211 14.056641 21.007813 Z M 19.0625 18.664063 L 14.09375 13.689453 L 14.507813 13.275391 C 15.171812 12.61072 16.329346 12.61194 16.992188 13.275391 L 19.476563 15.761719 C 20.16217 16.446777 20.164459 17.559448 19.476563 18.248047 L 19.0625 18.664063 Z M 7.298828 6.884766 L 2.328125 1.912109 L 2.742188 1.496094 C 3.406188 0.831421 4.565674 0.832642 5.228516 1.496094 L 7.712891 3.984375 C 8.398498 4.669678 8.400786 5.782227 7.712891 6.470703 L 7.298828 6.884766 Z"/>
</svg>
