<?xml version="1.0" encoding="UTF-8"?>
<!-- Generated by Pixelmator Pro 3.3.11 -->
<svg width="130" height="131" viewBox="0 0 130 131" xmlns="http://www.w3.org/2000/svg">
    <g id="play-btn">
        <path id="Ellipse-7-copy-2" fill="#fe3e57" fill-rule="evenodd" stroke="none" opacity="0.2" d="M 64.999939 1 C 100.898438 1 129.999939 30.101563 129.999939 66 C 129.999939 101.898438 100.898438 130.999756 64.999939 130.999756 C 29.101379 130.999756 0 101.898438 0 66 C 0 30.101563 29.101379 1 64.999939 1 Z"/>
        <path id="Ellipse-7-copy" fill="#fe3e57" fill-rule="evenodd" stroke="none" opacity="0.6" d="M 64.999939 11 C 95.37561 11 120 35.624023 120 66 C 120 96.375488 95.37561 120.999512 64.999939 120.999512 C 34.624329 120.999512 9.999939 96.375488 9.999939 66 C 9.999939 35.624023 34.624329 11 64.999939 11 Z"/>
        <path id="Ellipse-7" fill="#fe3e57" fill-rule="evenodd" stroke="none" d="M 64.999939 21 C 89.852722 21 109.999939 41.146973 109.999939 66 C 109.999939 90.852539 89.852722 110.999756 64.999939 110.999756 C 40.147095 110.999756 19.999939 90.852539 19.999939 66 C 19.999939 41.146973 40.147095 21 64.999939 21 Z"/>
        <path id="Shape-23" fill="#ffffff" fill-rule="evenodd" stroke="none" d="M 71.815796 64.141602 L 59.991882 56.536133 C 59.445862 56.18457 58.895752 55.999023 58.438477 55.999023 C 57.55426 55.999023 57.007385 56.666016 57.007385 57.781738 L 57.007385 74.21875 C 57.007385 75.333496 57.553589 75.999023 58.435608 75.999023 C 58.893677 75.999023 59.434998 75.8125 59.982239 75.460449 L 71.811646 67.855469 C 72.572388 67.365234 72.993591 66.706055 72.993591 65.998047 C 72.993835 65.290527 72.577393 64.631348 71.815796 64.141602"/>
    </g>
</svg>
