<?xml version="1.0" encoding="UTF-8"?>
<!-- Generated by Pixelmator Pro 3.3.11 -->
<svg width="16" height="16" viewBox="0 0 16 16" xmlns="http://www.w3.org/2000/svg">
    <path id="User" fill="#fe3e57" fill-rule="evenodd" stroke="none" d="M 0 16 C 0 13.863283 0.832765 11.854979 2.34375 10.34375 C 3.215087 9.472657 4.251222 8.826172 5.382813 8.435547 C 4.170778 7.600587 3.375 6.204832 3.375 4.625 C 3.375 2.07471 5.449831 0 8 0 C 10.550229 0 12.625 2.07471 12.625 4.625 C 12.625 6.204832 11.829101 7.600587 10.617188 8.435547 C 11.748778 8.826172 12.784913 9.472657 13.65625 10.34375 C 15.167356 11.854979 16 13.863283 16 16 L 14.75 16 C 14.75 12.278324 11.721981 9.25 8 9.25 C 4.278019 9.25 1.25 12.278324 1.25 16 L 0 16 Z"/>
</svg>
