<?xml version="1.0" encoding="UTF-8"?>
<!-- Generated by Pixelmator Pro 3.3.11 -->
<svg width="20" height="21" viewBox="0 0 20 21" xmlns="http://www.w3.org/2000/svg">
    <path id="Shape-15" fill="#8d8d8d" fill-rule="evenodd" stroke="none" d="M 0 21 C 0 18.328615 1.041018 15.816404 2.929688 13.927734 C 4.01892 12.83838 5.314088 12.032226 6.728516 11.544922 C 5.213502 10.500978 4.21875 8.755857 4.21875 6.78125 C 4.21875 3.593754 6.812259 0.998047 10 0.998047 C 13.187741 0.998047 15.78125 3.593754 15.78125 6.78125 C 15.78125 8.755857 14.786375 10.500978 13.271484 11.544922 C 14.686034 12.032226 15.981202 12.83838 17.070313 13.927734 C 18.958982 15.816404 20 18.328615 20 21 L 18.4375 21 C 18.4375 16.34766 14.652461 12.5625 10 12.5625 C 5.347539 12.5625 1.5625 16.34766 1.5625 21 L 0 21 Z"/>
</svg>
