<?xml version="1.0" encoding="UTF-8"?>
<!-- Generated by Pixelmator Pro 3.3.11 -->
<svg width="21" height="21" viewBox="0 0 21 21" xmlns="http://www.w3.org/2000/svg">
    <path id="user" fill="#29282d" fill-rule="evenodd" stroke="none" d="M 1 20.998047 C 1 18.32715 2.040895 15.816404 3.929688 13.927734 C 5.018798 12.83838 6.313966 12.032714 7.728516 11.544922 C 6.213502 10.501466 5.21875 8.755857 5.21875 6.78125 C 5.21875 3.592777 7.812259 0.998047 11 0.998047 C 14.187863 0.998047 16.78125 3.592777 16.78125 6.78125 C 16.78125 8.755857 15.786497 10.501466 14.271484 11.544922 C 15.685912 12.032714 16.981081 12.83838 18.070313 13.927734 C 19.958982 15.816404 21 18.32715 21 20.998047 L 19.4375 20.998047 C 19.4375 16.345707 15.652583 12.5625 11 12.5625 C 6.347539 12.5625 2.5625 16.345707 2.5625 20.998047 L 1 20.998047 Z"/>
</svg>
